{"glyphs":{"0":{"ha":951,"x_min":47,"x_max":904,"o":"m 476 -19 q 254 40 351 -19 q 102 215 157 100 q 47 486 47 329 q 102 758 47 643 q 254 932 157 872 q 476 992 351 992 q 697 932 600 992 q 849 758 794 872 q 904 486 904 643 q 849 215 904 329 q 697 40 794 100 q 476 -19 600 -19 m 476 206 q 587 273 546 206 q 628 486 628 340 q 587 699 628 632 q 476 767 546 767 q 365 699 406 767 q 324 486 324 632 q 365 273 324 340 q 476 206 406 206 z "},"1":{"ha":563,"x_min":8,"x_max":464,"o":"m 464 972 l 464 0 l 189 0 l 189 760 l 8 760 l 8 972 l 464 972 z "},"2":{"ha":832,"x_min":-8,"x_max":799,"o":"m 799 218 l 799 0 l 42 0 l 42 172 l 406 513 q 476 598 458 563 q 494 669 494 633 q 463 743 494 717 q 369 769 431 769 q 270 745 315 769 q 196 675 225 721 l -8 789 q 151 938 49 883 q 394 992 254 992 q 591 956 506 992 q 724 852 676 919 q 772 696 772 785 q 738 547 772 617 q 607 388 704 476 l 424 218 l 799 218 z "},"3":{"ha":838,"x_min":-6,"x_max":796,"o":"m 546 583 q 731 484 667 558 q 796 304 796 410 q 749 144 796 218 q 608 26 703 71 q 372 -19 513 -19 q 169 6 269 -19 q -6 76 68 31 l 94 283 q 223 224 151 244 q 364 203 294 203 q 476 229 435 203 q 518 304 518 256 q 369 399 518 399 l 254 399 l 254 572 l 428 760 l 44 760 l 44 972 l 747 972 l 747 800 l 546 583 z "},"4":{"ha":972,"x_min":38,"x_max":964,"o":"m 964 186 l 819 186 l 819 0 l 551 0 l 551 186 l 38 186 l 38 365 l 474 972 l 758 972 l 363 404 l 560 404 l 560 569 l 819 569 l 819 404 l 964 404 l 964 186 z "},"5":{"ha":843,"x_min":11,"x_max":811,"o":"m 411 618 q 713 535 615 618 q 811 313 811 451 q 765 147 811 222 q 623 26 718 71 q 388 -19 528 -19 q 184 6 285 -19 q 11 76 83 31 l 110 283 q 238 224 168 244 q 379 203 308 203 q 492 230 450 203 q 535 306 535 257 q 493 379 535 354 q 346 404 451 404 l 82 404 l 131 972 l 750 972 l 750 760 l 358 760 l 346 618 l 411 618 z "},"6":{"ha":901,"x_min":47,"x_max":879,"o":"m 544 619 q 713 581 636 619 q 834 473 789 543 q 879 313 879 403 q 828 138 879 214 q 691 22 778 63 q 497 -19 604 -19 q 168 104 289 -19 q 47 460 47 228 q 112 747 47 626 q 293 929 176 867 q 564 992 410 992 q 722 974 647 992 q 850 921 797 956 l 750 724 q 571 774 679 774 q 400 715 465 774 q 325 547 335 657 q 544 619 408 619 m 481 176 q 576 210 539 176 q 613 300 613 243 q 576 389 613 356 q 479 422 539 422 q 382 388 419 422 q 344 299 344 354 q 381 210 344 244 q 481 176 418 176 z "},"7":{"ha":878,"x_min":32,"x_max":838,"o":"m 838 972 l 838 800 l 494 0 l 194 0 l 522 754 l 267 754 l 267 604 l 32 604 l 32 972 l 838 972 z "},"8":{"ha":929,"x_min":42,"x_max":886,"o":"m 747 513 q 850 417 814 474 q 886 286 886 360 q 833 125 886 194 q 685 18 781 56 q 464 -19 589 -19 q 243 18 339 -19 q 94 125 147 56 q 42 286 42 194 q 78 417 42 360 q 181 513 114 474 q 103 597 131 547 q 76 708 76 647 q 125 858 76 793 q 262 957 174 922 q 464 992 350 992 q 666 957 578 992 q 803 858 754 922 q 851 708 851 793 q 824 597 851 647 q 747 513 797 547 m 464 799 q 381 772 413 799 q 349 696 349 744 q 380 622 349 649 q 464 594 411 594 q 549 622 517 594 q 581 696 581 649 q 549 772 581 744 q 464 799 517 799 m 464 174 q 570 206 531 174 q 610 294 610 239 q 570 383 610 350 q 464 415 531 415 q 358 383 397 415 q 318 294 318 350 q 358 206 318 239 q 464 174 397 174 z "},"9":{"ha":901,"x_min":22,"x_max":854,"o":"m 403 992 q 733 868 613 992 q 854 513 854 744 q 790 226 854 346 q 608 43 725 106 q 336 -19 490 -19 q 179 -1 254 -19 q 51 51 104 18 l 151 249 q 331 199 222 199 q 499 256 435 199 q 575 424 564 314 q 357 353 492 353 q 189 391 265 353 q 67 499 113 429 q 22 660 22 569 q 73 834 22 758 q 210 951 124 910 q 403 992 297 992 m 422 550 q 519 584 482 550 q 557 674 557 618 q 520 762 557 728 q 421 796 483 796 q 326 763 363 796 q 289 672 289 729 q 326 583 289 617 q 422 550 363 550 z "},"\u0000":{"ha":0,"x_min":0,"x_max":0,"o":""},"\r":{"ha":404,"x_min":0,"x_max":0,"o":""}," ":{"ha":404,"x_min":0,"x_max":0,"o":""},"A":{"ha":1103,"x_min":89,"x_max":1014,"o":"m 551 992 q 794 937 689 992 q 956 777 899 882 q 1014 525 1014 672 l 1014 0 l 739 0 l 739 215 l 360 215 l 360 0 l 89 0 l 89 525 q 147 777 89 672 q 309 937 204 882 q 551 992 414 992 m 739 428 l 739 549 q 688 710 739 656 q 550 764 636 764 q 411 710 463 764 q 360 549 360 656 l 360 428 l 739 428 z "},"Á":{"ha":1103,"x_min":89,"x_max":1014,"o":"m 551 992 q 794 937 689 992 q 956 777 899 882 q 1014 525 1014 672 l 1014 0 l 739 0 l 739 215 l 360 215 l 360 0 l 89 0 l 89 525 q 147 777 89 672 q 309 937 204 882 q 551 992 414 992 m 739 428 l 739 549 q 688 710 739 656 q 550 764 636 764 q 411 710 463 764 q 360 549 360 656 l 360 428 l 739 428 m 601 1263 l 865 1263 l 604 1051 l 415 1051 l 601 1263 z "},"Ă":{"ha":1103,"x_min":89,"x_max":1014,"o":"m 551 992 q 794 937 689 992 q 956 777 899 882 q 1014 525 1014 672 l 1014 0 l 739 0 l 739 215 l 360 215 l 360 0 l 89 0 l 89 525 q 147 777 89 672 q 309 937 204 882 q 551 992 414 992 m 739 428 l 739 549 q 688 710 739 656 q 550 764 636 764 q 411 710 463 764 q 360 549 360 656 l 360 428 l 739 428 m 551 1039 q 358 1099 433 1039 q 279 1263 283 1160 l 440 1263 q 474 1196 442 1221 q 551 1171 506 1171 q 629 1196 597 1171 q 663 1263 661 1221 l 824 1263 q 744 1099 819 1160 q 551 1039 669 1039 z "},"Ắ":{"ha":1103,"x_min":89,"x_max":1014,"o":"m 551 992 q 794 937 689 992 q 956 777 899 882 q 1014 525 1014 672 l 1014 0 l 739 0 l 739 215 l 360 215 l 360 0 l 89 0 l 89 525 q 147 777 89 672 q 309 937 204 882 q 551 992 414 992 m 739 428 l 739 549 q 688 710 739 656 q 550 764 636 764 q 411 710 463 764 q 360 549 360 656 l 360 428 l 739 428 m 551 1039 q 360 1088 435 1039 q 279 1221 285 1138 l 432 1221 q 469 1176 436 1193 q 551 1158 501 1158 q 634 1176 601 1158 q 671 1221 667 1193 l 824 1221 q 743 1088 818 1138 q 551 1039 668 1039 m 567 1442 l 825 1442 l 601 1268 l 419 1268 l 567 1442 z "},"Ặ":{"ha":1103,"x_min":89,"x_max":1014,"o":"m 551 992 q 794 937 689 992 q 956 777 899 882 q 1014 525 1014 672 l 1014 0 l 739 0 l 739 215 l 360 215 l 360 0 l 89 0 l 89 525 q 147 777 89 672 q 309 937 204 882 q 551 992 414 992 m 739 428 l 739 549 q 688 710 739 656 q 550 764 636 764 q 411 710 463 764 q 360 549 360 656 l 360 428 l 739 428 m 551 -303 q 473 -274 504 -303 q 442 -196 442 -244 q 473 -117 442 -147 q 551 -86 504 -86 q 630 -117 599 -86 q 661 -196 661 -147 q 630 -274 661 -244 q 551 -303 599 -303 m 551 1039 q 358 1099 433 1039 q 279 1263 283 1160 l 440 1263 q 474 1196 442 1221 q 551 1171 506 1171 q 629 1196 597 1171 q 663 1263 661 1221 l 824 1263 q 744 1099 819 1160 q 551 1039 669 1039 z "},"Ằ":{"ha":1103,"x_min":89,"x_max":1014,"o":"m 551 992 q 794 937 689 992 q 956 777 899 882 q 1014 525 1014 672 l 1014 0 l 739 0 l 739 215 l 360 215 l 360 0 l 89 0 l 89 525 q 147 777 89 672 q 309 937 204 882 q 551 992 414 992 m 739 428 l 739 549 q 688 710 739 656 q 550 764 636 764 q 411 710 463 764 q 360 549 360 656 l 360 428 l 739 428 m 551 1039 q 360 1088 435 1039 q 279 1221 285 1138 l 432 1221 q 469 1176 436 1193 q 551 1158 501 1158 q 634 1176 601 1158 q 671 1221 667 1193 l 824 1221 q 743 1088 818 1138 q 551 1039 668 1039 m 278 1442 l 536 1442 l 683 1268 l 503 1268 l 278 1442 z "},"Ẳ":{"ha":1103,"x_min":89,"x_max":1014,"o":"m 551 992 q 794 937 689 992 q 956 777 899 882 q 1014 525 1014 672 l 1014 0 l 739 0 l 739 215 l 360 215 l 360 0 l 89 0 l 89 525 q 147 777 89 672 q 309 937 204 882 q 551 992 414 992 m 739 428 l 739 549 q 688 710 739 656 q 550 764 636 764 q 411 710 463 764 q 360 549 360 656 l 360 428 l 739 428 m 551 1039 q 360 1088 435 1039 q 279 1221 285 1138 l 432 1221 q 469 1176 436 1193 q 551 1158 501 1158 q 634 1176 601 1158 q 671 1221 667 1193 l 824 1221 q 743 1088 818 1138 q 551 1039 668 1039 m 531 1283 q 581 1339 581 1310 q 568 1366 581 1356 q 536 1376 556 1376 q 474 1360 507 1376 l 432 1435 q 558 1468 485 1468 q 658 1437 621 1468 q 696 1353 696 1406 q 667 1277 696 1310 q 593 1226 638 1244 l 531 1283 z "},"Ẵ":{"ha":1103,"x_min":89,"x_max":1014,"o":"m 551 992 q 794 937 689 992 q 956 777 899 882 q 1014 525 1014 672 l 1014 0 l 739 0 l 739 215 l 360 215 l 360 0 l 89 0 l 89 525 q 147 777 89 672 q 309 937 204 882 q 551 992 414 992 m 739 428 l 739 549 q 688 710 739 656 q 550 764 636 764 q 411 710 463 764 q 360 549 360 656 l 360 428 l 739 428 m 551 1039 q 360 1088 435 1039 q 279 1221 285 1138 l 432 1221 q 469 1176 436 1193 q 551 1158 501 1158 q 634 1176 601 1158 q 671 1221 667 1193 l 824 1221 q 743 1088 818 1138 q 551 1039 668 1039 m 656 1260 q 585 1272 615 1260 q 521 1306 556 1285 q 490 1323 506 1315 q 464 1331 475 1331 q 422 1315 438 1331 q 404 1271 407 1299 l 272 1271 q 320 1410 274 1361 q 449 1460 367 1460 q 516 1447 486 1460 q 581 1414 546 1435 q 616 1395 603 1401 q 642 1389 629 1389 q 684 1406 668 1389 q 703 1449 700 1422 l 831 1449 q 783 1310 829 1360 q 656 1260 738 1260 z "},"Ǎ":{"ha":1103,"x_min":89,"x_max":1014,"o":"m 551 992 q 794 937 689 992 q 956 777 899 882 q 1014 525 1014 672 l 1014 0 l 739 0 l 739 215 l 360 215 l 360 0 l 89 0 l 89 525 q 147 777 89 672 q 309 937 204 882 q 551 992 414 992 m 739 428 l 739 549 q 688 710 739 656 q 550 764 636 764 q 411 710 463 764 q 360 549 360 656 l 360 428 l 739 428 m 846 1263 l 665 1051 l 438 1051 l 257 1263 l 432 1263 l 551 1157 l 671 1263 l 846 1263 z "},"Â":{"ha":1103,"x_min":89,"x_max":1014,"o":"m 551 992 q 794 937 689 992 q 956 777 899 882 q 1014 525 1014 672 l 1014 0 l 739 0 l 739 215 l 360 215 l 360 0 l 89 0 l 89 525 q 147 777 89 672 q 309 937 204 882 q 551 992 414 992 m 739 428 l 739 549 q 688 710 739 656 q 550 764 636 764 q 411 710 463 764 q 360 549 360 656 l 360 428 l 739 428 m 671 1051 l 551 1157 l 432 1051 l 257 1051 l 438 1263 l 665 1263 l 846 1051 l 671 1051 z "},"Ấ":{"ha":1103,"x_min":89,"x_max":1140,"o":"m 551 992 q 794 937 689 992 q 956 777 899 882 q 1014 525 1014 672 l 1014 0 l 739 0 l 739 215 l 360 215 l 360 0 l 89 0 l 89 525 q 147 777 89 672 q 309 937 204 882 q 551 992 414 992 m 739 428 l 739 549 q 688 710 739 656 q 550 764 636 764 q 411 710 463 764 q 360 549 360 656 l 360 428 l 739 428 m 669 1051 l 551 1133 l 433 1051 l 257 1051 l 439 1221 l 664 1221 l 846 1051 l 669 1051 m 882 1364 l 1140 1364 l 917 1190 l 735 1190 l 882 1364 z "},"Ậ":{"ha":1103,"x_min":89,"x_max":1014,"o":"m 551 992 q 794 937 689 992 q 956 777 899 882 q 1014 525 1014 672 l 1014 0 l 739 0 l 739 215 l 360 215 l 360 0 l 89 0 l 89 525 q 147 777 89 672 q 309 937 204 882 q 551 992 414 992 m 739 428 l 739 549 q 688 710 739 656 q 550 764 636 764 q 411 710 463 764 q 360 549 360 656 l 360 428 l 739 428 m 551 -303 q 473 -274 504 -303 q 442 -196 442 -244 q 473 -117 442 -147 q 551 -86 504 -86 q 630 -117 599 -86 q 661 -196 661 -147 q 630 -274 661 -244 q 551 -303 599 -303 m 671 1051 l 551 1157 l 432 1051 l 257 1051 l 438 1263 l 665 1263 l 846 1051 l 671 1051 z "},"Ầ":{"ha":1103,"x_min":89,"x_max":1014,"o":"m 551 992 q 794 937 689 992 q 956 777 899 882 q 1014 525 1014 672 l 1014 0 l 739 0 l 739 215 l 360 215 l 360 0 l 89 0 l 89 525 q 147 777 89 672 q 309 937 204 882 q 551 992 414 992 m 739 428 l 739 549 q 688 710 739 656 q 550 764 636 764 q 411 710 463 764 q 360 549 360 656 l 360 428 l 739 428 m 669 1051 l 551 1133 l 433 1051 l 257 1051 l 439 1221 l 664 1221 l 846 1051 l 669 1051 m 593 1364 l 851 1364 l 999 1190 l 818 1190 l 593 1364 z "},"Ẩ":{"ha":1103,"x_min":89,"x_max":1014,"o":"m 551 992 q 794 937 689 992 q 956 777 899 882 q 1014 525 1014 672 l 1014 0 l 739 0 l 739 215 l 360 215 l 360 0 l 89 0 l 89 525 q 147 777 89 672 q 309 937 204 882 q 551 992 414 992 m 739 428 l 739 549 q 688 710 739 656 q 550 764 636 764 q 411 710 463 764 q 360 549 360 656 l 360 428 l 739 428 m 669 1051 l 551 1133 l 433 1051 l 257 1051 l 439 1221 l 664 1221 l 846 1051 l 669 1051 m 761 1219 q 811 1275 811 1246 q 799 1302 811 1292 q 767 1313 786 1313 q 704 1296 738 1313 l 663 1371 q 789 1404 715 1404 q 889 1373 851 1404 q 926 1289 926 1342 q 897 1213 926 1246 q 824 1163 868 1181 l 761 1219 z "},"Ẫ":{"ha":1103,"x_min":89,"x_max":1014,"o":"m 551 992 q 794 937 689 992 q 956 777 899 882 q 1014 525 1014 672 l 1014 0 l 739 0 l 739 215 l 360 215 l 360 0 l 89 0 l 89 525 q 147 777 89 672 q 309 937 204 882 q 551 992 414 992 m 739 428 l 739 549 q 688 710 739 656 q 550 764 636 764 q 411 710 463 764 q 360 549 360 656 l 360 428 l 739 428 m 669 1051 l 551 1133 l 433 1051 l 257 1051 l 439 1221 l 664 1221 l 846 1051 l 669 1051 m 656 1269 q 585 1282 615 1269 q 521 1315 556 1294 q 490 1333 506 1325 q 464 1340 475 1340 q 422 1324 438 1340 q 404 1281 407 1308 l 272 1281 q 320 1420 274 1371 q 449 1469 367 1469 q 516 1457 486 1469 q 581 1424 546 1444 q 616 1405 603 1411 q 642 1399 629 1399 q 684 1415 668 1399 q 703 1458 700 1432 l 831 1458 q 783 1319 829 1369 q 656 1269 738 1269 z "},"Ȁ":{"ha":1103,"x_min":89,"x_max":1014,"o":"m 551 992 q 794 937 689 992 q 956 777 899 882 q 1014 525 1014 672 l 1014 0 l 739 0 l 739 215 l 360 215 l 360 0 l 89 0 l 89 525 q 147 777 89 672 q 309 937 204 882 q 551 992 414 992 m 739 428 l 739 549 q 688 710 739 656 q 550 764 636 764 q 411 710 463 764 q 360 549 360 656 l 360 428 l 739 428 m 169 1263 l 406 1263 l 492 1051 l 308 1051 l 169 1263 m 471 1263 l 707 1263 l 794 1051 l 611 1051 l 471 1263 z "},"Ä":{"ha":1103,"x_min":89,"x_max":1014,"o":"m 551 992 q 794 937 689 992 q 956 777 899 882 q 1014 525 1014 672 l 1014 0 l 739 0 l 739 215 l 360 215 l 360 0 l 89 0 l 89 525 q 147 777 89 672 q 309 937 204 882 q 551 992 414 992 m 739 428 l 739 549 q 688 710 739 656 q 550 764 636 764 q 411 710 463 764 q 360 549 360 656 l 360 428 l 739 428 m 404 1050 q 326 1080 357 1050 q 294 1158 294 1110 q 326 1238 294 1207 q 404 1268 357 1268 q 483 1238 451 1268 q 514 1158 514 1207 q 483 1080 514 1110 q 404 1050 451 1050 m 699 1050 q 620 1080 651 1050 q 589 1158 589 1110 q 620 1238 589 1207 q 699 1268 651 1268 q 777 1238 746 1268 q 808 1158 808 1207 q 777 1080 808 1110 q 699 1050 746 1050 z "},"Ạ":{"ha":1103,"x_min":89,"x_max":1014,"o":"m 551 992 q 794 937 689 992 q 956 777 899 882 q 1014 525 1014 672 l 1014 0 l 739 0 l 739 215 l 360 215 l 360 0 l 89 0 l 89 525 q 147 777 89 672 q 309 937 204 882 q 551 992 414 992 m 739 428 l 739 549 q 688 710 739 656 q 550 764 636 764 q 411 710 463 764 q 360 549 360 656 l 360 428 l 739 428 m 551 -303 q 473 -274 504 -303 q 442 -196 442 -244 q 473 -117 442 -147 q 551 -86 504 -86 q 630 -117 599 -86 q 661 -196 661 -147 q 630 -274 661 -244 q 551 -303 599 -303 z "},"À":{"ha":1103,"x_min":89,"x_max":1014,"o":"m 551 992 q 794 937 689 992 q 956 777 899 882 q 1014 525 1014 672 l 1014 0 l 739 0 l 739 215 l 360 215 l 360 0 l 89 0 l 89 525 q 147 777 89 672 q 309 937 204 882 q 551 992 414 992 m 739 428 l 739 549 q 688 710 739 656 q 550 764 636 764 q 411 710 463 764 q 360 549 360 656 l 360 428 l 739 428 m 238 1263 l 501 1263 l 688 1051 l 499 1051 l 238 1263 z "},"Ả":{"ha":1103,"x_min":89,"x_max":1014,"o":"m 551 992 q 794 937 689 992 q 956 777 899 882 q 1014 525 1014 672 l 1014 0 l 739 0 l 739 215 l 360 215 l 360 0 l 89 0 l 89 525 q 147 777 89 672 q 309 937 204 882 q 551 992 414 992 m 739 428 l 739 549 q 688 710 739 656 q 550 764 636 764 q 411 710 463 764 q 360 549 360 656 l 360 428 l 739 428 m 521 1118 q 574 1156 558 1136 q 589 1199 589 1175 q 572 1240 589 1225 q 526 1254 554 1254 q 446 1226 486 1254 l 392 1329 q 467 1367 424 1354 q 556 1381 510 1381 q 687 1336 636 1381 q 738 1221 738 1292 q 601 1038 738 1099 l 521 1118 z "},"Ȃ":{"ha":1103,"x_min":89,"x_max":1014,"o":"m 551 992 q 794 937 689 992 q 956 777 899 882 q 1014 525 1014 672 l 1014 0 l 739 0 l 739 215 l 360 215 l 360 0 l 89 0 l 89 525 q 147 777 89 672 q 309 937 204 882 q 551 992 414 992 m 739 428 l 739 549 q 688 710 739 656 q 550 764 636 764 q 411 710 463 764 q 360 549 360 656 l 360 428 l 739 428 m 279 1051 q 358 1215 283 1154 q 551 1275 433 1275 q 744 1215 669 1275 q 824 1051 819 1154 l 663 1051 q 629 1118 661 1093 q 551 1143 597 1143 q 474 1118 506 1143 q 440 1051 442 1093 l 279 1051 z "},"Ā":{"ha":1103,"x_min":89,"x_max":1014,"o":"m 551 992 q 794 937 689 992 q 956 777 899 882 q 1014 525 1014 672 l 1014 0 l 739 0 l 739 215 l 360 215 l 360 0 l 89 0 l 89 525 q 147 777 89 672 q 309 937 204 882 q 551 992 414 992 m 739 428 l 739 549 q 688 710 739 656 q 550 764 636 764 q 411 710 463 764 q 360 549 360 656 l 360 428 l 739 428 m 278 1228 l 825 1228 l 825 1086 l 278 1086 l 278 1228 z "},"Ą":{"ha":1103,"x_min":89,"x_max":1049,"o":"m 551 992 q 794 937 689 992 q 956 777 899 882 q 1014 525 1014 672 l 1014 0 l 739 0 l 739 215 l 360 215 l 360 0 l 89 0 l 89 525 q 147 777 89 672 q 309 937 204 882 q 551 992 414 992 m 739 428 l 739 549 q 688 710 739 656 q 550 764 636 764 q 411 710 463 764 q 360 549 360 656 l 360 428 l 739 428 m 900 -328 q 749 -283 803 -328 q 694 -165 694 -239 q 751 -34 694 -93 q 917 63 807 25 l 1014 0 q 890 -72 926 -39 q 854 -142 854 -106 q 874 -186 854 -169 q 931 -203 894 -203 q 1014 -182 975 -203 l 1049 -296 q 981 -319 1022 -310 q 900 -328 940 -328 z "},"Å":{"ha":1103,"x_min":89,"x_max":1014,"o":"m 551 992 q 794 937 689 992 q 956 777 899 882 q 1014 525 1014 672 l 1014 0 l 739 0 l 739 215 l 360 215 l 360 0 l 89 0 l 89 525 q 147 777 89 672 q 309 937 204 882 q 551 992 414 992 m 739 428 l 739 549 q 688 710 739 656 q 550 764 636 764 q 411 710 463 764 q 360 549 360 656 l 360 428 l 739 428 m 551 1040 q 421 1092 474 1040 q 368 1217 368 1143 q 421 1343 368 1292 q 551 1394 474 1394 q 644 1371 601 1394 q 710 1306 686 1347 q 735 1217 735 1265 q 681 1092 735 1143 q 551 1040 628 1040 m 551 1138 q 608 1160 585 1138 q 631 1217 631 1182 q 608 1274 631 1251 q 551 1297 585 1297 q 495 1274 518 1297 q 472 1217 472 1251 q 495 1160 472 1182 q 551 1138 518 1138 z "},"Ǻ":{"ha":1103,"x_min":89,"x_max":1014,"o":"m 551 992 q 794 937 689 992 q 956 777 899 882 q 1014 525 1014 672 l 1014 0 l 739 0 l 739 215 l 360 215 l 360 0 l 89 0 l 89 525 q 147 777 89 672 q 309 937 204 882 q 551 992 414 992 m 739 428 l 739 549 q 688 710 739 656 q 550 764 636 764 q 411 710 463 764 q 360 549 360 656 l 360 428 l 739 428 m 711 1304 q 735 1217 735 1264 q 681 1092 735 1143 q 551 1040 628 1040 q 421 1092 474 1040 q 368 1217 368 1143 q 421 1343 368 1292 q 551 1394 474 1394 q 619 1382 589 1394 l 743 1511 l 872 1414 l 711 1304 m 551 1138 q 608 1160 585 1138 q 631 1217 631 1182 q 608 1274 631 1251 q 551 1297 585 1297 q 495 1274 518 1297 q 472 1217 472 1251 q 495 1160 472 1182 q 551 1138 518 1138 z "},"Ã":{"ha":1103,"x_min":89,"x_max":1014,"o":"m 551 992 q 794 937 689 992 q 956 777 899 882 q 1014 525 1014 672 l 1014 0 l 739 0 l 739 215 l 360 215 l 360 0 l 89 0 l 89 525 q 147 777 89 672 q 309 937 204 882 q 551 992 414 992 m 739 428 l 739 549 q 688 710 739 656 q 550 764 636 764 q 411 710 463 764 q 360 549 360 656 l 360 428 l 739 428 m 660 1042 q 592 1056 622 1042 q 526 1096 563 1071 q 487 1121 500 1114 q 460 1128 474 1128 q 415 1108 432 1128 q 396 1054 399 1089 l 267 1054 q 317 1215 269 1156 q 443 1275 364 1275 q 510 1261 481 1275 q 576 1222 539 1247 q 616 1197 603 1204 q 643 1190 629 1190 q 688 1209 671 1190 q 707 1260 704 1228 l 836 1260 q 786 1101 833 1161 q 660 1042 739 1042 z "},"Æ":{"ha":1517,"x_min":81,"x_max":1468,"o":"m 1468 213 l 1468 0 l 688 0 l 688 226 l 357 226 l 357 0 l 81 0 l 81 529 q 198 858 81 743 q 535 972 315 972 l 1449 972 l 1449 760 l 958 760 l 958 594 l 1392 594 l 1392 392 l 958 392 l 958 213 l 1468 213 m 688 438 l 688 744 l 560 744 q 406 691 454 744 q 357 522 357 638 l 357 438 l 688 438 z "},"Ǽ":{"ha":1517,"x_min":81,"x_max":1468,"o":"m 1468 213 l 1468 0 l 688 0 l 688 226 l 357 226 l 357 0 l 81 0 l 81 529 q 198 858 81 743 q 535 972 315 972 l 1449 972 l 1449 760 l 958 760 l 958 594 l 1392 594 l 1392 392 l 958 392 l 958 213 l 1468 213 m 688 438 l 688 744 l 560 744 q 406 691 454 744 q 357 522 357 638 l 357 438 l 688 438 m 804 1263 l 1068 1263 l 807 1051 l 618 1051 l 804 1263 z "},"B":{"ha":1068,"x_min":97,"x_max":1022,"o":"m 844 507 q 975 416 928 478 q 1022 267 1022 354 q 919 69 1022 139 q 622 0 817 0 l 97 0 l 97 972 l 594 972 q 878 903 781 972 q 975 718 975 835 q 941 594 975 649 q 844 507 907 539 m 369 774 l 369 586 l 558 586 q 697 681 697 586 q 558 774 697 774 l 369 774 m 600 199 q 744 297 744 199 q 600 396 744 396 l 369 396 l 369 199 l 600 199 z "},"C":{"ha":1025,"x_min":47,"x_max":1000,"o":"m 582 -19 q 308 45 429 -19 q 117 225 186 110 q 47 486 47 340 q 117 747 47 632 q 308 927 186 863 q 582 992 429 992 q 822 944 715 992 q 1000 808 929 897 l 825 650 q 596 764 731 764 q 455 729 517 764 q 359 631 393 694 q 325 486 325 568 q 359 341 325 404 q 455 243 393 278 q 596 208 517 208 q 825 322 731 208 l 1000 164 q 822 28 929 75 q 582 -19 715 -19 z "},"Ć":{"ha":1025,"x_min":47,"x_max":1000,"o":"m 582 -19 q 308 45 429 -19 q 117 225 186 110 q 47 486 47 340 q 117 747 47 632 q 308 927 186 863 q 582 992 429 992 q 822 944 715 992 q 1000 808 929 897 l 825 650 q 596 764 731 764 q 455 729 517 764 q 359 631 393 694 q 325 486 325 568 q 359 341 325 404 q 455 243 393 278 q 596 208 517 208 q 825 322 731 208 l 1000 164 q 822 28 929 75 q 582 -19 715 -19 m 628 1264 l 892 1264 l 631 1053 l 442 1053 l 628 1264 z "},"Č":{"ha":1025,"x_min":47,"x_max":1000,"o":"m 582 -19 q 308 45 429 -19 q 117 225 186 110 q 47 486 47 340 q 117 747 47 632 q 308 927 186 863 q 582 992 429 992 q 822 944 715 992 q 1000 808 929 897 l 825 650 q 596 764 731 764 q 455 729 517 764 q 359 631 393 694 q 325 486 325 568 q 359 341 325 404 q 455 243 393 278 q 596 208 517 208 q 825 322 731 208 l 1000 164 q 822 28 929 75 q 582 -19 715 -19 m 872 1264 l 692 1053 l 464 1053 l 283 1264 l 458 1264 l 578 1158 l 697 1264 l 872 1264 z "},"Ç":{"ha":1025,"x_min":47,"x_max":1000,"o":"m 582 -19 q 308 45 429 -19 q 117 225 186 110 q 47 486 47 340 q 117 747 47 632 q 308 927 186 863 q 582 992 429 992 q 822 944 715 992 q 1000 808 929 897 l 825 650 q 596 764 731 764 q 455 729 517 764 q 359 631 393 694 q 325 486 325 568 q 359 341 325 404 q 455 243 393 278 q 596 208 517 208 q 825 322 731 208 l 1000 164 q 822 28 929 75 q 582 -19 715 -19 m 497 -328 q 426 -319 463 -328 q 365 -299 389 -311 l 401 -194 q 488 -214 443 -214 q 557 -175 557 -214 q 494 -140 557 -140 l 443 -140 l 479 13 l 617 13 l 597 -71 q 688 -109 658 -78 q 717 -183 717 -140 q 657 -289 717 -250 q 497 -328 597 -328 z "},"Ḉ":{"ha":1025,"x_min":47,"x_max":1000,"o":"m 582 -19 q 308 45 429 -19 q 117 225 186 110 q 47 486 47 340 q 117 747 47 632 q 308 927 186 863 q 582 992 429 992 q 822 944 715 992 q 1000 808 929 897 l 825 650 q 596 764 731 764 q 455 729 517 764 q 359 631 393 694 q 325 486 325 568 q 359 341 325 404 q 455 243 393 278 q 596 208 517 208 q 825 322 731 208 l 1000 164 q 822 28 929 75 q 582 -19 715 -19 m 497 -328 q 426 -319 463 -328 q 365 -299 389 -311 l 401 -194 q 488 -214 443 -214 q 557 -175 557 -214 q 494 -140 557 -140 l 443 -140 l 479 13 l 617 13 l 597 -71 q 688 -109 658 -78 q 717 -183 717 -140 q 657 -289 717 -250 q 497 -328 597 -328 m 628 1264 l 892 1264 l 631 1053 l 442 1053 l 628 1264 z "},"Ĉ":{"ha":1025,"x_min":47,"x_max":1000,"o":"m 582 -19 q 308 45 429 -19 q 117 225 186 110 q 47 486 47 340 q 117 747 47 632 q 308 927 186 863 q 582 992 429 992 q 822 944 715 992 q 1000 808 929 897 l 825 650 q 596 764 731 764 q 455 729 517 764 q 359 631 393 694 q 325 486 325 568 q 359 341 325 404 q 455 243 393 278 q 596 208 517 208 q 825 322 731 208 l 1000 164 q 822 28 929 75 q 582 -19 715 -19 m 697 1053 l 578 1158 l 458 1053 l 283 1053 l 464 1264 l 692 1264 l 872 1053 l 697 1053 z "},"Ċ":{"ha":1025,"x_min":47,"x_max":1000,"o":"m 582 -19 q 308 45 429 -19 q 117 225 186 110 q 47 486 47 340 q 117 747 47 632 q 308 927 186 863 q 582 992 429 992 q 822 944 715 992 q 1000 808 929 897 l 825 650 q 596 764 731 764 q 455 729 517 764 q 359 631 393 694 q 325 486 325 568 q 359 341 325 404 q 455 243 393 278 q 596 208 517 208 q 825 322 731 208 l 1000 164 q 822 28 929 75 q 582 -19 715 -19 m 578 1050 q 478 1089 517 1050 q 440 1188 440 1128 q 479 1285 440 1247 q 578 1324 518 1324 q 676 1285 638 1324 q 715 1188 715 1247 q 676 1089 715 1128 q 578 1050 638 1050 z "},"D":{"ha":1147,"x_min":97,"x_max":1100,"o":"m 97 972 l 557 972 q 840 913 717 972 q 1032 743 964 853 q 1100 486 1100 633 q 1032 229 1100 339 q 840 60 964 119 q 557 0 717 0 l 97 0 l 97 972 m 546 219 q 747 290 671 219 q 822 486 822 361 q 747 682 822 611 q 546 753 671 753 l 372 753 l 372 219 l 546 219 z "},"Ǆ":{"ha":2007,"x_min":97,"x_max":1993,"o":"m 97 972 l 557 972 q 840 913 717 972 q 1032 743 964 853 q 1100 486 1100 633 q 1032 229 1100 339 q 840 60 964 119 q 557 0 717 0 l 97 0 l 97 972 m 546 219 q 747 290 671 219 q 822 486 822 361 q 747 682 822 611 q 546 753 671 753 l 372 753 l 372 219 l 546 219 m 1993 213 l 1993 0 l 1122 0 l 1122 156 l 1326 399 l 1196 399 l 1196 593 l 1490 593 l 1629 760 l 1135 760 l 1135 974 l 1972 974 l 1972 818 l 1779 588 l 1900 588 l 1900 394 l 1617 394 l 1464 213 l 1993 213 m 1851 1263 l 1671 1051 l 1443 1051 l 1263 1263 l 1438 1263 l 1557 1157 l 1676 1263 l 1851 1263 z "},"Ð":{"ha":1171,"x_min":-4,"x_max":1124,"o":"m 121 972 l 581 972 q 864 913 740 972 q 1056 743 988 853 q 1124 486 1124 633 q 1056 229 1124 339 q 864 60 988 119 q 581 0 740 0 l 121 0 l 121 972 m 569 219 q 770 290 694 219 q 846 486 846 361 q 770 682 846 611 q 569 753 694 753 l 396 753 l 396 219 l 569 219 m -4 578 l 621 578 l 621 408 l -4 408 l -4 578 z "},"Ď":{"ha":1147,"x_min":97,"x_max":1100,"o":"m 97 972 l 557 972 q 840 913 717 972 q 1032 743 964 853 q 1100 486 1100 633 q 1032 229 1100 339 q 840 60 964 119 q 557 0 717 0 l 97 0 l 97 972 m 546 219 q 747 290 671 219 q 822 486 822 361 q 747 682 822 611 q 546 753 671 753 l 372 753 l 372 219 l 546 219 m 801 1263 l 621 1051 l 393 1051 l 213 1263 l 388 1263 l 507 1157 l 626 1263 l 801 1263 z "},"Đ":{"ha":1171,"x_min":-4,"x_max":1124,"o":"m 121 972 l 581 972 q 864 913 740 972 q 1056 743 988 853 q 1124 486 1124 633 q 1056 229 1124 339 q 864 60 988 119 q 581 0 740 0 l 121 0 l 121 972 m 569 219 q 770 290 694 219 q 846 486 846 361 q 770 682 846 611 q 569 753 694 753 l 396 753 l 396 219 l 569 219 m -4 578 l 621 578 l 621 408 l -4 408 l -4 578 z "},"Ḍ":{"ha":1147,"x_min":97,"x_max":1100,"o":"m 97 972 l 557 972 q 840 913 717 972 q 1032 743 964 853 q 1100 486 1100 633 q 1032 229 1100 339 q 840 60 964 119 q 557 0 717 0 l 97 0 l 97 972 m 546 219 q 747 290 671 219 q 822 486 822 361 q 747 682 822 611 q 546 753 671 753 l 372 753 l 372 219 l 546 219 m 510 -303 q 431 -274 463 -303 q 400 -196 400 -244 q 431 -117 400 -147 q 510 -86 463 -86 q 588 -117 557 -86 q 619 -196 619 -147 q 588 -274 619 -244 q 510 -303 557 -303 z "},"Ḏ":{"ha":1147,"x_min":97,"x_max":1100,"o":"m 97 972 l 557 972 q 840 913 717 972 q 1032 743 964 853 q 1100 486 1100 633 q 1032 229 1100 339 q 840 60 964 119 q 557 0 717 0 l 97 0 l 97 972 m 546 219 q 747 290 671 219 q 822 486 822 361 q 747 682 822 611 q 546 753 671 753 l 372 753 l 372 219 l 546 219 m 236 -118 l 783 -118 l 783 -260 l 236 -260 l 236 -118 z "},"ǅ":{"ha":1933,"x_min":97,"x_max":1894,"o":"m 97 972 l 557 972 q 840 913 717 972 q 1032 743 964 853 q 1100 486 1100 633 q 1032 229 1100 339 q 840 60 964 119 q 557 0 717 0 l 97 0 l 97 972 m 546 219 q 747 290 671 219 q 822 486 822 361 q 747 682 822 611 q 546 753 671 753 l 372 753 l 372 219 l 546 219 m 1894 197 l 1894 0 l 1200 0 l 1200 156 l 1324 299 l 1243 299 l 1243 463 l 1467 463 l 1549 557 l 1210 557 l 1210 753 l 1881 753 l 1881 599 l 1761 461 l 1849 461 l 1849 297 l 1618 297 l 1532 197 l 1894 197 m 1835 1054 l 1654 843 l 1426 843 l 1246 1054 l 1421 1054 l 1540 949 l 1660 1054 l 1835 1054 z "},"E":{"ha":946,"x_min":46,"x_max":933,"o":"m 933 74 q 751 6 858 31 q 529 -19 644 -19 q 265 18 374 -19 q 101 122 156 56 q 46 276 46 189 q 88 411 46 353 q 203 501 129 469 q 116 583 146 531 q 86 697 86 635 q 137 844 86 778 q 292 951 188 911 q 549 992 396 992 q 738 974 644 992 q 901 925 831 956 l 826 719 q 560 776 697 776 q 413 751 461 776 q 364 679 364 725 q 485 596 364 596 l 760 596 l 760 386 l 467 386 q 360 363 396 386 q 324 296 324 340 q 376 222 324 249 q 540 196 429 196 q 703 217 619 196 q 850 276 788 239 l 933 74 z "},"É":{"ha":946,"x_min":46,"x_max":933,"o":"m 933 74 q 751 6 858 31 q 529 -19 644 -19 q 265 18 374 -19 q 101 122 156 56 q 46 276 46 189 q 88 411 46 353 q 203 501 129 469 q 116 583 146 531 q 86 697 86 635 q 137 844 86 778 q 292 951 188 911 q 549 992 396 992 q 738 974 644 992 q 901 925 831 956 l 826 719 q 560 776 697 776 q 413 751 461 776 q 364 679 364 725 q 485 596 364 596 l 760 596 l 760 386 l 467 386 q 360 363 396 386 q 324 296 324 340 q 376 222 324 249 q 540 196 429 196 q 703 217 619 196 q 850 276 788 239 l 933 74 m 561 1263 l 825 1263 l 564 1051 l 375 1051 l 561 1263 z "},"Ĕ":{"ha":946,"x_min":46,"x_max":933,"o":"m 933 74 q 751 6 858 31 q 529 -19 644 -19 q 265 18 374 -19 q 101 122 156 56 q 46 276 46 189 q 88 411 46 353 q 203 501 129 469 q 116 583 146 531 q 86 697 86 635 q 137 844 86 778 q 292 951 188 911 q 549 992 396 992 q 738 974 644 992 q 901 925 831 956 l 826 719 q 560 776 697 776 q 413 751 461 776 q 364 679 364 725 q 485 596 364 596 l 760 596 l 760 386 l 467 386 q 360 363 396 386 q 324 296 324 340 q 376 222 324 249 q 540 196 429 196 q 703 217 619 196 q 850 276 788 239 l 933 74 m 511 1039 q 318 1099 393 1039 q 239 1263 243 1160 l 400 1263 q 433 1196 401 1221 q 511 1171 465 1171 q 589 1196 557 1171 q 622 1263 621 1221 l 783 1263 q 704 1099 779 1160 q 511 1039 629 1039 z "},"Ě":{"ha":946,"x_min":46,"x_max":933,"o":"m 933 74 q 751 6 858 31 q 529 -19 644 -19 q 265 18 374 -19 q 101 122 156 56 q 46 276 46 189 q 88 411 46 353 q 203 501 129 469 q 116 583 146 531 q 86 697 86 635 q 137 844 86 778 q 292 951 188 911 q 549 992 396 992 q 738 974 644 992 q 901 925 831 956 l 826 719 q 560 776 697 776 q 413 751 461 776 q 364 679 364 725 q 485 596 364 596 l 760 596 l 760 386 l 467 386 q 360 363 396 386 q 324 296 324 340 q 376 222 324 249 q 540 196 429 196 q 703 217 619 196 q 850 276 788 239 l 933 74 m 806 1263 l 625 1051 l 397 1051 l 217 1263 l 392 1263 l 511 1157 l 631 1263 l 806 1263 z "},"Ḝ":{"ha":946,"x_min":46,"x_max":933,"o":"m 933 74 q 751 6 858 31 q 529 -19 644 -19 q 265 18 374 -19 q 101 122 156 56 q 46 276 46 189 q 88 411 46 353 q 203 501 129 469 q 116 583 146 531 q 86 697 86 635 q 137 844 86 778 q 292 951 188 911 q 549 992 396 992 q 738 974 644 992 q 901 925 831 956 l 826 719 q 560 776 697 776 q 413 751 461 776 q 364 679 364 725 q 485 596 364 596 l 760 596 l 760 386 l 467 386 q 360 363 396 386 q 324 296 324 340 q 376 222 324 249 q 540 196 429 196 q 703 217 619 196 q 850 276 788 239 l 933 74 m 460 -328 q 388 -319 425 -328 q 328 -299 351 -311 l 364 -194 q 450 -214 406 -214 q 519 -175 519 -214 q 457 -140 519 -140 l 406 -140 l 442 13 l 579 13 l 560 -71 q 650 -109 621 -78 q 679 -183 679 -140 q 619 -289 679 -250 q 460 -328 560 -328 m 511 1039 q 318 1099 393 1039 q 239 1263 243 1160 l 400 1263 q 433 1196 401 1221 q 511 1171 465 1171 q 589 1196 557 1171 q 622 1263 621 1221 l 783 1263 q 704 1099 779 1160 q 511 1039 629 1039 z "},"Ê":{"ha":946,"x_min":46,"x_max":933,"o":"m 933 74 q 751 6 858 31 q 529 -19 644 -19 q 265 18 374 -19 q 101 122 156 56 q 46 276 46 189 q 88 411 46 353 q 203 501 129 469 q 116 583 146 531 q 86 697 86 635 q 137 844 86 778 q 292 951 188 911 q 549 992 396 992 q 738 974 644 992 q 901 925 831 956 l 826 719 q 560 776 697 776 q 413 751 461 776 q 364 679 364 725 q 485 596 364 596 l 760 596 l 760 386 l 467 386 q 360 363 396 386 q 324 296 324 340 q 376 222 324 249 q 540 196 429 196 q 703 217 619 196 q 850 276 788 239 l 933 74 m 631 1051 l 511 1157 l 392 1051 l 217 1051 l 397 1263 l 625 1263 l 806 1051 l 631 1051 z "},"Ế":{"ha":946,"x_min":46,"x_max":1100,"o":"m 933 74 q 751 6 858 31 q 529 -19 644 -19 q 265 18 374 -19 q 101 122 156 56 q 46 276 46 189 q 88 411 46 353 q 203 501 129 469 q 116 583 146 531 q 86 697 86 635 q 137 844 86 778 q 292 951 188 911 q 549 992 396 992 q 738 974 644 992 q 901 925 831 956 l 826 719 q 560 776 697 776 q 413 751 461 776 q 364 679 364 725 q 485 596 364 596 l 760 596 l 760 386 l 467 386 q 360 363 396 386 q 324 296 324 340 q 376 222 324 249 q 540 196 429 196 q 703 217 619 196 q 850 276 788 239 l 933 74 m 629 1051 l 511 1133 l 393 1051 l 217 1051 l 399 1221 l 624 1221 l 806 1051 l 629 1051 m 842 1364 l 1100 1364 l 876 1190 l 694 1190 l 842 1364 z "},"Ệ":{"ha":946,"x_min":46,"x_max":933,"o":"m 933 74 q 751 6 858 31 q 529 -19 644 -19 q 265 18 374 -19 q 101 122 156 56 q 46 276 46 189 q 88 411 46 353 q 203 501 129 469 q 116 583 146 531 q 86 697 86 635 q 137 844 86 778 q 292 951 188 911 q 549 992 396 992 q 738 974 644 992 q 901 925 831 956 l 826 719 q 560 776 697 776 q 413 751 461 776 q 364 679 364 725 q 485 596 364 596 l 760 596 l 760 386 l 467 386 q 360 363 396 386 q 324 296 324 340 q 376 222 324 249 q 540 196 429 196 q 703 217 619 196 q 850 276 788 239 l 933 74 m 511 -303 q 433 -274 464 -303 q 401 -196 401 -244 q 433 -117 401 -147 q 511 -86 464 -86 q 590 -117 558 -86 q 621 -196 621 -147 q 590 -274 621 -244 q 511 -303 558 -303 m 631 1051 l 511 1157 l 392 1051 l 217 1051 l 397 1263 l 625 1263 l 806 1051 l 631 1051 z "},"Ề":{"ha":946,"x_min":46,"x_max":958,"o":"m 933 74 q 751 6 858 31 q 529 -19 644 -19 q 265 18 374 -19 q 101 122 156 56 q 46 276 46 189 q 88 411 46 353 q 203 501 129 469 q 116 583 146 531 q 86 697 86 635 q 137 844 86 778 q 292 951 188 911 q 549 992 396 992 q 738 974 644 992 q 901 925 831 956 l 826 719 q 560 776 697 776 q 413 751 461 776 q 364 679 364 725 q 485 596 364 596 l 760 596 l 760 386 l 467 386 q 360 363 396 386 q 324 296 324 340 q 376 222 324 249 q 540 196 429 196 q 703 217 619 196 q 850 276 788 239 l 933 74 m 629 1051 l 511 1133 l 393 1051 l 217 1051 l 399 1221 l 624 1221 l 806 1051 l 629 1051 m 553 1364 l 811 1364 l 958 1190 l 778 1190 l 553 1364 z "},"Ể":{"ha":946,"x_min":46,"x_max":933,"o":"m 933 74 q 751 6 858 31 q 529 -19 644 -19 q 265 18 374 -19 q 101 122 156 56 q 46 276 46 189 q 88 411 46 353 q 203 501 129 469 q 116 583 146 531 q 86 697 86 635 q 137 844 86 778 q 292 951 188 911 q 549 992 396 992 q 738 974 644 992 q 901 925 831 956 l 826 719 q 560 776 697 776 q 413 751 461 776 q 364 679 364 725 q 485 596 364 596 l 760 596 l 760 386 l 467 386 q 360 363 396 386 q 324 296 324 340 q 376 222 324 249 q 540 196 429 196 q 703 217 619 196 q 850 276 788 239 l 933 74 m 629 1051 l 511 1133 l 393 1051 l 217 1051 l 399 1221 l 624 1221 l 806 1051 l 629 1051 m 721 1219 q 771 1275 771 1246 q 758 1302 771 1292 q 726 1313 746 1313 q 664 1296 697 1313 l 622 1371 q 749 1404 675 1404 q 849 1373 811 1404 q 886 1289 886 1342 q 857 1213 886 1246 q 783 1163 828 1181 l 721 1219 z "},"Ễ":{"ha":946,"x_min":46,"x_max":933,"o":"m 933 74 q 751 6 858 31 q 529 -19 644 -19 q 265 18 374 -19 q 101 122 156 56 q 46 276 46 189 q 88 411 46 353 q 203 501 129 469 q 116 583 146 531 q 86 697 86 635 q 137 844 86 778 q 292 951 188 911 q 549 992 396 992 q 738 974 644 992 q 901 925 831 956 l 826 719 q 560 776 697 776 q 413 751 461 776 q 364 679 364 725 q 485 596 364 596 l 760 596 l 760 386 l 467 386 q 360 363 396 386 q 324 296 324 340 q 376 222 324 249 q 540 196 429 196 q 703 217 619 196 q 850 276 788 239 l 933 74 m 629 1051 l 511 1133 l 393 1051 l 217 1051 l 399 1221 l 624 1221 l 806 1051 l 629 1051 m 615 1269 q 545 1282 575 1269 q 481 1315 515 1294 q 450 1333 465 1325 q 424 1340 435 1340 q 382 1324 397 1340 q 364 1281 367 1308 l 232 1281 q 280 1420 233 1371 q 408 1469 326 1469 q 476 1457 446 1469 q 540 1424 506 1444 q 576 1405 563 1411 q 601 1399 589 1399 q 644 1415 628 1399 q 663 1458 660 1432 l 790 1458 q 743 1319 789 1369 q 615 1269 697 1269 z "},"Ȅ":{"ha":946,"x_min":46,"x_max":933,"o":"m 933 74 q 751 6 858 31 q 529 -19 644 -19 q 265 18 374 -19 q 101 122 156 56 q 46 276 46 189 q 88 411 46 353 q 203 501 129 469 q 116 583 146 531 q 86 697 86 635 q 137 844 86 778 q 292 951 188 911 q 549 992 396 992 q 738 974 644 992 q 901 925 831 956 l 826 719 q 560 776 697 776 q 413 751 461 776 q 364 679 364 725 q 485 596 364 596 l 760 596 l 760 386 l 467 386 q 360 363 396 386 q 324 296 324 340 q 376 222 324 249 q 540 196 429 196 q 703 217 619 196 q 850 276 788 239 l 933 74 m 129 1263 l 365 1263 l 451 1051 l 268 1051 l 129 1263 m 431 1263 l 667 1263 l 754 1051 l 571 1051 l 431 1263 z "},"Ë":{"ha":946,"x_min":46,"x_max":933,"o":"m 933 74 q 751 6 858 31 q 529 -19 644 -19 q 265 18 374 -19 q 101 122 156 56 q 46 276 46 189 q 88 411 46 353 q 203 501 129 469 q 116 583 146 531 q 86 697 86 635 q 137 844 86 778 q 292 951 188 911 q 549 992 396 992 q 738 974 644 992 q 901 925 831 956 l 826 719 q 560 776 697 776 q 413 751 461 776 q 364 679 364 725 q 485 596 364 596 l 760 596 l 760 386 l 467 386 q 360 363 396 386 q 324 296 324 340 q 376 222 324 249 q 540 196 429 196 q 703 217 619 196 q 850 276 788 239 l 933 74 m 364 1050 q 285 1080 317 1050 q 254 1158 254 1110 q 285 1238 254 1207 q 364 1268 317 1268 q 442 1238 411 1268 q 474 1158 474 1207 q 442 1080 474 1110 q 364 1050 411 1050 m 658 1050 q 580 1080 611 1050 q 549 1158 549 1110 q 580 1238 549 1207 q 658 1268 611 1268 q 737 1238 706 1268 q 768 1158 768 1207 q 737 1080 768 1110 q 658 1050 706 1050 z "},"Ė":{"ha":946,"x_min":46,"x_max":933,"o":"m 933 74 q 751 6 858 31 q 529 -19 644 -19 q 265 18 374 -19 q 101 122 156 56 q 46 276 46 189 q 88 411 46 353 q 203 501 129 469 q 116 583 146 531 q 86 697 86 635 q 137 844 86 778 q 292 951 188 911 q 549 992 396 992 q 738 974 644 992 q 901 925 831 956 l 826 719 q 560 776 697 776 q 413 751 461 776 q 364 679 364 725 q 485 596 364 596 l 760 596 l 760 386 l 467 386 q 360 363 396 386 q 324 296 324 340 q 376 222 324 249 q 540 196 429 196 q 703 217 619 196 q 850 276 788 239 l 933 74 m 511 1049 q 412 1088 450 1049 q 374 1186 374 1126 q 413 1284 374 1246 q 511 1322 451 1322 q 610 1284 571 1322 q 649 1186 649 1246 q 610 1088 649 1126 q 511 1049 571 1049 z "},"Ẹ":{"ha":946,"x_min":46,"x_max":933,"o":"m 933 74 q 751 6 858 31 q 529 -19 644 -19 q 265 18 374 -19 q 101 122 156 56 q 46 276 46 189 q 88 411 46 353 q 203 501 129 469 q 116 583 146 531 q 86 697 86 635 q 137 844 86 778 q 292 951 188 911 q 549 992 396 992 q 738 974 644 992 q 901 925 831 956 l 826 719 q 560 776 697 776 q 413 751 461 776 q 364 679 364 725 q 485 596 364 596 l 760 596 l 760 386 l 467 386 q 360 363 396 386 q 324 296 324 340 q 376 222 324 249 q 540 196 429 196 q 703 217 619 196 q 850 276 788 239 l 933 74 m 511 -303 q 433 -274 464 -303 q 401 -196 401 -244 q 433 -117 401 -147 q 511 -86 464 -86 q 590 -117 558 -86 q 621 -196 621 -147 q 590 -274 621 -244 q 511 -303 558 -303 z "},"È":{"ha":946,"x_min":46,"x_max":933,"o":"m 933 74 q 751 6 858 31 q 529 -19 644 -19 q 265 18 374 -19 q 101 122 156 56 q 46 276 46 189 q 88 411 46 353 q 203 501 129 469 q 116 583 146 531 q 86 697 86 635 q 137 844 86 778 q 292 951 188 911 q 549 992 396 992 q 738 974 644 992 q 901 925 831 956 l 826 719 q 560 776 697 776 q 413 751 461 776 q 364 679 364 725 q 485 596 364 596 l 760 596 l 760 386 l 467 386 q 360 363 396 386 q 324 296 324 340 q 376 222 324 249 q 540 196 429 196 q 703 217 619 196 q 850 276 788 239 l 933 74 m 197 1263 l 461 1263 l 647 1051 l 458 1051 l 197 1263 z "},"Ẻ":{"ha":946,"x_min":46,"x_max":933,"o":"m 933 74 q 751 6 858 31 q 529 -19 644 -19 q 265 18 374 -19 q 101 122 156 56 q 46 276 46 189 q 88 411 46 353 q 203 501 129 469 q 116 583 146 531 q 86 697 86 635 q 137 844 86 778 q 292 951 188 911 q 549 992 396 992 q 738 974 644 992 q 901 925 831 956 l 826 719 q 560 776 697 776 q 413 751 461 776 q 364 679 364 725 q 485 596 364 596 l 760 596 l 760 386 l 467 386 q 360 363 396 386 q 324 296 324 340 q 376 222 324 249 q 540 196 429 196 q 703 217 619 196 q 850 276 788 239 l 933 74 m 481 1118 q 533 1156 518 1136 q 549 1199 549 1175 q 531 1240 549 1225 q 486 1254 514 1254 q 406 1226 446 1254 l 351 1329 q 426 1367 383 1354 q 515 1381 469 1381 q 647 1336 596 1381 q 697 1221 697 1292 q 561 1038 697 1099 l 481 1118 z "},"Ȇ":{"ha":946,"x_min":46,"x_max":933,"o":"m 933 74 q 751 6 858 31 q 529 -19 644 -19 q 265 18 374 -19 q 101 122 156 56 q 46 276 46 189 q 88 411 46 353 q 203 501 129 469 q 116 583 146 531 q 86 697 86 635 q 137 844 86 778 q 292 951 188 911 q 549 992 396 992 q 738 974 644 992 q 901 925 831 956 l 826 719 q 560 776 697 776 q 413 751 461 776 q 364 679 364 725 q 485 596 364 596 l 760 596 l 760 386 l 467 386 q 360 363 396 386 q 324 296 324 340 q 376 222 324 249 q 540 196 429 196 q 703 217 619 196 q 850 276 788 239 l 933 74 m 239 1051 q 318 1215 243 1154 q 511 1275 393 1275 q 704 1215 629 1275 q 783 1051 779 1154 l 622 1051 q 589 1118 621 1093 q 511 1143 557 1143 q 433 1118 465 1143 q 400 1051 401 1093 l 239 1051 z "},"Ē":{"ha":946,"x_min":46,"x_max":933,"o":"m 933 74 q 751 6 858 31 q 529 -19 644 -19 q 265 18 374 -19 q 101 122 156 56 q 46 276 46 189 q 88 411 46 353 q 203 501 129 469 q 116 583 146 531 q 86 697 86 635 q 137 844 86 778 q 292 951 188 911 q 549 992 396 992 q 738 974 644 992 q 901 925 831 956 l 826 719 q 560 776 697 776 q 413 751 461 776 q 364 679 364 725 q 485 596 364 596 l 760 596 l 760 386 l 467 386 q 360 363 396 386 q 324 296 324 340 q 376 222 324 249 q 540 196 429 196 q 703 217 619 196 q 850 276 788 239 l 933 74 m 238 1228 l 785 1228 l 785 1086 l 238 1086 l 238 1228 z "},"Ḗ":{"ha":946,"x_min":46,"x_max":933,"o":"m 933 74 q 751 6 858 31 q 529 -19 644 -19 q 265 18 374 -19 q 101 122 156 56 q 46 276 46 189 q 88 411 46 353 q 203 501 129 469 q 116 583 146 531 q 86 697 86 635 q 137 844 86 778 q 292 951 188 911 q 549 992 396 992 q 738 974 644 992 q 901 925 831 956 l 826 719 q 560 776 697 776 q 413 751 461 776 q 364 679 364 725 q 485 596 364 596 l 760 596 l 760 386 l 467 386 q 360 363 396 386 q 324 296 324 340 q 376 222 324 249 q 540 196 429 196 q 703 217 619 196 q 850 276 788 239 l 933 74 m 238 1204 l 785 1204 l 785 1068 l 238 1068 l 238 1204 m 526 1464 l 785 1464 l 561 1290 l 379 1290 l 526 1464 z "},"Ḕ":{"ha":946,"x_min":46,"x_max":933,"o":"m 933 74 q 751 6 858 31 q 529 -19 644 -19 q 265 18 374 -19 q 101 122 156 56 q 46 276 46 189 q 88 411 46 353 q 203 501 129 469 q 116 583 146 531 q 86 697 86 635 q 137 844 86 778 q 292 951 188 911 q 549 992 396 992 q 738 974 644 992 q 901 925 831 956 l 826 719 q 560 776 697 776 q 413 751 461 776 q 364 679 364 725 q 485 596 364 596 l 760 596 l 760 386 l 467 386 q 360 363 396 386 q 324 296 324 340 q 376 222 324 249 q 540 196 429 196 q 703 217 619 196 q 850 276 788 239 l 933 74 m 238 1204 l 785 1204 l 785 1068 l 238 1068 l 238 1204 m 238 1464 l 496 1464 l 643 1290 l 463 1290 l 238 1464 z "},"Ę":{"ha":946,"x_min":46,"x_max":933,"o":"m 792 -203 q 875 -182 836 -203 l 910 -296 q 842 -319 883 -310 q 761 -328 801 -328 q 610 -283 665 -328 q 556 -165 556 -239 q 625 -14 556 -79 q 529 -19 561 -19 q 265 18 374 -19 q 101 122 156 56 q 46 276 46 189 q 88 411 46 353 q 203 501 129 469 q 116 583 146 531 q 86 697 86 635 q 137 844 86 778 q 292 951 188 911 q 549 992 396 992 q 738 974 644 992 q 901 925 831 956 l 826 719 q 560 776 697 776 q 413 751 461 776 q 364 679 364 725 q 485 596 364 596 l 760 596 l 760 386 l 467 386 q 360 363 396 386 q 324 296 324 340 q 376 222 324 249 q 540 196 429 196 q 703 217 619 196 q 850 276 788 239 l 933 74 q 768 -38 821 17 q 715 -137 715 -93 q 735 -185 715 -168 q 792 -203 754 -203 z "},"Ẽ":{"ha":946,"x_min":46,"x_max":933,"o":"m 933 74 q 751 6 858 31 q 529 -19 644 -19 q 265 18 374 -19 q 101 122 156 56 q 46 276 46 189 q 88 411 46 353 q 203 501 129 469 q 116 583 146 531 q 86 697 86 635 q 137 844 86 778 q 292 951 188 911 q 549 992 396 992 q 738 974 644 992 q 901 925 831 956 l 826 719 q 560 776 697 776 q 413 751 461 776 q 364 679 364 725 q 485 596 364 596 l 760 596 l 760 386 l 467 386 q 360 363 396 386 q 324 296 324 340 q 376 222 324 249 q 540 196 429 196 q 703 217 619 196 q 850 276 788 239 l 933 74 m 619 1042 q 552 1056 582 1042 q 486 1096 522 1071 q 447 1121 460 1114 q 419 1128 433 1128 q 375 1108 392 1128 q 356 1054 358 1089 l 226 1054 q 276 1215 229 1156 q 403 1275 324 1275 q 469 1261 440 1275 q 536 1222 499 1247 q 576 1197 563 1204 q 603 1190 589 1190 q 647 1209 631 1190 q 667 1260 664 1228 l 796 1260 q 746 1101 793 1161 q 619 1042 699 1042 z "},"Ʒ":{"ha":897,"x_min":29,"x_max":856,"o":"m 589 583 q 787 486 718 560 q 856 306 856 413 q 808 144 856 218 q 661 25 760 69 q 417 -19 563 -19 q 204 6 308 -19 q 29 76 100 31 l 119 282 q 257 223 181 244 q 407 201 333 201 q 532 228 486 201 q 578 304 578 256 q 538 374 578 350 q 414 399 497 399 l 297 399 l 297 572 l 482 760 l 72 760 l 72 972 l 803 972 l 803 800 l 589 583 z "},"Ǯ":{"ha":897,"x_min":29,"x_max":856,"o":"m 589 583 q 787 486 718 560 q 856 306 856 413 q 808 144 856 218 q 661 25 760 69 q 417 -19 563 -19 q 204 6 308 -19 q 29 76 100 31 l 119 282 q 257 223 181 244 q 407 201 333 201 q 532 228 486 201 q 578 304 578 256 q 538 374 578 350 q 414 399 497 399 l 297 399 l 297 572 l 482 760 l 72 760 l 72 972 l 803 972 l 803 800 l 589 583 m 729 1263 l 549 1051 l 321 1051 l 140 1263 l 315 1263 l 435 1157 l 554 1263 l 729 1263 z "},"F":{"ha":861,"x_min":89,"x_max":846,"o":"m 581 764 q 419 718 475 764 q 364 579 364 672 l 364 546 l 738 546 l 738 333 l 364 333 l 364 0 l 89 0 l 89 575 q 213 883 89 774 q 560 992 336 992 q 719 975 644 992 q 846 928 793 958 l 765 717 q 581 764 685 764 z "},"G":{"ha":1069,"x_min":47,"x_max":1014,"o":"m 749 507 l 992 507 l 992 0 l 801 0 l 801 60 q 540 -19 703 -19 q 292 39 404 -19 q 113 209 179 97 q 47 476 47 321 q 117 744 47 626 q 310 926 186 861 q 589 992 433 992 q 833 946 725 992 q 1014 814 942 900 l 839 656 q 603 764 740 764 q 401 687 476 764 q 325 478 325 610 q 396 274 325 344 q 575 203 467 203 q 749 258 679 203 l 749 507 z "},"Ğ":{"ha":1069,"x_min":47,"x_max":1014,"o":"m 749 507 l 992 507 l 992 0 l 801 0 l 801 60 q 540 -19 703 -19 q 292 39 404 -19 q 113 209 179 97 q 47 476 47 321 q 117 744 47 626 q 310 926 186 861 q 589 992 433 992 q 833 946 725 992 q 1014 814 942 900 l 839 656 q 603 764 740 764 q 401 687 476 764 q 325 478 325 610 q 396 274 325 344 q 575 203 467 203 q 749 258 679 203 l 749 507 m 583 1040 q 390 1101 465 1040 q 311 1264 315 1161 l 472 1264 q 506 1197 474 1222 q 583 1172 538 1172 q 661 1197 629 1172 q 694 1264 693 1222 l 856 1264 q 776 1101 851 1161 q 583 1040 701 1040 z "},"Ǧ":{"ha":1069,"x_min":47,"x_max":1014,"o":"m 749 507 l 992 507 l 992 0 l 801 0 l 801 60 q 540 -19 703 -19 q 292 39 404 -19 q 113 209 179 97 q 47 476 47 321 q 117 744 47 626 q 310 926 186 861 q 589 992 433 992 q 833 946 725 992 q 1014 814 942 900 l 839 656 q 603 764 740 764 q 401 687 476 764 q 325 478 325 610 q 396 274 325 344 q 575 203 467 203 q 749 258 679 203 l 749 507 m 878 1264 l 697 1053 l 469 1053 l 289 1264 l 464 1264 l 583 1158 l 703 1264 l 878 1264 z "},"Ĝ":{"ha":1069,"x_min":47,"x_max":1014,"o":"m 749 507 l 992 507 l 992 0 l 801 0 l 801 60 q 540 -19 703 -19 q 292 39 404 -19 q 113 209 179 97 q 47 476 47 321 q 117 744 47 626 q 310 926 186 861 q 589 992 433 992 q 833 946 725 992 q 1014 814 942 900 l 839 656 q 603 764 740 764 q 401 687 476 764 q 325 478 325 610 q 396 274 325 344 q 575 203 467 203 q 749 258 679 203 l 749 507 m 703 1053 l 583 1158 l 464 1053 l 289 1053 l 469 1264 l 697 1264 l 878 1053 l 703 1053 z "},"Ģ":{"ha":1069,"x_min":47,"x_max":1014,"o":"m 749 507 l 992 507 l 992 0 l 801 0 l 801 60 q 540 -19 703 -19 q 292 39 404 -19 q 113 209 179 97 q 47 476 47 321 q 117 744 47 626 q 310 926 186 861 q 589 992 433 992 q 833 946 725 992 q 1014 814 942 900 l 839 656 q 603 764 740 764 q 401 687 476 764 q 325 478 325 610 q 396 274 325 344 q 575 203 467 203 q 749 258 679 203 l 749 507 m 567 -83 q 647 -109 617 -83 q 676 -176 676 -135 q 647 -276 676 -225 l 596 -369 l 476 -369 l 513 -260 q 457 -176 457 -239 q 487 -109 457 -135 q 567 -83 517 -83 z "},"Ġ":{"ha":1069,"x_min":47,"x_max":1014,"o":"m 749 507 l 992 507 l 992 0 l 801 0 l 801 60 q 540 -19 703 -19 q 292 39 404 -19 q 113 209 179 97 q 47 476 47 321 q 117 744 47 626 q 310 926 186 861 q 589 992 433 992 q 833 946 725 992 q 1014 814 942 900 l 839 656 q 603 764 740 764 q 401 687 476 764 q 325 478 325 610 q 396 274 325 344 q 575 203 467 203 q 749 258 679 203 l 749 507 m 583 1050 q 484 1089 522 1050 q 446 1188 446 1128 q 485 1285 446 1247 q 583 1324 524 1324 q 682 1285 643 1324 q 721 1188 721 1247 q 682 1089 721 1128 q 583 1050 643 1050 z "},"Ḡ":{"ha":1069,"x_min":47,"x_max":1014,"o":"m 749 507 l 992 507 l 992 0 l 801 0 l 801 60 q 540 -19 703 -19 q 292 39 404 -19 q 113 209 179 97 q 47 476 47 321 q 117 744 47 626 q 310 926 186 861 q 589 992 433 992 q 833 946 725 992 q 1014 814 942 900 l 839 656 q 603 764 740 764 q 401 687 476 764 q 325 478 325 610 q 396 274 325 344 q 575 203 467 203 q 749 258 679 203 l 749 507 m 310 1229 l 857 1229 l 857 1088 l 310 1088 l 310 1229 z "},"Ǥ":{"ha":1136,"x_min":47,"x_max":1111,"o":"m 749 507 l 992 507 l 992 0 l 801 0 l 801 60 q 540 -19 703 -19 q 292 39 404 -19 q 113 209 179 97 q 47 476 47 321 q 117 744 47 626 q 310 926 186 861 q 589 992 433 992 q 833 946 725 992 q 1014 814 942 900 l 839 656 q 603 764 740 764 q 401 687 476 764 q 325 478 325 610 q 396 274 325 344 q 575 203 467 203 q 749 258 679 203 l 749 507 m 548 446 l 1112 446 l 1112 279 l 548 279 l 548 446 z "},"H":{"ha":1119,"x_min":97,"x_max":1022,"o":"m 1022 972 l 1022 0 l 747 0 l 747 379 l 372 379 l 372 0 l 97 0 l 97 972 l 372 972 l 372 607 l 747 607 l 747 972 l 1022 972 z "},"Ħ":{"ha":1167,"x_min":-6,"x_max":1171,"o":"m 1046 972 l 1046 0 l 771 0 l 771 379 l 396 379 l 396 0 l 121 0 l 121 972 l 396 972 l 396 607 l 771 607 l 771 972 l 1046 972 m -6 875 l 1171 875 l 1171 707 l -6 707 l -6 875 z "},"Ḫ":{"ha":1119,"x_min":97,"x_max":1022,"o":"m 1022 972 l 1022 0 l 747 0 l 747 379 l 372 379 l 372 0 l 97 0 l 97 972 l 372 972 l 372 607 l 747 607 l 747 972 l 1022 972 m 560 -307 q 368 -249 443 -307 q 288 -99 293 -192 l 439 -99 q 475 -161 442 -137 q 560 -185 508 -185 q 644 -161 611 -185 q 681 -99 678 -137 l 832 -99 q 751 -249 826 -192 q 560 -307 676 -307 z "},"Ȟ":{"ha":1119,"x_min":97,"x_max":1022,"o":"m 1022 972 l 1022 0 l 747 0 l 747 379 l 372 379 l 372 0 l 97 0 l 97 972 l 372 972 l 372 607 l 747 607 l 747 972 l 1022 972 m 854 1263 l 674 1051 l 446 1051 l 265 1263 l 440 1263 l 560 1157 l 679 1263 l 854 1263 z "},"Ĥ":{"ha":1119,"x_min":97,"x_max":1022,"o":"m 1022 972 l 1022 0 l 747 0 l 747 379 l 372 379 l 372 0 l 97 0 l 97 972 l 372 972 l 372 607 l 747 607 l 747 972 l 1022 972 m 679 1051 l 560 1157 l 440 1051 l 265 1051 l 446 1263 l 674 1263 l 854 1051 l 679 1051 z "},"Ḥ":{"ha":1119,"x_min":97,"x_max":1022,"o":"m 1022 972 l 1022 0 l 747 0 l 747 379 l 372 379 l 372 0 l 97 0 l 97 972 l 372 972 l 372 607 l 747 607 l 747 972 l 1022 972 m 560 -303 q 481 -274 513 -303 q 450 -196 450 -244 q 481 -117 450 -147 q 560 -86 513 -86 q 638 -117 607 -86 q 669 -196 669 -147 q 638 -274 669 -244 q 560 -303 607 -303 z "},"I":{"ha":693,"x_min":51,"x_max":642,"o":"m 485 760 l 485 213 l 642 213 l 642 0 l 51 0 l 51 213 l 210 213 l 210 760 l 51 760 l 51 972 l 642 972 l 642 760 l 485 760 z "},"Ĳ":{"ha":1010,"x_min":65,"x_max":919,"o":"m 456 -153 q 240 -123 340 -153 q 65 -40 139 -93 l 165 160 q 304 92 231 115 q 446 69 378 69 q 595 124 546 69 q 644 293 644 178 l 644 972 l 919 972 l 919 311 q 863 60 919 164 q 701 -99 806 -44 q 456 -153 596 -153 m 89 972 l 364 972 l 364 318 l 89 318 l 89 972 z "},"Í":{"ha":693,"x_min":51,"x_max":661,"o":"m 485 760 l 485 213 l 642 213 l 642 0 l 51 0 l 51 213 l 210 213 l 210 760 l 51 760 l 51 972 l 642 972 l 642 760 l 485 760 m 397 1263 l 661 1263 l 400 1051 l 211 1051 l 397 1263 z "},"Ĭ":{"ha":693,"x_min":51,"x_max":642,"o":"m 485 760 l 485 213 l 642 213 l 642 0 l 51 0 l 51 213 l 210 213 l 210 760 l 51 760 l 51 972 l 642 972 l 642 760 l 485 760 m 347 1039 q 154 1099 229 1039 q 75 1263 79 1160 l 236 1263 q 269 1196 238 1221 q 347 1171 301 1171 q 425 1196 393 1171 q 458 1263 457 1221 l 619 1263 q 540 1099 615 1160 q 347 1039 465 1039 z "},"Î":{"ha":693,"x_min":51,"x_max":642,"o":"m 485 760 l 485 213 l 642 213 l 642 0 l 51 0 l 51 213 l 210 213 l 210 760 l 51 760 l 51 972 l 642 972 l 642 760 l 485 760 m 467 1051 l 347 1157 l 228 1051 l 53 1051 l 233 1263 l 461 1263 l 642 1051 l 467 1051 z "},"Ȉ":{"ha":693,"x_min":-35,"x_max":642,"o":"m 485 760 l 485 213 l 642 213 l 642 0 l 51 0 l 51 213 l 210 213 l 210 760 l 51 760 l 51 972 l 642 972 l 642 760 l 485 760 m -35 1263 l 201 1263 l 288 1051 l 104 1051 l -35 1263 m 267 1263 l 503 1263 l 590 1051 l 407 1051 l 267 1263 z "},"Ï":{"ha":693,"x_min":51,"x_max":642,"o":"m 485 760 l 485 213 l 642 213 l 642 0 l 51 0 l 51 213 l 210 213 l 210 760 l 51 760 l 51 972 l 642 972 l 642 760 l 485 760 m 200 1050 q 122 1080 153 1050 q 90 1158 90 1110 q 122 1238 90 1207 q 200 1268 153 1268 q 278 1238 247 1268 q 310 1158 310 1207 q 278 1080 310 1110 q 200 1050 247 1050 m 494 1050 q 416 1080 447 1050 q 385 1158 385 1110 q 416 1238 385 1207 q 494 1268 447 1268 q 573 1238 542 1268 q 604 1158 604 1207 q 573 1080 604 1110 q 494 1050 542 1050 z "},"Ḯ":{"ha":693,"x_min":51,"x_max":642,"o":"m 485 760 l 485 213 l 642 213 l 642 0 l 51 0 l 51 213 l 210 213 l 210 760 l 51 760 l 51 972 l 642 972 l 642 760 l 485 760 m 206 1049 q 131 1077 161 1049 q 101 1151 101 1106 q 131 1226 101 1197 q 206 1256 161 1256 q 281 1226 251 1256 q 311 1151 311 1197 q 281 1077 311 1106 q 206 1049 251 1049 m 489 1049 q 415 1077 444 1049 q 385 1151 385 1106 q 415 1226 385 1197 q 489 1256 444 1256 q 563 1226 533 1256 q 593 1151 593 1197 q 563 1077 593 1106 q 489 1049 533 1049 m 363 1463 l 621 1463 l 397 1289 l 215 1289 l 363 1463 z "},"İ":{"ha":693,"x_min":51,"x_max":642,"o":"m 485 760 l 485 213 l 642 213 l 642 0 l 51 0 l 51 213 l 210 213 l 210 760 l 51 760 l 51 972 l 642 972 l 642 760 l 485 760 m 347 1049 q 248 1088 286 1049 q 210 1186 210 1126 q 249 1284 210 1246 q 347 1322 288 1322 q 446 1284 407 1322 q 485 1186 485 1246 q 446 1088 485 1126 q 347 1049 407 1049 z "},"Ị":{"ha":693,"x_min":51,"x_max":642,"o":"m 485 760 l 485 213 l 642 213 l 642 0 l 51 0 l 51 213 l 210 213 l 210 760 l 51 760 l 51 972 l 642 972 l 642 760 l 485 760 m 347 -303 q 269 -274 300 -303 q 238 -196 238 -244 q 269 -117 238 -147 q 347 -86 300 -86 q 426 -117 394 -86 q 457 -196 457 -147 q 426 -274 457 -244 q 347 -303 394 -303 z "},"Ì":{"ha":693,"x_min":33,"x_max":642,"o":"m 485 760 l 485 213 l 642 213 l 642 0 l 51 0 l 51 213 l 210 213 l 210 760 l 51 760 l 51 972 l 642 972 l 642 760 l 485 760 m 33 1263 l 297 1263 l 483 1051 l 294 1051 l 33 1263 z "},"Ỉ":{"ha":693,"x_min":51,"x_max":642,"o":"m 485 760 l 485 213 l 642 213 l 642 0 l 51 0 l 51 213 l 210 213 l 210 760 l 51 760 l 51 972 l 642 972 l 642 760 l 485 760 m 317 1118 q 369 1156 354 1136 q 385 1199 385 1175 q 367 1240 385 1225 q 322 1254 350 1254 q 242 1226 282 1254 l 188 1329 q 263 1367 219 1354 q 351 1381 306 1381 q 483 1336 432 1381 q 533 1221 533 1292 q 397 1038 533 1099 l 317 1118 z "},"Ȋ":{"ha":693,"x_min":51,"x_max":642,"o":"m 485 760 l 485 213 l 642 213 l 642 0 l 51 0 l 51 213 l 210 213 l 210 760 l 51 760 l 51 972 l 642 972 l 642 760 l 485 760 m 75 1051 q 154 1215 79 1154 q 347 1275 229 1275 q 540 1215 465 1275 q 619 1051 615 1154 l 458 1051 q 425 1118 457 1093 q 347 1143 393 1143 q 269 1118 301 1143 q 236 1051 238 1093 l 75 1051 z "},"Ī":{"ha":693,"x_min":51,"x_max":642,"o":"m 485 760 l 485 213 l 642 213 l 642 0 l 51 0 l 51 213 l 210 213 l 210 760 l 51 760 l 51 972 l 642 972 l 642 760 l 485 760 m 74 1228 l 621 1228 l 621 1086 l 74 1086 l 74 1228 z "},"Į":{"ha":693,"x_min":51,"x_max":642,"o":"m 485 760 l 485 213 l 642 213 l 642 0 l 51 0 l 51 213 l 210 213 l 210 760 l 51 760 l 51 972 l 642 972 l 642 760 l 485 760 m 414 -328 q 281 -283 332 -328 q 231 -164 231 -237 q 277 -34 231 -93 q 411 64 324 25 l 485 0 q 413 -71 433 -37 q 392 -140 392 -104 q 408 -185 392 -168 q 447 -203 424 -203 q 492 -187 469 -203 l 524 -297 q 474 -319 503 -311 q 414 -328 446 -328 z "},"Ĩ":{"ha":693,"x_min":51,"x_max":642,"o":"m 485 760 l 485 213 l 642 213 l 642 0 l 51 0 l 51 213 l 210 213 l 210 760 l 51 760 l 51 972 l 642 972 l 642 760 l 485 760 m 456 1042 q 388 1056 418 1042 q 322 1096 358 1071 q 283 1121 296 1114 q 256 1128 269 1128 q 211 1108 228 1128 q 192 1054 194 1089 l 63 1054 q 113 1215 65 1156 q 239 1275 160 1275 q 306 1261 276 1275 q 372 1222 335 1247 q 412 1197 399 1204 q 439 1190 425 1190 q 483 1209 467 1190 q 503 1260 500 1228 l 632 1260 q 582 1101 629 1161 q 456 1042 535 1042 z "},"J":{"ha":772,"x_min":-28,"x_max":683,"o":"m 308 -158 q 115 -122 201 -158 q -28 -15 28 -85 l 121 163 q 288 61 199 61 q 380 97 349 61 q 411 203 411 133 l 411 760 l 75 760 l 75 972 l 683 972 l 683 219 q 588 -64 683 31 q 308 -158 493 -158 z "},"Ĵ":{"ha":772,"x_min":-28,"x_max":683,"o":"m 308 -158 q 115 -122 201 -158 q -28 -15 28 -85 l 121 163 q 288 61 199 61 q 380 97 349 61 q 411 203 411 133 l 411 760 l 75 760 l 75 972 l 683 972 l 683 219 q 588 -64 683 31 q 308 -158 493 -158 m 499 1051 l 379 1157 l 260 1051 l 85 1051 l 265 1263 l 493 1263 l 674 1051 l 499 1051 z "},"K":{"ha":1044,"x_min":97,"x_max":1069,"o":"m 472 353 l 369 243 l 369 0 l 97 0 l 97 972 l 369 972 l 369 568 l 746 972 l 1049 972 l 651 542 l 1069 0 l 750 0 l 472 353 z "},"Ǩ":{"ha":1044,"x_min":97,"x_max":1069,"o":"m 472 353 l 369 243 l 369 0 l 97 0 l 97 972 l 369 972 l 369 568 l 746 972 l 1049 972 l 651 542 l 1069 0 l 750 0 l 472 353 m 825 1263 l 644 1051 l 417 1051 l 236 1263 l 411 1263 l 531 1157 l 650 1263 l 825 1263 z "},"Ķ":{"ha":1044,"x_min":97,"x_max":1069,"o":"m 472 353 l 369 243 l 369 0 l 97 0 l 97 972 l 369 972 l 369 568 l 746 972 l 1049 972 l 651 542 l 1069 0 l 750 0 l 472 353 m 531 -86 q 610 -112 581 -86 q 640 -179 640 -137 q 611 -279 640 -228 l 560 -372 l 440 -372 l 476 -262 q 421 -179 421 -242 q 451 -112 421 -137 q 531 -86 481 -86 z "},"L":{"ha":847,"x_min":97,"x_max":836,"o":"m 97 972 l 372 972 l 372 218 l 836 218 l 836 0 l 97 0 l 97 972 z "},"Ǉ":{"ha":1661,"x_min":97,"x_max":1572,"o":"m 97 972 l 372 972 l 372 218 l 836 218 l 836 0 l 97 0 l 97 972 m 1197 -158 q 1003 -122 1090 -158 q 861 -15 917 -85 l 1010 163 q 1176 61 1088 61 q 1269 97 1238 61 q 1300 203 1300 133 l 1300 760 l 964 760 l 964 972 l 1572 972 l 1572 219 q 1477 -64 1572 31 q 1197 -158 1382 -158 z "},"Ĺ":{"ha":847,"x_min":97,"x_max":836,"o":"m 97 972 l 372 972 l 372 218 l 836 218 l 836 0 l 97 0 l 97 972 m 285 1263 l 549 1263 l 288 1051 l 99 1051 l 285 1263 z "},"Ľ":{"ha":847,"x_min":97,"x_max":836,"o":"m 97 972 l 372 972 l 372 218 l 836 218 l 836 0 l 97 0 l 97 972 m 593 1035 l 783 1035 l 749 750 l 593 750 l 593 1035 z "},"Ļ":{"ha":847,"x_min":97,"x_max":836,"o":"m 97 972 l 372 972 l 372 218 l 836 218 l 836 0 l 97 0 l 97 972 m 483 -86 q 563 -112 533 -86 q 593 -179 593 -137 q 564 -279 593 -228 l 513 -372 l 393 -372 l 429 -262 q 374 -179 374 -242 q 403 -112 374 -137 q 483 -86 433 -86 z "},"Ŀ":{"ha":847,"x_min":97,"x_max":836,"o":"m 97 972 l 372 972 l 372 218 l 836 218 l 836 0 l 97 0 l 97 972 m 660 456 q 560 494 599 456 q 522 594 522 533 q 561 694 522 656 q 660 733 600 733 q 758 694 719 733 q 797 594 797 656 q 759 494 797 533 q 660 456 721 456 z "},"Ḷ":{"ha":847,"x_min":97,"x_max":836,"o":"m 97 972 l 372 972 l 372 218 l 836 218 l 836 0 l 97 0 l 97 972 m 483 -303 q 405 -274 436 -303 q 374 -196 374 -244 q 405 -117 374 -147 q 483 -86 436 -86 q 562 -117 531 -86 q 593 -196 593 -147 q 562 -274 593 -244 q 483 -303 531 -303 z "},"ǈ":{"ha":1292,"x_min":97,"x_max":1236,"o":"m 97 972 l 372 972 l 372 218 l 836 218 l 836 0 l 97 0 l 97 972 m 900 -282 q 717 -243 785 -282 l 783 -56 q 865 -78 819 -78 q 922 -53 901 -78 q 943 21 943 -28 l 943 753 l 1207 753 l 1207 19 q 1126 -201 1207 -119 q 900 -282 1044 -282 m 1075 836 q 958 876 1003 836 q 914 976 914 917 q 958 1076 914 1036 q 1075 1117 1003 1117 q 1192 1078 1147 1117 q 1236 981 1236 1040 q 1192 877 1236 918 q 1075 836 1147 836 z "},"Ḻ":{"ha":847,"x_min":97,"x_max":836,"o":"m 97 972 l 372 972 l 372 218 l 836 218 l 836 0 l 97 0 l 97 972 m 210 -118 l 757 -118 l 757 -260 l 210 -260 l 210 -118 z "},"Ł":{"ha":871,"x_min":-33,"x_max":860,"o":"m 121 972 l 396 972 l 396 218 l 860 218 l 860 0 l 121 0 l 121 972 m -33 421 l 535 846 l 624 722 l 56 299 l -33 421 z "},"M":{"ha":1690,"x_min":97,"x_max":1600,"o":"m 1235 992 q 1503 890 1407 992 q 1600 594 1600 788 l 1600 0 l 1325 0 l 1325 586 q 1279 719 1325 674 q 1157 764 1233 764 q 1027 716 1075 764 q 979 572 979 668 l 979 0 l 704 0 l 704 586 q 662 719 704 674 q 546 764 619 764 q 419 716 467 764 q 372 572 372 668 l 372 0 l 97 0 l 97 972 l 364 972 l 364 864 q 478 959 408 926 q 642 992 549 992 q 809 957 738 992 q 925 856 881 922 q 1056 957 975 922 q 1235 992 1136 992 z "},"Ṃ":{"ha":1690,"x_min":97,"x_max":1600,"o":"m 1235 992 q 1503 890 1407 992 q 1600 594 1600 788 l 1600 0 l 1325 0 l 1325 586 q 1279 719 1325 674 q 1157 764 1233 764 q 1027 716 1075 764 q 979 572 979 668 l 979 0 l 704 0 l 704 586 q 662 719 704 674 q 546 764 619 764 q 419 716 467 764 q 372 572 372 668 l 372 0 l 97 0 l 97 972 l 364 972 l 364 864 q 478 959 408 926 q 642 992 549 992 q 809 957 738 992 q 925 856 881 922 q 1056 957 975 922 q 1235 992 1136 992 m 842 -303 q 763 -274 794 -303 q 732 -196 732 -244 q 763 -117 732 -147 q 842 -86 794 -86 q 920 -117 889 -86 q 951 -196 951 -147 q 920 -274 951 -244 q 842 -303 889 -303 z "},"N":{"ha":1104,"x_min":97,"x_max":1015,"o":"m 650 992 q 919 881 824 992 q 1015 567 1015 771 l 1015 0 l 740 0 l 740 558 q 694 713 740 661 q 564 764 647 764 q 425 709 478 764 q 372 544 372 654 l 372 0 l 97 0 l 97 972 l 364 972 l 364 861 q 650 992 463 992 z "},"Ǌ":{"ha":1876,"x_min":97,"x_max":1788,"o":"m 650 992 q 919 881 824 992 q 1015 567 1015 771 l 1015 0 l 740 0 l 740 558 q 694 713 740 661 q 564 764 647 764 q 425 709 478 764 q 372 544 372 654 l 372 0 l 97 0 l 97 972 l 364 972 l 364 861 q 650 992 463 992 m 1413 -158 q 1219 -122 1306 -158 q 1076 -15 1132 -85 l 1225 163 q 1392 61 1303 61 q 1484 97 1453 61 q 1515 203 1515 133 l 1515 760 l 1179 760 l 1179 972 l 1788 972 l 1788 219 q 1692 -64 1788 31 q 1413 -158 1597 -158 z "},"Ń":{"ha":1104,"x_min":97,"x_max":1015,"o":"m 650 992 q 919 881 824 992 q 1015 567 1015 771 l 1015 0 l 740 0 l 740 558 q 694 713 740 661 q 564 764 647 764 q 425 709 478 764 q 372 544 372 654 l 372 0 l 97 0 l 97 972 l 364 972 l 364 861 q 650 992 463 992 m 607 1263 l 871 1263 l 610 1051 l 421 1051 l 607 1263 z "},"Ň":{"ha":1104,"x_min":97,"x_max":1015,"o":"m 650 992 q 919 881 824 992 q 1015 567 1015 771 l 1015 0 l 740 0 l 740 558 q 694 713 740 661 q 564 764 647 764 q 425 709 478 764 q 372 544 372 654 l 372 0 l 97 0 l 97 972 l 364 972 l 364 861 q 650 992 463 992 m 851 1263 l 671 1051 l 443 1051 l 263 1263 l 438 1263 l 557 1157 l 676 1263 l 851 1263 z "},"Ņ":{"ha":1104,"x_min":97,"x_max":1015,"o":"m 650 992 q 919 881 824 992 q 1015 567 1015 771 l 1015 0 l 740 0 l 740 558 q 694 713 740 661 q 564 764 647 764 q 425 709 478 764 q 372 544 372 654 l 372 0 l 97 0 l 97 972 l 364 972 l 364 861 q 650 992 463 992 m 556 -86 q 635 -112 606 -86 q 665 -179 665 -137 q 636 -279 665 -228 l 585 -372 l 465 -372 l 501 -262 q 446 -179 446 -242 q 476 -112 446 -137 q 556 -86 506 -86 z "},"Ṅ":{"ha":1104,"x_min":97,"x_max":1015,"o":"m 650 992 q 919 881 824 992 q 1015 567 1015 771 l 1015 0 l 740 0 l 740 558 q 694 713 740 661 q 564 764 647 764 q 425 709 478 764 q 372 544 372 654 l 372 0 l 97 0 l 97 972 l 364 972 l 364 861 q 650 992 463 992 m 557 1049 q 458 1088 496 1049 q 419 1186 419 1126 q 458 1284 419 1246 q 557 1322 497 1322 q 656 1284 617 1322 q 694 1186 694 1246 q 656 1088 694 1126 q 557 1049 617 1049 z "},"Ṇ":{"ha":1104,"x_min":97,"x_max":1015,"o":"m 650 992 q 919 881 824 992 q 1015 567 1015 771 l 1015 0 l 740 0 l 740 558 q 694 713 740 661 q 564 764 647 764 q 425 709 478 764 q 372 544 372 654 l 372 0 l 97 0 l 97 972 l 364 972 l 364 861 q 650 992 463 992 m 556 -303 q 477 -274 508 -303 q 446 -196 446 -244 q 477 -117 446 -147 q 556 -86 508 -86 q 634 -117 603 -86 q 665 -196 665 -147 q 634 -274 665 -244 q 556 -303 603 -303 z "},"Ŋ":{"ha":1104,"x_min":97,"x_max":1015,"o":"m 650 992 q 919 881 824 992 q 1015 567 1015 771 l 1015 96 q 919 -187 1015 -92 q 639 -282 822 -282 q 371 -200 475 -282 l 497 -7 q 618 -56 553 -56 q 709 -20 678 -56 q 740 85 740 15 l 740 558 q 694 713 740 661 q 564 764 647 764 q 425 709 478 764 q 372 544 372 654 l 372 0 l 97 0 l 97 972 l 364 972 l 364 861 q 650 992 463 992 z "},"ǋ":{"ha":1549,"x_min":97,"x_max":1493,"o":"m 650 992 q 919 881 824 992 q 1015 567 1015 771 l 1015 0 l 740 0 l 740 558 q 694 713 740 661 q 564 764 647 764 q 425 709 478 764 q 372 544 372 654 l 372 0 l 97 0 l 97 972 l 364 972 l 364 861 q 650 992 463 992 m 1157 -282 q 974 -243 1042 -282 l 1040 -56 q 1122 -78 1076 -78 q 1179 -53 1158 -78 q 1200 21 1200 -28 l 1200 753 l 1464 753 l 1464 19 q 1383 -201 1464 -119 q 1157 -282 1301 -282 m 1332 836 q 1215 876 1260 836 q 1171 976 1171 917 q 1215 1076 1171 1036 q 1332 1117 1260 1117 q 1449 1078 1404 1117 q 1493 981 1493 1040 q 1449 877 1493 918 q 1332 836 1404 836 z "},"Ṉ":{"ha":1104,"x_min":97,"x_max":1015,"o":"m 650 992 q 919 881 824 992 q 1015 567 1015 771 l 1015 0 l 740 0 l 740 558 q 694 713 740 661 q 564 764 647 764 q 425 709 478 764 q 372 544 372 654 l 372 0 l 97 0 l 97 972 l 364 972 l 364 861 q 650 992 463 992 m 282 -118 l 829 -118 l 829 -260 l 282 -260 l 282 -118 z "},"Ñ":{"ha":1104,"x_min":97,"x_max":1015,"o":"m 650 992 q 919 881 824 992 q 1015 567 1015 771 l 1015 0 l 740 0 l 740 558 q 694 713 740 661 q 564 764 647 764 q 425 709 478 764 q 372 544 372 654 l 372 0 l 97 0 l 97 972 l 364 972 l 364 861 q 650 992 463 992 m 665 1042 q 598 1056 628 1042 q 532 1096 568 1071 q 492 1121 506 1114 q 465 1128 479 1128 q 421 1108 438 1128 q 401 1054 404 1089 l 272 1054 q 322 1215 275 1156 q 449 1275 369 1275 q 515 1261 486 1275 q 582 1222 544 1247 q 622 1197 608 1204 q 649 1190 635 1190 q 693 1209 676 1190 q 713 1260 710 1228 l 842 1260 q 792 1101 839 1161 q 665 1042 744 1042 z "},"O":{"ha":1175,"x_min":47,"x_max":1128,"o":"m 588 -19 q 310 46 433 -19 q 117 226 188 111 q 47 486 47 342 q 117 746 47 631 q 310 926 188 861 q 588 992 433 992 q 865 926 742 992 q 1058 746 988 861 q 1128 486 1128 631 q 1058 226 1128 342 q 865 46 988 111 q 588 -19 742 -19 m 588 208 q 721 243 661 208 q 815 341 781 278 q 850 486 850 404 q 815 631 850 568 q 721 729 781 694 q 588 764 661 764 q 454 729 514 764 q 360 631 394 694 q 325 486 325 568 q 360 341 325 404 q 454 243 394 278 q 588 208 514 208 z "},"Ó":{"ha":1175,"x_min":47,"x_max":1128,"o":"m 588 -19 q 310 46 433 -19 q 117 226 188 111 q 47 486 47 342 q 117 746 47 631 q 310 926 188 861 q 588 992 433 992 q 865 926 742 992 q 1058 746 988 861 q 1128 486 1128 631 q 1058 226 1128 342 q 865 46 988 111 q 588 -19 742 -19 m 588 208 q 721 243 661 208 q 815 341 781 278 q 850 486 850 404 q 815 631 850 568 q 721 729 781 694 q 588 764 661 764 q 454 729 514 764 q 360 631 394 694 q 325 486 325 568 q 360 341 325 404 q 454 243 394 278 q 588 208 514 208 m 638 1263 l 901 1263 l 640 1051 l 451 1051 l 638 1263 z "},"Ŏ":{"ha":1175,"x_min":47,"x_max":1128,"o":"m 588 -19 q 310 46 433 -19 q 117 226 188 111 q 47 486 47 342 q 117 746 47 631 q 310 926 188 861 q 588 992 433 992 q 865 926 742 992 q 1058 746 988 861 q 1128 486 1128 631 q 1058 226 1128 342 q 865 46 988 111 q 588 -19 742 -19 m 588 208 q 721 243 661 208 q 815 341 781 278 q 850 486 850 404 q 815 631 850 568 q 721 729 781 694 q 588 764 661 764 q 454 729 514 764 q 360 631 394 694 q 325 486 325 568 q 360 341 325 404 q 454 243 394 278 q 588 208 514 208 m 588 1039 q 394 1099 469 1039 q 315 1263 319 1160 l 476 1263 q 510 1196 478 1221 q 588 1171 542 1171 q 665 1196 633 1171 q 699 1263 697 1221 l 860 1263 q 781 1099 856 1160 q 588 1039 706 1039 z "},"Ô":{"ha":1175,"x_min":47,"x_max":1128,"o":"m 588 -19 q 310 46 433 -19 q 117 226 188 111 q 47 486 47 342 q 117 746 47 631 q 310 926 188 861 q 588 992 433 992 q 865 926 742 992 q 1058 746 988 861 q 1128 486 1128 631 q 1058 226 1128 342 q 865 46 988 111 q 588 -19 742 -19 m 588 208 q 721 243 661 208 q 815 341 781 278 q 850 486 850 404 q 815 631 850 568 q 721 729 781 694 q 588 764 661 764 q 454 729 514 764 q 360 631 394 694 q 325 486 325 568 q 360 341 325 404 q 454 243 394 278 q 588 208 514 208 m 707 1051 l 588 1157 l 468 1051 l 293 1051 l 474 1263 l 701 1263 l 882 1051 l 707 1051 z "},"Ố":{"ha":1175,"x_min":47,"x_max":1176,"o":"m 588 -19 q 310 46 433 -19 q 117 226 188 111 q 47 486 47 342 q 117 746 47 631 q 310 926 188 861 q 588 992 433 992 q 865 926 742 992 q 1058 746 988 861 q 1128 486 1128 631 q 1058 226 1128 342 q 865 46 988 111 q 588 -19 742 -19 m 588 208 q 721 243 661 208 q 815 341 781 278 q 850 486 850 404 q 815 631 850 568 q 721 729 781 694 q 588 764 661 764 q 454 729 514 764 q 360 631 394 694 q 325 486 325 568 q 360 341 325 404 q 454 243 394 278 q 588 208 514 208 m 706 1051 l 588 1133 l 469 1051 l 293 1051 l 475 1221 l 700 1221 l 882 1051 l 706 1051 m 918 1364 l 1176 1364 l 953 1190 l 771 1190 l 918 1364 z "},"Ộ":{"ha":1175,"x_min":47,"x_max":1128,"o":"m 588 -19 q 310 46 433 -19 q 117 226 188 111 q 47 486 47 342 q 117 746 47 631 q 310 926 188 861 q 588 992 433 992 q 865 926 742 992 q 1058 746 988 861 q 1128 486 1128 631 q 1058 226 1128 342 q 865 46 988 111 q 588 -19 742 -19 m 588 208 q 721 243 661 208 q 815 341 781 278 q 850 486 850 404 q 815 631 850 568 q 721 729 781 694 q 588 764 661 764 q 454 729 514 764 q 360 631 394 694 q 325 486 325 568 q 360 341 325 404 q 454 243 394 278 q 588 208 514 208 m 588 -303 q 509 -274 540 -303 q 478 -196 478 -244 q 509 -117 478 -147 q 588 -86 540 -86 q 666 -117 635 -86 q 697 -196 697 -147 q 666 -274 697 -244 q 588 -303 635 -303 m 707 1051 l 588 1157 l 468 1051 l 293 1051 l 474 1263 l 701 1263 l 882 1051 l 707 1051 z "},"Ồ":{"ha":1175,"x_min":47,"x_max":1128,"o":"m 588 -19 q 310 46 433 -19 q 117 226 188 111 q 47 486 47 342 q 117 746 47 631 q 310 926 188 861 q 588 992 433 992 q 865 926 742 992 q 1058 746 988 861 q 1128 486 1128 631 q 1058 226 1128 342 q 865 46 988 111 q 588 -19 742 -19 m 588 208 q 721 243 661 208 q 815 341 781 278 q 850 486 850 404 q 815 631 850 568 q 721 729 781 694 q 588 764 661 764 q 454 729 514 764 q 360 631 394 694 q 325 486 325 568 q 360 341 325 404 q 454 243 394 278 q 588 208 514 208 m 706 1051 l 588 1133 l 469 1051 l 293 1051 l 475 1221 l 700 1221 l 882 1051 l 706 1051 m 629 1364 l 888 1364 l 1035 1190 l 854 1190 l 629 1364 z "},"Ổ":{"ha":1175,"x_min":47,"x_max":1128,"o":"m 588 -19 q 310 46 433 -19 q 117 226 188 111 q 47 486 47 342 q 117 746 47 631 q 310 926 188 861 q 588 992 433 992 q 865 926 742 992 q 1058 746 988 861 q 1128 486 1128 631 q 1058 226 1128 342 q 865 46 988 111 q 588 -19 742 -19 m 588 208 q 721 243 661 208 q 815 341 781 278 q 850 486 850 404 q 815 631 850 568 q 721 729 781 694 q 588 764 661 764 q 454 729 514 764 q 360 631 394 694 q 325 486 325 568 q 360 341 325 404 q 454 243 394 278 q 588 208 514 208 m 706 1051 l 588 1133 l 469 1051 l 293 1051 l 475 1221 l 700 1221 l 882 1051 l 706 1051 m 797 1219 q 847 1275 847 1246 q 835 1302 847 1292 q 803 1313 822 1313 q 740 1296 774 1313 l 699 1371 q 825 1404 751 1404 q 925 1373 888 1404 q 963 1289 963 1342 q 933 1213 963 1246 q 860 1163 904 1181 l 797 1219 z "},"Ỗ":{"ha":1175,"x_min":47,"x_max":1128,"o":"m 588 -19 q 310 46 433 -19 q 117 226 188 111 q 47 486 47 342 q 117 746 47 631 q 310 926 188 861 q 588 992 433 992 q 865 926 742 992 q 1058 746 988 861 q 1128 486 1128 631 q 1058 226 1128 342 q 865 46 988 111 q 588 -19 742 -19 m 588 208 q 721 243 661 208 q 815 341 781 278 q 850 486 850 404 q 815 631 850 568 q 721 729 781 694 q 588 764 661 764 q 454 729 514 764 q 360 631 394 694 q 325 486 325 568 q 360 341 325 404 q 454 243 394 278 q 588 208 514 208 m 706 1051 l 588 1133 l 469 1051 l 293 1051 l 475 1221 l 700 1221 l 882 1051 l 706 1051 m 692 1269 q 622 1282 651 1269 q 557 1315 592 1294 q 526 1333 542 1325 q 500 1340 511 1340 q 458 1324 474 1340 q 440 1281 443 1308 l 308 1281 q 356 1420 310 1371 q 485 1469 403 1469 q 552 1457 522 1469 q 617 1424 582 1444 q 652 1405 639 1411 q 678 1399 665 1399 q 720 1415 704 1399 q 739 1458 736 1432 l 867 1458 q 819 1319 865 1369 q 692 1269 774 1269 z "},"Ȍ":{"ha":1175,"x_min":47,"x_max":1128,"o":"m 588 -19 q 310 46 433 -19 q 117 226 188 111 q 47 486 47 342 q 117 746 47 631 q 310 926 188 861 q 588 992 433 992 q 865 926 742 992 q 1058 746 988 861 q 1128 486 1128 631 q 1058 226 1128 342 q 865 46 988 111 q 588 -19 742 -19 m 588 208 q 721 243 661 208 q 815 341 781 278 q 850 486 850 404 q 815 631 850 568 q 721 729 781 694 q 588 764 661 764 q 454 729 514 764 q 360 631 394 694 q 325 486 325 568 q 360 341 325 404 q 454 243 394 278 q 588 208 514 208 m 206 1263 l 442 1263 l 528 1051 l 344 1051 l 206 1263 m 507 1263 l 743 1263 l 831 1051 l 647 1051 l 507 1263 z "},"Ö":{"ha":1175,"x_min":47,"x_max":1128,"o":"m 588 -19 q 310 46 433 -19 q 117 226 188 111 q 47 486 47 342 q 117 746 47 631 q 310 926 188 861 q 588 992 433 992 q 865 926 742 992 q 1058 746 988 861 q 1128 486 1128 631 q 1058 226 1128 342 q 865 46 988 111 q 588 -19 742 -19 m 588 208 q 721 243 661 208 q 815 341 781 278 q 850 486 850 404 q 815 631 850 568 q 721 729 781 694 q 588 764 661 764 q 454 729 514 764 q 360 631 394 694 q 325 486 325 568 q 360 341 325 404 q 454 243 394 278 q 588 208 514 208 m 440 1050 q 362 1080 393 1050 q 331 1158 331 1110 q 362 1238 331 1207 q 440 1268 393 1268 q 519 1238 488 1268 q 550 1158 550 1207 q 519 1080 550 1110 q 440 1050 488 1050 m 735 1050 q 656 1080 688 1050 q 625 1158 625 1110 q 656 1238 625 1207 q 735 1268 688 1268 q 813 1238 782 1268 q 844 1158 844 1207 q 813 1080 844 1110 q 735 1050 782 1050 z "},"Ȫ":{"ha":1175,"x_min":47,"x_max":1128,"o":"m 588 -19 q 310 46 433 -19 q 117 226 188 111 q 47 486 47 342 q 117 746 47 631 q 310 926 188 861 q 588 992 433 992 q 865 926 742 992 q 1058 746 988 861 q 1128 486 1128 631 q 1058 226 1128 342 q 865 46 988 111 q 588 -19 742 -19 m 588 208 q 721 243 661 208 q 815 341 781 278 q 850 486 850 404 q 815 631 850 568 q 721 729 781 694 q 588 764 661 764 q 454 729 514 764 q 360 631 394 694 q 325 486 325 568 q 360 341 325 404 q 454 243 394 278 q 588 208 514 208 m 446 1050 q 372 1078 401 1050 q 342 1153 342 1107 q 372 1228 342 1199 q 446 1257 401 1257 q 522 1228 492 1257 q 551 1153 551 1199 q 522 1078 551 1107 q 446 1050 492 1050 m 729 1050 q 655 1078 685 1050 q 625 1153 625 1107 q 655 1228 625 1199 q 729 1257 685 1257 q 803 1228 774 1257 q 833 1153 833 1199 q 803 1078 833 1107 q 729 1050 774 1050 m 314 1443 l 861 1443 l 861 1307 l 314 1307 l 314 1443 z "},"Ȱ":{"ha":1175,"x_min":47,"x_max":1128,"o":"m 588 -19 q 310 46 433 -19 q 117 226 188 111 q 47 486 47 342 q 117 746 47 631 q 310 926 188 861 q 588 992 433 992 q 865 926 742 992 q 1058 746 988 861 q 1128 486 1128 631 q 1058 226 1128 342 q 865 46 988 111 q 588 -19 742 -19 m 588 208 q 721 243 661 208 q 815 341 781 278 q 850 486 850 404 q 815 631 850 568 q 721 729 781 694 q 588 764 661 764 q 454 729 514 764 q 360 631 394 694 q 325 486 325 568 q 360 341 325 404 q 454 243 394 278 q 588 208 514 208 m 588 1047 q 509 1077 540 1047 q 478 1156 478 1107 q 509 1233 478 1203 q 588 1264 540 1264 q 666 1233 635 1264 q 697 1156 697 1203 q 666 1077 697 1107 q 588 1047 635 1047 m 314 1454 l 861 1454 l 861 1318 l 314 1318 l 314 1454 z "},"Ọ":{"ha":1175,"x_min":47,"x_max":1128,"o":"m 588 -19 q 310 46 433 -19 q 117 226 188 111 q 47 486 47 342 q 117 746 47 631 q 310 926 188 861 q 588 992 433 992 q 865 926 742 992 q 1058 746 988 861 q 1128 486 1128 631 q 1058 226 1128 342 q 865 46 988 111 q 588 -19 742 -19 m 588 208 q 721 243 661 208 q 815 341 781 278 q 850 486 850 404 q 815 631 850 568 q 721 729 781 694 q 588 764 661 764 q 454 729 514 764 q 360 631 394 694 q 325 486 325 568 q 360 341 325 404 q 454 243 394 278 q 588 208 514 208 m 588 -303 q 509 -274 540 -303 q 478 -196 478 -244 q 509 -117 478 -147 q 588 -86 540 -86 q 666 -117 635 -86 q 697 -196 697 -147 q 666 -274 697 -244 q 588 -303 635 -303 z "},"Ò":{"ha":1175,"x_min":47,"x_max":1128,"o":"m 588 -19 q 310 46 433 -19 q 117 226 188 111 q 47 486 47 342 q 117 746 47 631 q 310 926 188 861 q 588 992 433 992 q 865 926 742 992 q 1058 746 988 861 q 1128 486 1128 631 q 1058 226 1128 342 q 865 46 988 111 q 588 -19 742 -19 m 588 208 q 721 243 661 208 q 815 341 781 278 q 850 486 850 404 q 815 631 850 568 q 721 729 781 694 q 588 764 661 764 q 454 729 514 764 q 360 631 394 694 q 325 486 325 568 q 360 341 325 404 q 454 243 394 278 q 588 208 514 208 m 274 1263 l 538 1263 l 724 1051 l 535 1051 l 274 1263 z "},"Ỏ":{"ha":1175,"x_min":47,"x_max":1128,"o":"m 588 -19 q 310 46 433 -19 q 117 226 188 111 q 47 486 47 342 q 117 746 47 631 q 310 926 188 861 q 588 992 433 992 q 865 926 742 992 q 1058 746 988 861 q 1128 486 1128 631 q 1058 226 1128 342 q 865 46 988 111 q 588 -19 742 -19 m 588 208 q 721 243 661 208 q 815 341 781 278 q 850 486 850 404 q 815 631 850 568 q 721 729 781 694 q 588 764 661 764 q 454 729 514 764 q 360 631 394 694 q 325 486 325 568 q 360 341 325 404 q 454 243 394 278 q 588 208 514 208 m 557 1118 q 610 1156 594 1136 q 625 1199 625 1175 q 608 1240 625 1225 q 563 1254 590 1254 q 482 1226 522 1254 l 428 1329 q 503 1367 460 1354 q 592 1381 546 1381 q 723 1336 672 1381 q 774 1221 774 1292 q 638 1038 774 1099 l 557 1118 z "},"Ơ":{"ha":1175,"x_min":47,"x_max":1128,"o":"m 976 840 q 1088 684 1047 775 q 1128 486 1128 593 q 1058 226 1128 342 q 865 46 988 111 q 588 -19 742 -19 q 310 46 433 -19 q 117 226 188 111 q 47 486 47 342 q 118 746 47 631 q 315 926 189 861 q 599 992 440 992 q 753 981 664 992 q 847 974 813 974 q 924 996 896 974 q 951 1060 951 1018 q 924 1140 951 1103 l 1075 1194 q 1124 1049 1124 1129 q 1085 918 1124 971 q 976 840 1046 865 m 588 208 q 721 243 661 208 q 815 341 781 278 q 850 486 850 404 q 815 631 850 568 q 721 729 781 694 q 588 764 661 764 q 454 729 514 764 q 360 631 394 694 q 325 486 325 568 q 360 341 325 404 q 454 243 394 278 q 588 208 514 208 z "},"Ớ":{"ha":1175,"x_min":47,"x_max":1128,"o":"m 976 840 q 1088 684 1047 775 q 1128 486 1128 593 q 1058 226 1128 342 q 865 46 988 111 q 588 -19 742 -19 q 310 46 433 -19 q 117 226 188 111 q 47 486 47 342 q 118 746 47 631 q 315 926 189 861 q 599 992 440 992 q 753 981 664 992 q 847 974 813 974 q 924 996 896 974 q 951 1060 951 1018 q 924 1140 951 1103 l 1075 1194 q 1124 1049 1124 1129 q 1085 918 1124 971 q 976 840 1046 865 m 588 208 q 721 243 661 208 q 815 341 781 278 q 850 486 850 404 q 815 631 850 568 q 721 729 781 694 q 588 764 661 764 q 454 729 514 764 q 360 631 394 694 q 325 486 325 568 q 360 341 325 404 q 454 243 394 278 q 588 208 514 208 m 638 1263 l 901 1263 l 640 1051 l 451 1051 l 638 1263 z "},"Ợ":{"ha":1175,"x_min":47,"x_max":1128,"o":"m 976 840 q 1088 684 1047 775 q 1128 486 1128 593 q 1058 226 1128 342 q 865 46 988 111 q 588 -19 742 -19 q 310 46 433 -19 q 117 226 188 111 q 47 486 47 342 q 118 746 47 631 q 315 926 189 861 q 599 992 440 992 q 753 981 664 992 q 847 974 813 974 q 924 996 896 974 q 951 1060 951 1018 q 924 1140 951 1103 l 1075 1194 q 1124 1049 1124 1129 q 1085 918 1124 971 q 976 840 1046 865 m 588 208 q 721 243 661 208 q 815 341 781 278 q 850 486 850 404 q 815 631 850 568 q 721 729 781 694 q 588 764 661 764 q 454 729 514 764 q 360 631 394 694 q 325 486 325 568 q 360 341 325 404 q 454 243 394 278 q 588 208 514 208 m 588 -303 q 509 -274 540 -303 q 478 -196 478 -244 q 509 -117 478 -147 q 588 -86 540 -86 q 666 -117 635 -86 q 697 -196 697 -147 q 666 -274 697 -244 q 588 -303 635 -303 z "},"Ờ":{"ha":1175,"x_min":47,"x_max":1128,"o":"m 976 840 q 1088 684 1047 775 q 1128 486 1128 593 q 1058 226 1128 342 q 865 46 988 111 q 588 -19 742 -19 q 310 46 433 -19 q 117 226 188 111 q 47 486 47 342 q 118 746 47 631 q 315 926 189 861 q 599 992 440 992 q 753 981 664 992 q 847 974 813 974 q 924 996 896 974 q 951 1060 951 1018 q 924 1140 951 1103 l 1075 1194 q 1124 1049 1124 1129 q 1085 918 1124 971 q 976 840 1046 865 m 588 208 q 721 243 661 208 q 815 341 781 278 q 850 486 850 404 q 815 631 850 568 q 721 729 781 694 q 588 764 661 764 q 454 729 514 764 q 360 631 394 694 q 325 486 325 568 q 360 341 325 404 q 454 243 394 278 q 588 208 514 208 m 274 1263 l 538 1263 l 724 1051 l 535 1051 l 274 1263 z "},"Ở":{"ha":1175,"x_min":47,"x_max":1128,"o":"m 976 840 q 1088 684 1047 775 q 1128 486 1128 593 q 1058 226 1128 342 q 865 46 988 111 q 588 -19 742 -19 q 310 46 433 -19 q 117 226 188 111 q 47 486 47 342 q 118 746 47 631 q 315 926 189 861 q 599 992 440 992 q 753 981 664 992 q 847 974 813 974 q 924 996 896 974 q 951 1060 951 1018 q 924 1140 951 1103 l 1075 1194 q 1124 1049 1124 1129 q 1085 918 1124 971 q 976 840 1046 865 m 588 208 q 721 243 661 208 q 815 341 781 278 q 850 486 850 404 q 815 631 850 568 q 721 729 781 694 q 588 764 661 764 q 454 729 514 764 q 360 631 394 694 q 325 486 325 568 q 360 341 325 404 q 454 243 394 278 q 588 208 514 208 m 557 1118 q 610 1156 594 1136 q 625 1199 625 1175 q 608 1240 625 1225 q 563 1254 590 1254 q 482 1226 522 1254 l 428 1329 q 503 1367 460 1354 q 592 1381 546 1381 q 723 1336 672 1381 q 774 1221 774 1292 q 638 1038 774 1099 l 557 1118 z "},"Ỡ":{"ha":1175,"x_min":47,"x_max":1128,"o":"m 976 840 q 1088 684 1047 775 q 1128 486 1128 593 q 1058 226 1128 342 q 865 46 988 111 q 588 -19 742 -19 q 310 46 433 -19 q 117 226 188 111 q 47 486 47 342 q 118 746 47 631 q 315 926 189 861 q 599 992 440 992 q 753 981 664 992 q 847 974 813 974 q 924 996 896 974 q 951 1060 951 1018 q 924 1140 951 1103 l 1075 1194 q 1124 1049 1124 1129 q 1085 918 1124 971 q 976 840 1046 865 m 588 208 q 721 243 661 208 q 815 341 781 278 q 850 486 850 404 q 815 631 850 568 q 721 729 781 694 q 588 764 661 764 q 454 729 514 764 q 360 631 394 694 q 325 486 325 568 q 360 341 325 404 q 454 243 394 278 q 588 208 514 208 m 696 1042 q 628 1056 658 1042 q 563 1096 599 1071 q 523 1121 536 1114 q 496 1128 510 1128 q 451 1108 468 1128 q 432 1054 435 1089 l 303 1054 q 353 1215 306 1156 q 479 1275 400 1275 q 546 1261 517 1275 q 613 1222 575 1247 q 652 1197 639 1204 q 679 1190 665 1190 q 724 1209 707 1190 q 743 1260 740 1228 l 872 1260 q 822 1101 869 1161 q 696 1042 775 1042 z "},"Ő":{"ha":1175,"x_min":47,"x_max":1128,"o":"m 588 -19 q 310 46 433 -19 q 117 226 188 111 q 47 486 47 342 q 117 746 47 631 q 310 926 188 861 q 588 992 433 992 q 865 926 742 992 q 1058 746 988 861 q 1128 486 1128 631 q 1058 226 1128 342 q 865 46 988 111 q 588 -19 742 -19 m 588 208 q 721 243 661 208 q 815 341 781 278 q 850 486 850 404 q 815 631 850 568 q 721 729 781 694 q 588 764 661 764 q 454 729 514 764 q 360 631 394 694 q 325 486 325 568 q 360 341 325 404 q 454 243 394 278 q 588 208 514 208 m 432 1263 l 668 1263 l 528 1051 l 344 1051 l 432 1263 m 733 1263 l 969 1263 l 831 1051 l 647 1051 l 733 1263 z "},"Ȏ":{"ha":1175,"x_min":47,"x_max":1128,"o":"m 588 -19 q 310 46 433 -19 q 117 226 188 111 q 47 486 47 342 q 117 746 47 631 q 310 926 188 861 q 588 992 433 992 q 865 926 742 992 q 1058 746 988 861 q 1128 486 1128 631 q 1058 226 1128 342 q 865 46 988 111 q 588 -19 742 -19 m 588 208 q 721 243 661 208 q 815 341 781 278 q 850 486 850 404 q 815 631 850 568 q 721 729 781 694 q 588 764 661 764 q 454 729 514 764 q 360 631 394 694 q 325 486 325 568 q 360 341 325 404 q 454 243 394 278 q 588 208 514 208 m 315 1051 q 394 1215 319 1154 q 588 1275 469 1275 q 781 1215 706 1275 q 860 1051 856 1154 l 699 1051 q 665 1118 697 1093 q 588 1143 633 1143 q 510 1118 542 1143 q 476 1051 478 1093 l 315 1051 z "},"Ō":{"ha":1175,"x_min":47,"x_max":1128,"o":"m 588 -19 q 310 46 433 -19 q 117 226 188 111 q 47 486 47 342 q 117 746 47 631 q 310 926 188 861 q 588 992 433 992 q 865 926 742 992 q 1058 746 988 861 q 1128 486 1128 631 q 1058 226 1128 342 q 865 46 988 111 q 588 -19 742 -19 m 588 208 q 721 243 661 208 q 815 341 781 278 q 850 486 850 404 q 815 631 850 568 q 721 729 781 694 q 588 764 661 764 q 454 729 514 764 q 360 631 394 694 q 325 486 325 568 q 360 341 325 404 q 454 243 394 278 q 588 208 514 208 m 314 1228 l 861 1228 l 861 1086 l 314 1086 l 314 1228 z "},"Ṓ":{"ha":1175,"x_min":47,"x_max":1128,"o":"m 588 -19 q 310 46 433 -19 q 117 226 188 111 q 47 486 47 342 q 117 746 47 631 q 310 926 188 861 q 588 992 433 992 q 865 926 742 992 q 1058 746 988 861 q 1128 486 1128 631 q 1058 226 1128 342 q 865 46 988 111 q 588 -19 742 -19 m 588 208 q 721 243 661 208 q 815 341 781 278 q 850 486 850 404 q 815 631 850 568 q 721 729 781 694 q 588 764 661 764 q 454 729 514 764 q 360 631 394 694 q 325 486 325 568 q 360 341 325 404 q 454 243 394 278 q 588 208 514 208 m 314 1204 l 861 1204 l 861 1068 l 314 1068 l 314 1204 m 603 1464 l 861 1464 l 638 1290 l 456 1290 l 603 1464 z "},"Ṑ":{"ha":1175,"x_min":47,"x_max":1128,"o":"m 588 -19 q 310 46 433 -19 q 117 226 188 111 q 47 486 47 342 q 117 746 47 631 q 310 926 188 861 q 588 992 433 992 q 865 926 742 992 q 1058 746 988 861 q 1128 486 1128 631 q 1058 226 1128 342 q 865 46 988 111 q 588 -19 742 -19 m 588 208 q 721 243 661 208 q 815 341 781 278 q 850 486 850 404 q 815 631 850 568 q 721 729 781 694 q 588 764 661 764 q 454 729 514 764 q 360 631 394 694 q 325 486 325 568 q 360 341 325 404 q 454 243 394 278 q 588 208 514 208 m 314 1204 l 861 1204 l 861 1068 l 314 1068 l 314 1204 m 314 1464 l 572 1464 l 719 1290 l 539 1290 l 314 1464 z "},"Ǫ":{"ha":1175,"x_min":47,"x_max":1128,"o":"m 768 7 q 581 -142 581 -53 q 601 -186 581 -169 q 657 -203 621 -203 q 740 -182 699 -203 l 774 -296 q 708 -319 749 -310 q 626 -328 667 -328 q 475 -283 529 -328 q 421 -165 421 -239 q 499 -14 421 -79 q 265 74 367 4 q 105 250 163 143 q 47 486 47 357 q 117 746 47 631 q 310 926 188 861 q 588 992 433 992 q 865 926 742 992 q 1058 746 988 861 q 1128 486 1128 631 q 1081 271 1128 368 q 953 106 1035 174 q 768 7 872 39 m 325 486 q 360 341 325 404 q 454 243 394 278 q 588 208 514 208 q 721 243 661 208 q 815 341 781 278 q 850 486 850 404 q 815 631 850 568 q 721 729 781 694 q 588 764 661 764 q 454 729 514 764 q 360 631 394 694 q 325 486 325 568 z "},"Ø":{"ha":1175,"x_min":47,"x_max":1128,"o":"m 588 -19 q 310 46 433 -19 q 117 226 188 111 q 47 486 47 342 q 117 746 47 631 q 310 926 188 861 q 588 992 433 992 q 865 926 742 992 q 1058 746 988 861 q 1128 486 1128 631 q 1058 226 1128 342 q 865 46 988 111 q 588 -19 742 -19 m 588 208 q 721 243 661 208 q 815 341 781 278 q 850 486 850 404 q 815 631 850 568 q 721 729 781 694 q 588 764 661 764 q 454 729 514 764 q 360 631 394 694 q 325 486 325 568 q 360 341 325 404 q 454 243 394 278 q 588 208 514 208 m 921 1069 l 1083 1069 l 254 -97 l 92 -97 l 921 1069 z "},"Ǿ":{"ha":1175,"x_min":47,"x_max":1128,"o":"m 588 -19 q 310 46 433 -19 q 117 226 188 111 q 47 486 47 342 q 117 746 47 631 q 310 926 188 861 q 588 992 433 992 q 865 926 742 992 q 1058 746 988 861 q 1128 486 1128 631 q 1058 226 1128 342 q 865 46 988 111 q 588 -19 742 -19 m 588 208 q 721 243 661 208 q 815 341 781 278 q 850 486 850 404 q 815 631 850 568 q 721 729 781 694 q 588 764 661 764 q 454 729 514 764 q 360 631 394 694 q 325 486 325 568 q 360 341 325 404 q 454 243 394 278 q 588 208 514 208 m 921 1069 l 1083 1069 l 254 -97 l 92 -97 l 921 1069 m 638 1263 l 901 1263 l 640 1051 l 451 1051 l 638 1263 z "},"Õ":{"ha":1175,"x_min":47,"x_max":1128,"o":"m 588 -19 q 310 46 433 -19 q 117 226 188 111 q 47 486 47 342 q 117 746 47 631 q 310 926 188 861 q 588 992 433 992 q 865 926 742 992 q 1058 746 988 861 q 1128 486 1128 631 q 1058 226 1128 342 q 865 46 988 111 q 588 -19 742 -19 m 588 208 q 721 243 661 208 q 815 341 781 278 q 850 486 850 404 q 815 631 850 568 q 721 729 781 694 q 588 764 661 764 q 454 729 514 764 q 360 631 394 694 q 325 486 325 568 q 360 341 325 404 q 454 243 394 278 q 588 208 514 208 m 696 1042 q 628 1056 658 1042 q 563 1096 599 1071 q 523 1121 536 1114 q 496 1128 510 1128 q 451 1108 468 1128 q 432 1054 435 1089 l 303 1054 q 353 1215 306 1156 q 479 1275 400 1275 q 546 1261 517 1275 q 613 1222 575 1247 q 652 1197 639 1204 q 679 1190 665 1190 q 724 1209 707 1190 q 743 1260 740 1228 l 872 1260 q 822 1101 869 1161 q 696 1042 775 1042 z "},"Ṍ":{"ha":1175,"x_min":47,"x_max":1128,"o":"m 588 -19 q 310 46 433 -19 q 117 226 188 111 q 47 486 47 342 q 117 746 47 631 q 310 926 188 861 q 588 992 433 992 q 865 926 742 992 q 1058 746 988 861 q 1128 486 1128 631 q 1058 226 1128 342 q 865 46 988 111 q 588 -19 742 -19 m 588 208 q 721 243 661 208 q 815 341 781 278 q 850 486 850 404 q 815 631 850 568 q 721 729 781 694 q 588 764 661 764 q 454 729 514 764 q 360 631 394 694 q 325 486 325 568 q 360 341 325 404 q 454 243 394 278 q 588 208 514 208 m 692 1043 q 622 1056 651 1043 q 557 1089 592 1068 q 526 1106 542 1099 q 500 1114 511 1114 q 458 1098 474 1114 q 440 1054 443 1082 l 308 1054 q 356 1194 310 1144 q 485 1243 403 1243 q 552 1231 522 1243 q 617 1197 582 1218 q 652 1178 639 1185 q 678 1172 665 1172 q 720 1189 704 1172 q 739 1232 736 1206 l 867 1232 q 819 1093 865 1143 q 692 1043 774 1043 m 603 1464 l 861 1464 l 638 1290 l 456 1290 l 603 1464 z "},"Ṏ":{"ha":1175,"x_min":47,"x_max":1128,"o":"m 588 -19 q 310 46 433 -19 q 117 226 188 111 q 47 486 47 342 q 117 746 47 631 q 310 926 188 861 q 588 992 433 992 q 865 926 742 992 q 1058 746 988 861 q 1128 486 1128 631 q 1058 226 1128 342 q 865 46 988 111 q 588 -19 742 -19 m 588 208 q 721 243 661 208 q 815 341 781 278 q 850 486 850 404 q 815 631 850 568 q 721 729 781 694 q 588 764 661 764 q 454 729 514 764 q 360 631 394 694 q 325 486 325 568 q 360 341 325 404 q 454 243 394 278 q 588 208 514 208 m 692 1043 q 622 1056 651 1043 q 557 1089 592 1068 q 526 1106 542 1099 q 500 1114 511 1114 q 458 1098 474 1114 q 440 1054 443 1082 l 308 1054 q 356 1194 310 1144 q 485 1243 403 1243 q 552 1231 522 1243 q 617 1197 582 1218 q 652 1178 639 1185 q 678 1172 665 1172 q 720 1189 704 1172 q 739 1232 736 1206 l 867 1232 q 819 1093 865 1143 q 692 1043 774 1043 m 446 1289 q 372 1317 401 1289 q 342 1392 342 1346 q 372 1467 342 1438 q 446 1496 401 1496 q 522 1467 492 1496 q 551 1392 551 1438 q 522 1317 551 1346 q 446 1289 492 1289 m 729 1289 q 655 1317 685 1289 q 625 1392 625 1346 q 655 1467 625 1438 q 729 1496 685 1496 q 803 1467 774 1496 q 833 1392 833 1438 q 803 1317 833 1346 q 729 1289 774 1289 z "},"Ȭ":{"ha":1175,"x_min":47,"x_max":1128,"o":"m 588 -19 q 310 46 433 -19 q 117 226 188 111 q 47 486 47 342 q 117 746 47 631 q 310 926 188 861 q 588 992 433 992 q 865 926 742 992 q 1058 746 988 861 q 1128 486 1128 631 q 1058 226 1128 342 q 865 46 988 111 q 588 -19 742 -19 m 588 208 q 721 243 661 208 q 815 341 781 278 q 850 486 850 404 q 815 631 850 568 q 721 729 781 694 q 588 764 661 764 q 454 729 514 764 q 360 631 394 694 q 325 486 325 568 q 360 341 325 404 q 454 243 394 278 q 588 208 514 208 m 692 1043 q 622 1056 651 1043 q 557 1089 592 1068 q 526 1106 542 1099 q 500 1114 511 1114 q 458 1098 474 1114 q 440 1054 443 1082 l 308 1054 q 356 1194 310 1144 q 485 1243 403 1243 q 552 1231 522 1243 q 617 1197 582 1218 q 652 1178 639 1185 q 678 1172 665 1172 q 720 1189 704 1172 q 739 1232 736 1206 l 867 1232 q 819 1093 865 1143 q 692 1043 774 1043 m 314 1443 l 861 1443 l 861 1307 l 314 1307 l 314 1443 z "},"Œ":{"ha":1586,"x_min":47,"x_max":1531,"o":"m 1531 213 l 1531 0 l 590 0 q 307 60 431 0 q 115 229 183 119 q 47 486 47 339 q 115 743 47 633 q 307 913 183 853 q 590 972 431 972 l 1513 972 l 1513 760 l 1022 760 l 1022 596 l 1454 596 l 1454 390 l 1022 390 l 1022 213 l 1531 213 m 751 219 l 751 753 l 601 753 q 401 682 476 753 q 325 486 325 611 q 401 290 325 361 q 601 219 476 219 l 751 219 z "},"P":{"ha":1024,"x_min":97,"x_max":974,"o":"m 542 972 q 771 928 674 972 q 921 803 868 885 q 974 613 974 722 q 921 422 974 503 q 771 298 868 342 q 542 254 674 254 l 372 254 l 372 0 l 97 0 l 97 972 l 542 972 m 525 471 q 653 508 610 471 q 696 613 696 544 q 653 718 696 681 q 525 756 610 756 l 372 756 l 372 471 l 525 471 z "},"Þ":{"ha":1024,"x_min":97,"x_max":974,"o":"m 542 872 q 771 828 674 872 q 921 703 868 785 q 974 513 974 622 q 921 322 974 403 q 771 197 868 240 q 542 153 674 153 l 372 153 l 372 0 l 97 0 l 97 974 l 372 974 l 372 872 l 542 872 m 525 371 q 653 408 610 371 q 696 513 696 444 q 653 617 696 581 q 525 654 610 654 l 372 654 l 372 371 l 525 371 z "},"Q":{"ha":1175,"x_min":47,"x_max":1128,"o":"m 1128 486 q 1077 262 1128 364 q 935 91 1026 160 q 725 -4 844 22 l 725 -187 l 450 -187 l 450 -4 q 240 91 331 22 q 98 262 149 160 q 47 486 47 364 q 117 746 47 631 q 310 926 188 861 q 588 992 433 992 q 865 926 742 992 q 1058 746 988 861 q 1128 486 1128 631 m 588 208 q 721 243 661 208 q 815 341 781 278 q 850 486 850 404 q 815 631 850 568 q 721 729 781 694 q 588 764 661 764 q 454 729 514 764 q 360 631 394 694 q 325 486 325 568 q 360 341 325 404 q 454 243 394 278 q 588 208 514 208 z "},"R":{"ha":1028,"x_min":97,"x_max":993,"o":"m 522 258 l 372 258 l 372 0 l 97 0 l 97 972 l 542 972 q 771 928 674 972 q 921 803 868 885 q 974 613 974 722 q 924 428 974 507 q 783 306 875 350 l 993 0 l 699 0 l 522 258 m 696 613 q 653 718 696 681 q 525 756 610 756 l 372 756 l 372 471 l 525 471 q 653 508 610 471 q 696 613 696 544 z "},"Ŕ":{"ha":1028,"x_min":97,"x_max":993,"o":"m 522 258 l 372 258 l 372 0 l 97 0 l 97 972 l 542 972 q 771 928 674 972 q 921 803 868 885 q 974 613 974 722 q 924 428 974 507 q 783 306 875 350 l 993 0 l 699 0 l 522 258 m 696 613 q 653 718 696 681 q 525 756 610 756 l 372 756 l 372 471 l 525 471 q 653 508 610 471 q 696 613 696 544 m 574 1263 l 838 1263 l 576 1051 l 388 1051 l 574 1263 z "},"Ř":{"ha":1028,"x_min":97,"x_max":993,"o":"m 522 258 l 372 258 l 372 0 l 97 0 l 97 972 l 542 972 q 771 928 674 972 q 921 803 868 885 q 974 613 974 722 q 924 428 974 507 q 783 306 875 350 l 993 0 l 699 0 l 522 258 m 696 613 q 653 718 696 681 q 525 756 610 756 l 372 756 l 372 471 l 525 471 q 653 508 610 471 q 696 613 696 544 m 818 1263 l 638 1051 l 410 1051 l 229 1263 l 404 1263 l 524 1157 l 643 1263 l 818 1263 z "},"Ŗ":{"ha":1028,"x_min":97,"x_max":993,"o":"m 522 258 l 372 258 l 372 0 l 97 0 l 97 972 l 542 972 q 771 928 674 972 q 921 803 868 885 q 974 613 974 722 q 924 428 974 507 q 783 306 875 350 l 993 0 l 699 0 l 522 258 m 696 613 q 653 718 696 681 q 525 756 610 756 l 372 756 l 372 471 l 525 471 q 653 508 610 471 q 696 613 696 544 m 524 -86 q 603 -112 574 -86 q 633 -179 633 -137 q 604 -279 633 -228 l 553 -372 l 433 -372 l 469 -262 q 414 -179 414 -242 q 444 -112 414 -137 q 524 -86 474 -86 z "},"Ȑ":{"ha":1028,"x_min":97,"x_max":993,"o":"m 522 258 l 372 258 l 372 0 l 97 0 l 97 972 l 542 972 q 771 928 674 972 q 921 803 868 885 q 974 613 974 722 q 924 428 974 507 q 783 306 875 350 l 993 0 l 699 0 l 522 258 m 696 613 q 653 718 696 681 q 525 756 610 756 l 372 756 l 372 471 l 525 471 q 653 508 610 471 q 696 613 696 544 m 142 1263 l 378 1263 l 464 1051 l 281 1051 l 142 1263 m 443 1263 l 679 1263 l 767 1051 l 583 1051 l 443 1263 z "},"Ṛ":{"ha":1028,"x_min":97,"x_max":993,"o":"m 522 258 l 372 258 l 372 0 l 97 0 l 97 972 l 542 972 q 771 928 674 972 q 921 803 868 885 q 974 613 974 722 q 924 428 974 507 q 783 306 875 350 l 993 0 l 699 0 l 522 258 m 696 613 q 653 718 696 681 q 525 756 610 756 l 372 756 l 372 471 l 525 471 q 653 508 610 471 q 696 613 696 544 m 524 -303 q 445 -274 476 -303 q 414 -196 414 -244 q 445 -117 414 -147 q 524 -86 476 -86 q 602 -117 571 -86 q 633 -196 633 -147 q 602 -274 633 -244 q 524 -303 571 -303 z "},"Ȓ":{"ha":1028,"x_min":97,"x_max":993,"o":"m 522 258 l 372 258 l 372 0 l 97 0 l 97 972 l 542 972 q 771 928 674 972 q 921 803 868 885 q 974 613 974 722 q 924 428 974 507 q 783 306 875 350 l 993 0 l 699 0 l 522 258 m 696 613 q 653 718 696 681 q 525 756 610 756 l 372 756 l 372 471 l 525 471 q 653 508 610 471 q 696 613 696 544 m 251 1051 q 331 1215 256 1154 q 524 1275 406 1275 q 717 1215 642 1275 q 796 1051 792 1154 l 635 1051 q 601 1118 633 1093 q 524 1143 569 1143 q 446 1118 478 1143 q 413 1051 414 1093 l 251 1051 z "},"Ṟ":{"ha":1028,"x_min":97,"x_max":993,"o":"m 522 258 l 372 258 l 372 0 l 97 0 l 97 972 l 542 972 q 771 928 674 972 q 921 803 868 885 q 974 613 974 722 q 924 428 974 507 q 783 306 875 350 l 993 0 l 699 0 l 522 258 m 696 613 q 653 718 696 681 q 525 756 610 756 l 372 756 l 372 471 l 525 471 q 653 508 610 471 q 696 613 696 544 m 250 -118 l 797 -118 l 797 -260 l 250 -260 l 250 -118 z "},"S":{"ha":899,"x_min":29,"x_max":869,"o":"m 439 -19 q 210 10 321 -19 q 29 88 99 39 l 119 290 q 271 221 185 247 q 440 194 357 194 q 599 274 599 194 q 553 335 599 315 q 408 378 508 356 q 225 428 299 401 q 99 515 151 456 q 46 676 46 575 q 94 837 46 765 q 240 950 143 908 q 476 992 336 992 q 665 970 572 992 q 829 907 758 949 l 744 703 q 475 778 606 778 q 356 753 393 778 q 318 690 318 729 q 363 632 318 651 q 506 592 407 613 q 690 541 617 568 q 816 455 763 514 q 869 294 869 396 q 821 136 869 207 q 675 23 772 65 q 439 -19 578 -19 z "},"Ś":{"ha":899,"x_min":29,"x_max":869,"o":"m 439 -19 q 210 10 321 -19 q 29 88 99 39 l 119 290 q 271 221 185 247 q 440 194 357 194 q 599 274 599 194 q 553 335 599 315 q 408 378 508 356 q 225 428 299 401 q 99 515 151 456 q 46 676 46 575 q 94 837 46 765 q 240 950 143 908 q 476 992 336 992 q 665 970 572 992 q 829 907 758 949 l 744 703 q 475 778 606 778 q 356 753 393 778 q 318 690 318 729 q 363 632 318 651 q 506 592 407 613 q 690 541 617 568 q 816 455 763 514 q 869 294 869 396 q 821 136 869 207 q 675 23 772 65 q 439 -19 578 -19 m 504 1263 l 768 1263 l 507 1051 l 318 1051 l 504 1263 z "},"Ṥ":{"ha":899,"x_min":29,"x_max":869,"o":"m 439 -19 q 210 10 321 -19 q 29 88 99 39 l 119 290 q 271 221 185 247 q 440 194 357 194 q 599 274 599 194 q 553 335 599 315 q 408 378 508 356 q 225 428 299 401 q 99 515 151 456 q 46 676 46 575 q 94 837 46 765 q 240 950 143 908 q 476 992 336 992 q 665 970 572 992 q 829 907 758 949 l 744 703 q 475 778 606 778 q 356 753 393 778 q 318 690 318 729 q 363 632 318 651 q 506 592 407 613 q 690 541 617 568 q 816 455 763 514 q 869 294 869 396 q 821 136 869 207 q 675 23 772 65 q 439 -19 578 -19 m 469 1225 l 728 1225 l 504 1051 l 322 1051 l 469 1225 m 454 1286 q 376 1316 407 1286 q 344 1394 344 1346 q 376 1472 344 1442 q 454 1503 407 1503 q 533 1472 501 1503 q 564 1394 564 1442 q 533 1316 564 1346 q 454 1286 501 1286 z "},"Ꞌ":{"ha":443,"x_min":86,"x_max":357,"o":"m 86 974 l 357 974 l 322 411 l 86 411 l 86 974 z "},"Š":{"ha":899,"x_min":29,"x_max":869,"o":"m 439 -19 q 210 10 321 -19 q 29 88 99 39 l 119 290 q 271 221 185 247 q 440 194 357 194 q 599 274 599 194 q 553 335 599 315 q 408 378 508 356 q 225 428 299 401 q 99 515 151 456 q 46 676 46 575 q 94 837 46 765 q 240 950 143 908 q 476 992 336 992 q 665 970 572 992 q 829 907 758 949 l 744 703 q 475 778 606 778 q 356 753 393 778 q 318 690 318 729 q 363 632 318 651 q 506 592 407 613 q 690 541 617 568 q 816 455 763 514 q 869 294 869 396 q 821 136 869 207 q 675 23 772 65 q 439 -19 578 -19 m 749 1263 l 568 1051 l 340 1051 l 160 1263 l 335 1263 l 454 1157 l 574 1263 l 749 1263 z "},"Ṧ":{"ha":899,"x_min":29,"x_max":869,"o":"m 439 -19 q 210 10 321 -19 q 29 88 99 39 l 119 290 q 271 221 185 247 q 440 194 357 194 q 599 274 599 194 q 553 335 599 315 q 408 378 508 356 q 225 428 299 401 q 99 515 151 456 q 46 676 46 575 q 94 837 46 765 q 240 950 143 908 q 476 992 336 992 q 665 970 572 992 q 829 907 758 949 l 744 703 q 475 778 606 778 q 356 753 393 778 q 318 690 318 729 q 363 632 318 651 q 506 592 407 613 q 690 541 617 568 q 816 455 763 514 q 869 294 869 396 q 821 136 869 207 q 675 23 772 65 q 439 -19 578 -19 m 749 1221 l 567 1051 l 342 1051 l 160 1221 l 336 1221 l 454 1139 l 572 1221 l 749 1221 m 454 1254 q 376 1284 407 1254 q 344 1363 344 1314 q 376 1440 344 1410 q 454 1471 407 1471 q 533 1440 501 1471 q 564 1363 564 1410 q 533 1284 564 1314 q 454 1254 501 1254 z "},"Ş":{"ha":899,"x_min":29,"x_max":869,"o":"m 439 -19 q 210 10 321 -19 q 29 88 99 39 l 119 290 q 271 221 185 247 q 440 194 357 194 q 599 274 599 194 q 553 335 599 315 q 408 378 508 356 q 225 428 299 401 q 99 515 151 456 q 46 676 46 575 q 94 837 46 765 q 240 950 143 908 q 476 992 336 992 q 665 970 572 992 q 829 907 758 949 l 744 703 q 475 778 606 778 q 356 753 393 778 q 318 690 318 729 q 363 632 318 651 q 506 592 407 613 q 690 541 617 568 q 816 455 763 514 q 869 294 869 396 q 821 136 869 207 q 675 23 772 65 q 439 -19 578 -19 m 403 -328 q 331 -319 368 -328 q 271 -299 294 -311 l 307 -194 q 393 -214 349 -214 q 463 -175 463 -214 q 400 -140 463 -140 l 349 -140 l 385 13 l 522 13 l 503 -71 q 593 -109 564 -78 q 622 -183 622 -140 q 563 -289 622 -250 q 403 -328 503 -328 z "},"Ŝ":{"ha":899,"x_min":29,"x_max":869,"o":"m 439 -19 q 210 10 321 -19 q 29 88 99 39 l 119 290 q 271 221 185 247 q 440 194 357 194 q 599 274 599 194 q 553 335 599 315 q 408 378 508 356 q 225 428 299 401 q 99 515 151 456 q 46 676 46 575 q 94 837 46 765 q 240 950 143 908 q 476 992 336 992 q 665 970 572 992 q 829 907 758 949 l 744 703 q 475 778 606 778 q 356 753 393 778 q 318 690 318 729 q 363 632 318 651 q 506 592 407 613 q 690 541 617 568 q 816 455 763 514 q 869 294 869 396 q 821 136 869 207 q 675 23 772 65 q 439 -19 578 -19 m 574 1051 l 454 1157 l 335 1051 l 160 1051 l 340 1263 l 568 1263 l 749 1051 l 574 1051 z "},"Ș":{"ha":899,"x_min":29,"x_max":869,"o":"m 439 -19 q 210 10 321 -19 q 29 88 99 39 l 119 290 q 271 221 185 247 q 440 194 357 194 q 599 274 599 194 q 553 335 599 315 q 408 378 508 356 q 225 428 299 401 q 99 515 151 456 q 46 676 46 575 q 94 837 46 765 q 240 950 143 908 q 476 992 336 992 q 665 970 572 992 q 829 907 758 949 l 744 703 q 475 778 606 778 q 356 753 393 778 q 318 690 318 729 q 363 632 318 651 q 506 592 407 613 q 690 541 617 568 q 816 455 763 514 q 869 294 869 396 q 821 136 869 207 q 675 23 772 65 q 439 -19 578 -19 m 454 -86 q 534 -112 504 -86 q 564 -179 564 -137 q 535 -279 564 -228 l 483 -372 l 364 -372 l 400 -262 q 344 -179 344 -242 q 374 -112 344 -137 q 454 -86 404 -86 z "},"Ṡ":{"ha":899,"x_min":29,"x_max":869,"o":"m 439 -19 q 210 10 321 -19 q 29 88 99 39 l 119 290 q 271 221 185 247 q 440 194 357 194 q 599 274 599 194 q 553 335 599 315 q 408 378 508 356 q 225 428 299 401 q 99 515 151 456 q 46 676 46 575 q 94 837 46 765 q 240 950 143 908 q 476 992 336 992 q 665 970 572 992 q 829 907 758 949 l 744 703 q 475 778 606 778 q 356 753 393 778 q 318 690 318 729 q 363 632 318 651 q 506 592 407 613 q 690 541 617 568 q 816 455 763 514 q 869 294 869 396 q 821 136 869 207 q 675 23 772 65 q 439 -19 578 -19 m 454 1049 q 355 1088 393 1049 q 317 1186 317 1126 q 356 1284 317 1246 q 454 1322 394 1322 q 553 1284 514 1322 q 592 1186 592 1246 q 553 1088 592 1126 q 454 1049 514 1049 z "},"Ṣ":{"ha":899,"x_min":29,"x_max":869,"o":"m 439 -19 q 210 10 321 -19 q 29 88 99 39 l 119 290 q 271 221 185 247 q 440 194 357 194 q 599 274 599 194 q 553 335 599 315 q 408 378 508 356 q 225 428 299 401 q 99 515 151 456 q 46 676 46 575 q 94 837 46 765 q 240 950 143 908 q 476 992 336 992 q 665 970 572 992 q 829 907 758 949 l 744 703 q 475 778 606 778 q 356 753 393 778 q 318 690 318 729 q 363 632 318 651 q 506 592 407 613 q 690 541 617 568 q 816 455 763 514 q 869 294 869 396 q 821 136 869 207 q 675 23 772 65 q 439 -19 578 -19 m 454 -303 q 376 -274 407 -303 q 344 -196 344 -244 q 376 -117 344 -147 q 454 -86 407 -86 q 533 -117 501 -86 q 564 -196 564 -147 q 533 -274 564 -244 q 454 -303 501 -303 z "},"Ṩ":{"ha":899,"x_min":29,"x_max":869,"o":"m 439 -19 q 210 10 321 -19 q 29 88 99 39 l 119 290 q 271 221 185 247 q 440 194 357 194 q 599 274 599 194 q 553 335 599 315 q 408 378 508 356 q 225 428 299 401 q 99 515 151 456 q 46 676 46 575 q 94 837 46 765 q 240 950 143 908 q 476 992 336 992 q 665 970 572 992 q 829 907 758 949 l 744 703 q 475 778 606 778 q 356 753 393 778 q 318 690 318 729 q 363 632 318 651 q 506 592 407 613 q 690 541 617 568 q 816 455 763 514 q 869 294 869 396 q 821 136 869 207 q 675 23 772 65 q 439 -19 578 -19 m 454 -303 q 376 -274 407 -303 q 344 -196 344 -244 q 376 -117 344 -147 q 454 -86 407 -86 q 533 -117 501 -86 q 564 -196 564 -147 q 533 -274 564 -244 q 454 -303 501 -303 m 454 1049 q 355 1088 393 1049 q 317 1186 317 1126 q 356 1284 317 1246 q 454 1322 394 1322 q 553 1284 514 1322 q 592 1186 592 1246 q 553 1088 592 1126 q 454 1049 514 1049 z "},"ẞ":{"ha":1094,"x_min":89,"x_max":1050,"o":"m 814 582 q 985 476 919 553 q 1050 290 1050 400 q 1001 124 1050 194 q 867 17 951 54 q 678 -19 782 -19 q 464 14 550 -19 l 503 224 q 565 202 529 210 q 633 194 600 194 q 736 222 701 194 q 771 301 771 249 q 736 380 771 353 q 635 407 701 407 q 540 393 585 407 l 493 507 l 714 763 q 594 778 656 778 q 423 713 482 778 q 364 529 364 649 l 364 0 l 89 0 l 89 536 q 148 779 89 676 q 319 937 207 882 q 590 992 432 992 q 785 967 686 992 q 950 900 885 943 l 950 739 l 814 582 z "},"Ə":{"ha":1136,"x_min":67,"x_max":1088,"o":"m 547 992 q 827 927 704 992 q 1019 747 950 863 q 1088 486 1088 632 q 1020 225 1088 340 q 835 45 953 110 q 568 -19 717 -19 q 245 80 379 -19 q 67 350 111 179 l 776 635 q 682 729 743 694 q 544 764 621 764 q 401 733 475 764 q 279 650 326 703 l 117 822 q 304 944 188 897 q 547 992 421 992 m 568 189 q 747 258 683 189 q 811 447 811 328 l 811 463 l 374 285 q 568 189 426 189 z "},"T":{"ha":917,"x_min":-19,"x_max":936,"o":"m 844 667 q 596 757 722 735 l 596 0 l 321 0 l 321 757 q 72 667 192 735 l -19 867 q 205 960 82 928 q 458 992 328 992 q 712 960 589 992 q 936 867 835 928 l 844 667 z "},"Ŧ":{"ha":917,"x_min":-19,"x_max":936,"o":"m 844 667 q 596 757 722 735 l 596 0 l 321 0 l 321 757 q 72 667 192 735 l -19 867 q 205 960 82 928 q 458 992 328 992 q 712 960 589 992 q 936 867 835 928 l 844 667 m 144 513 l 769 513 l 769 343 l 144 343 l 144 513 z "},"Ť":{"ha":917,"x_min":-19,"x_max":936,"o":"m 844 667 q 596 757 722 735 l 596 0 l 321 0 l 321 757 q 72 667 192 735 l -19 867 q 205 960 82 928 q 458 992 328 992 q 712 960 589 992 q 936 867 835 928 l 844 667 m 758 1264 l 578 1053 l 350 1053 l 169 1264 l 344 1264 l 464 1158 l 583 1264 l 758 1264 z "},"Ţ":{"ha":917,"x_min":-19,"x_max":936,"o":"m 844 667 q 596 757 722 735 l 596 0 l 321 0 l 321 757 q 72 667 192 735 l -19 867 q 205 960 82 928 q 458 992 328 992 q 712 960 589 992 q 936 867 835 928 l 844 667 m 407 -328 q 335 -319 372 -328 q 275 -299 299 -311 l 311 -194 q 397 -214 353 -214 q 467 -175 467 -214 q 404 -140 467 -140 l 353 -140 l 389 13 l 526 13 l 507 -71 q 597 -109 568 -78 q 626 -183 626 -140 q 567 -289 626 -250 q 407 -328 507 -328 z "},"Ț":{"ha":917,"x_min":-19,"x_max":936,"o":"m 844 667 q 596 757 722 735 l 596 0 l 321 0 l 321 757 q 72 667 192 735 l -19 867 q 205 960 82 928 q 458 992 328 992 q 712 960 589 992 q 936 867 835 928 l 844 667 m 458 -86 q 538 -112 508 -86 q 568 -179 568 -137 q 539 -279 568 -228 l 488 -372 l 368 -372 l 404 -262 q 349 -179 349 -242 q 378 -112 349 -137 q 458 -86 408 -86 z "},"Ṭ":{"ha":917,"x_min":-19,"x_max":936,"o":"m 844 667 q 596 757 722 735 l 596 0 l 321 0 l 321 757 q 72 667 192 735 l -19 867 q 205 960 82 928 q 458 992 328 992 q 712 960 589 992 q 936 867 835 928 l 844 667 m 458 -303 q 380 -274 411 -303 q 349 -196 349 -244 q 380 -117 349 -147 q 458 -86 411 -86 q 537 -117 506 -86 q 568 -196 568 -147 q 537 -274 568 -244 q 458 -303 506 -303 z "},"Ṯ":{"ha":917,"x_min":-19,"x_max":936,"o":"m 844 667 q 596 757 722 735 l 596 0 l 321 0 l 321 757 q 72 667 192 735 l -19 867 q 205 960 82 928 q 458 992 328 992 q 712 960 589 992 q 936 867 835 928 l 844 667 m 185 -118 l 732 -118 l 732 -260 l 185 -260 l 185 -118 z "},"U":{"ha":1099,"x_min":89,"x_max":1001,"o":"m 1001 972 l 1001 0 l 735 0 l 735 111 q 615 14 688 47 q 453 -19 543 -19 q 185 91 281 -19 q 89 406 89 201 l 89 972 l 364 972 l 364 414 q 410 260 364 311 q 538 208 457 208 q 674 264 622 208 q 726 428 726 319 l 726 972 l 1001 972 z "},"Ú":{"ha":1099,"x_min":89,"x_max":1001,"o":"m 1001 972 l 1001 0 l 735 0 l 735 111 q 615 14 688 47 q 453 -19 543 -19 q 185 91 281 -19 q 89 406 89 201 l 89 972 l 364 972 l 364 414 q 410 260 364 311 q 538 208 457 208 q 674 264 622 208 q 726 428 726 319 l 726 972 l 1001 972 m 593 1263 l 857 1263 l 596 1051 l 407 1051 l 593 1263 z "},"Ŭ":{"ha":1099,"x_min":89,"x_max":1001,"o":"m 1001 972 l 1001 0 l 735 0 l 735 111 q 615 14 688 47 q 453 -19 543 -19 q 185 91 281 -19 q 89 406 89 201 l 89 972 l 364 972 l 364 414 q 410 260 364 311 q 538 208 457 208 q 674 264 622 208 q 726 428 726 319 l 726 972 l 1001 972 m 543 1039 q 350 1099 425 1039 q 271 1263 275 1160 l 432 1263 q 465 1196 433 1221 q 543 1171 497 1171 q 621 1196 589 1171 q 654 1263 653 1221 l 815 1263 q 736 1099 811 1160 q 543 1039 661 1039 z "},"Ǔ":{"ha":1099,"x_min":89,"x_max":1001,"o":"m 1001 972 l 1001 0 l 735 0 l 735 111 q 615 14 688 47 q 453 -19 543 -19 q 185 91 281 -19 q 89 406 89 201 l 89 972 l 364 972 l 364 414 q 410 260 364 311 q 538 208 457 208 q 674 264 622 208 q 726 428 726 319 l 726 972 l 1001 972 m 838 1263 l 657 1051 l 429 1051 l 249 1263 l 424 1263 l 543 1157 l 663 1263 l 838 1263 z "},"Û":{"ha":1099,"x_min":89,"x_max":1001,"o":"m 1001 972 l 1001 0 l 735 0 l 735 111 q 615 14 688 47 q 453 -19 543 -19 q 185 91 281 -19 q 89 406 89 201 l 89 972 l 364 972 l 364 414 q 410 260 364 311 q 538 208 457 208 q 674 264 622 208 q 726 428 726 319 l 726 972 l 1001 972 m 663 1051 l 543 1157 l 424 1051 l 249 1051 l 429 1263 l 657 1263 l 838 1051 l 663 1051 z "},"Ȕ":{"ha":1099,"x_min":89,"x_max":1001,"o":"m 1001 972 l 1001 0 l 735 0 l 735 111 q 615 14 688 47 q 453 -19 543 -19 q 185 91 281 -19 q 89 406 89 201 l 89 972 l 364 972 l 364 414 q 410 260 364 311 q 538 208 457 208 q 674 264 622 208 q 726 428 726 319 l 726 972 l 1001 972 m 161 1263 l 397 1263 l 483 1051 l 300 1051 l 161 1263 m 463 1263 l 699 1263 l 786 1051 l 603 1051 l 463 1263 z "},"Ü":{"ha":1099,"x_min":89,"x_max":1001,"o":"m 1001 972 l 1001 0 l 735 0 l 735 111 q 615 14 688 47 q 453 -19 543 -19 q 185 91 281 -19 q 89 406 89 201 l 89 972 l 364 972 l 364 414 q 410 260 364 311 q 538 208 457 208 q 674 264 622 208 q 726 428 726 319 l 726 972 l 1001 972 m 396 1050 q 317 1080 349 1050 q 286 1158 286 1110 q 317 1238 286 1207 q 396 1268 349 1268 q 474 1238 443 1268 q 506 1158 506 1207 q 474 1080 506 1110 q 396 1050 443 1050 m 690 1050 q 612 1080 643 1050 q 581 1158 581 1110 q 612 1238 581 1207 q 690 1268 643 1268 q 769 1238 738 1268 q 800 1158 800 1207 q 769 1080 800 1110 q 690 1050 738 1050 z "},"Ụ":{"ha":1099,"x_min":89,"x_max":1001,"o":"m 1001 972 l 1001 0 l 735 0 l 735 111 q 615 14 688 47 q 453 -19 543 -19 q 185 91 281 -19 q 89 406 89 201 l 89 972 l 364 972 l 364 414 q 410 260 364 311 q 538 208 457 208 q 674 264 622 208 q 726 428 726 319 l 726 972 l 1001 972 m 543 -303 q 465 -274 496 -303 q 433 -196 433 -244 q 465 -117 433 -147 q 543 -86 496 -86 q 622 -117 590 -86 q 653 -196 653 -147 q 622 -274 653 -244 q 543 -303 590 -303 z "},"Ù":{"ha":1099,"x_min":89,"x_max":1001,"o":"m 1001 972 l 1001 0 l 735 0 l 735 111 q 615 14 688 47 q 453 -19 543 -19 q 185 91 281 -19 q 89 406 89 201 l 89 972 l 364 972 l 364 414 q 410 260 364 311 q 538 208 457 208 q 674 264 622 208 q 726 428 726 319 l 726 972 l 1001 972 m 229 1263 l 493 1263 l 679 1051 l 490 1051 l 229 1263 z "},"Ủ":{"ha":1099,"x_min":89,"x_max":1001,"o":"m 1001 972 l 1001 0 l 735 0 l 735 111 q 615 14 688 47 q 453 -19 543 -19 q 185 91 281 -19 q 89 406 89 201 l 89 972 l 364 972 l 364 414 q 410 260 364 311 q 538 208 457 208 q 674 264 622 208 q 726 428 726 319 l 726 972 l 1001 972 m 513 1118 q 565 1156 550 1136 q 581 1199 581 1175 q 563 1240 581 1225 q 518 1254 546 1254 q 438 1226 478 1254 l 383 1329 q 458 1367 415 1354 q 547 1381 501 1381 q 678 1336 628 1381 q 729 1221 729 1292 q 593 1038 729 1099 l 513 1118 z "},"Ư":{"ha":1099,"x_min":89,"x_max":1144,"o":"m 1001 972 l 1001 0 l 735 0 l 735 111 q 615 14 688 47 q 453 -19 543 -19 q 185 91 281 -19 q 89 406 89 201 l 89 972 l 364 972 l 364 414 q 410 260 364 311 q 538 208 457 208 q 674 264 622 208 q 726 428 726 319 l 726 972 l 1001 972 m 844 972 l 892 972 q 948 997 925 972 q 971 1060 971 1022 q 963 1103 971 1082 q 943 1140 956 1125 l 1096 1194 q 1144 1049 1144 1135 q 1075 869 1144 933 q 882 806 1006 806 l 844 806 l 844 972 z "},"Ứ":{"ha":1099,"x_min":89,"x_max":1144,"o":"m 1001 972 l 1001 0 l 735 0 l 735 111 q 615 14 688 47 q 453 -19 543 -19 q 185 91 281 -19 q 89 406 89 201 l 89 972 l 364 972 l 364 414 q 410 260 364 311 q 538 208 457 208 q 674 264 622 208 q 726 428 726 319 l 726 972 l 1001 972 m 844 972 l 892 972 q 948 997 925 972 q 971 1060 971 1022 q 963 1103 971 1082 q 943 1140 956 1125 l 1096 1194 q 1144 1049 1144 1135 q 1075 869 1144 933 q 882 806 1006 806 l 844 806 l 844 972 m 593 1263 l 857 1263 l 596 1051 l 407 1051 l 593 1263 z "},"Ự":{"ha":1099,"x_min":89,"x_max":1144,"o":"m 1001 972 l 1001 0 l 735 0 l 735 111 q 615 14 688 47 q 453 -19 543 -19 q 185 91 281 -19 q 89 406 89 201 l 89 972 l 364 972 l 364 414 q 410 260 364 311 q 538 208 457 208 q 674 264 622 208 q 726 428 726 319 l 726 972 l 1001 972 m 844 972 l 892 972 q 948 997 925 972 q 971 1060 971 1022 q 963 1103 971 1082 q 943 1140 956 1125 l 1096 1194 q 1144 1049 1144 1135 q 1075 869 1144 933 q 882 806 1006 806 l 844 806 l 844 972 m 543 -303 q 465 -274 496 -303 q 433 -196 433 -244 q 465 -117 433 -147 q 543 -86 496 -86 q 622 -117 590 -86 q 653 -196 653 -147 q 622 -274 653 -244 q 543 -303 590 -303 z "},"Ừ":{"ha":1099,"x_min":89,"x_max":1144,"o":"m 1001 972 l 1001 0 l 735 0 l 735 111 q 615 14 688 47 q 453 -19 543 -19 q 185 91 281 -19 q 89 406 89 201 l 89 972 l 364 972 l 364 414 q 410 260 364 311 q 538 208 457 208 q 674 264 622 208 q 726 428 726 319 l 726 972 l 1001 972 m 844 972 l 892 972 q 948 997 925 972 q 971 1060 971 1022 q 963 1103 971 1082 q 943 1140 956 1125 l 1096 1194 q 1144 1049 1144 1135 q 1075 869 1144 933 q 882 806 1006 806 l 844 806 l 844 972 m 229 1263 l 493 1263 l 679 1051 l 490 1051 l 229 1263 z "},"Ử":{"ha":1099,"x_min":89,"x_max":1144,"o":"m 1001 972 l 1001 0 l 735 0 l 735 111 q 615 14 688 47 q 453 -19 543 -19 q 185 91 281 -19 q 89 406 89 201 l 89 972 l 364 972 l 364 414 q 410 260 364 311 q 538 208 457 208 q 674 264 622 208 q 726 428 726 319 l 726 972 l 1001 972 m 844 972 l 892 972 q 948 997 925 972 q 971 1060 971 1022 q 963 1103 971 1082 q 943 1140 956 1125 l 1096 1194 q 1144 1049 1144 1135 q 1075 869 1144 933 q 882 806 1006 806 l 844 806 l 844 972 m 513 1118 q 565 1156 550 1136 q 581 1199 581 1175 q 563 1240 581 1225 q 518 1254 546 1254 q 438 1226 478 1254 l 383 1329 q 458 1367 415 1354 q 547 1381 501 1381 q 678 1336 628 1381 q 729 1221 729 1292 q 593 1038 729 1099 l 513 1118 z "},"Ữ":{"ha":1099,"x_min":89,"x_max":1144,"o":"m 1001 972 l 1001 0 l 735 0 l 735 111 q 615 14 688 47 q 453 -19 543 -19 q 185 91 281 -19 q 89 406 89 201 l 89 972 l 364 972 l 364 414 q 410 260 364 311 q 538 208 457 208 q 674 264 622 208 q 726 428 726 319 l 726 972 l 1001 972 m 844 972 l 892 972 q 948 997 925 972 q 971 1060 971 1022 q 963 1103 971 1082 q 943 1140 956 1125 l 1096 1194 q 1144 1049 1144 1135 q 1075 869 1144 933 q 882 806 1006 806 l 844 806 l 844 972 m 651 1042 q 584 1056 614 1042 q 518 1096 554 1071 q 478 1121 492 1114 q 451 1128 465 1128 q 407 1108 424 1128 q 388 1054 390 1089 l 258 1054 q 308 1215 261 1156 q 435 1275 356 1275 q 501 1261 472 1275 q 568 1222 531 1247 q 608 1197 594 1204 q 635 1190 621 1190 q 679 1209 663 1190 q 699 1260 696 1228 l 828 1260 q 778 1101 825 1161 q 651 1042 731 1042 z "},"Ű":{"ha":1099,"x_min":89,"x_max":1001,"o":"m 1001 972 l 1001 0 l 735 0 l 735 111 q 615 14 688 47 q 453 -19 543 -19 q 185 91 281 -19 q 89 406 89 201 l 89 972 l 364 972 l 364 414 q 410 260 364 311 q 538 208 457 208 q 674 264 622 208 q 726 428 726 319 l 726 972 l 1001 972 m 388 1263 l 624 1263 l 483 1051 l 300 1051 l 388 1263 m 689 1263 l 925 1263 l 786 1051 l 603 1051 l 689 1263 z "},"Ȗ":{"ha":1099,"x_min":89,"x_max":1001,"o":"m 1001 972 l 1001 0 l 735 0 l 735 111 q 615 14 688 47 q 453 -19 543 -19 q 185 91 281 -19 q 89 406 89 201 l 89 972 l 364 972 l 364 414 q 410 260 364 311 q 538 208 457 208 q 674 264 622 208 q 726 428 726 319 l 726 972 l 1001 972 m 271 1051 q 350 1215 275 1154 q 543 1275 425 1275 q 736 1215 661 1275 q 815 1051 811 1154 l 654 1051 q 621 1118 653 1093 q 543 1143 589 1143 q 465 1118 497 1143 q 432 1051 433 1093 l 271 1051 z "},"Ū":{"ha":1099,"x_min":89,"x_max":1001,"o":"m 1001 972 l 1001 0 l 735 0 l 735 111 q 615 14 688 47 q 453 -19 543 -19 q 185 91 281 -19 q 89 406 89 201 l 89 972 l 364 972 l 364 414 q 410 260 364 311 q 538 208 457 208 q 674 264 622 208 q 726 428 726 319 l 726 972 l 1001 972 m 269 1228 l 817 1228 l 817 1086 l 269 1086 l 269 1228 z "},"Ṻ":{"ha":1099,"x_min":89,"x_max":1001,"o":"m 1001 972 l 1001 0 l 735 0 l 735 111 q 615 14 688 47 q 453 -19 543 -19 q 185 91 281 -19 q 89 406 89 201 l 89 972 l 364 972 l 364 414 q 410 260 364 311 q 538 208 457 208 q 674 264 622 208 q 726 428 726 319 l 726 972 l 1001 972 m 269 1204 l 817 1204 l 817 1068 l 269 1068 l 269 1204 m 401 1289 q 327 1317 357 1289 q 297 1392 297 1346 q 327 1467 297 1438 q 401 1496 357 1496 q 477 1467 447 1496 q 507 1392 507 1438 q 477 1317 507 1346 q 401 1289 447 1289 m 685 1289 q 610 1317 640 1289 q 581 1392 581 1346 q 610 1467 581 1438 q 685 1496 640 1496 q 759 1467 729 1496 q 789 1392 789 1438 q 759 1317 789 1346 q 685 1289 729 1289 z "},"Ų":{"ha":1099,"x_min":89,"x_max":1036,"o":"m 1001 972 l 1001 0 l 735 0 l 735 111 q 615 14 688 47 q 453 -19 543 -19 q 185 91 281 -19 q 89 406 89 201 l 89 972 l 364 972 l 364 414 q 410 260 364 311 q 538 208 457 208 q 674 264 622 208 q 726 428 726 319 l 726 972 l 1001 972 m 888 -328 q 736 -283 790 -328 q 682 -165 682 -239 q 738 -34 682 -93 q 904 63 794 25 l 1001 0 q 878 -72 914 -39 q 842 -142 842 -106 q 862 -186 842 -169 q 918 -203 882 -203 q 1001 -182 963 -203 l 1036 -296 q 969 -319 1010 -310 q 888 -328 928 -328 z "},"Ů":{"ha":1099,"x_min":89,"x_max":1001,"o":"m 1001 972 l 1001 0 l 735 0 l 735 111 q 615 14 688 47 q 453 -19 543 -19 q 185 91 281 -19 q 89 406 89 201 l 89 972 l 364 972 l 364 414 q 410 260 364 311 q 538 208 457 208 q 674 264 622 208 q 726 428 726 319 l 726 972 l 1001 972 m 543 1040 q 413 1092 465 1040 q 360 1217 360 1143 q 413 1343 360 1292 q 543 1394 465 1394 q 635 1371 593 1394 q 702 1306 678 1347 q 726 1217 726 1265 q 673 1092 726 1143 q 543 1040 619 1040 m 543 1138 q 599 1160 576 1138 q 622 1217 622 1182 q 599 1274 622 1251 q 543 1297 576 1297 q 487 1274 510 1297 q 464 1217 464 1251 q 487 1160 464 1182 q 543 1138 510 1138 z "},"Ũ":{"ha":1099,"x_min":89,"x_max":1001,"o":"m 1001 972 l 1001 0 l 735 0 l 735 111 q 615 14 688 47 q 453 -19 543 -19 q 185 91 281 -19 q 89 406 89 201 l 89 972 l 364 972 l 364 414 q 410 260 364 311 q 538 208 457 208 q 674 264 622 208 q 726 428 726 319 l 726 972 l 1001 972 m 651 1042 q 584 1056 614 1042 q 518 1096 554 1071 q 478 1121 492 1114 q 451 1128 465 1128 q 407 1108 424 1128 q 388 1054 390 1089 l 258 1054 q 308 1215 261 1156 q 435 1275 356 1275 q 501 1261 472 1275 q 568 1222 531 1247 q 608 1197 594 1204 q 635 1190 621 1190 q 679 1209 663 1190 q 699 1260 696 1228 l 828 1260 q 778 1101 825 1161 q 651 1042 731 1042 z "},"Ṹ":{"ha":1099,"x_min":89,"x_max":1001,"o":"m 1001 972 l 1001 0 l 735 0 l 735 111 q 615 14 688 47 q 453 -19 543 -19 q 185 91 281 -19 q 89 406 89 201 l 89 972 l 364 972 l 364 414 q 410 260 364 311 q 538 208 457 208 q 674 264 622 208 q 726 428 726 319 l 726 972 l 1001 972 m 647 1043 q 577 1056 607 1043 q 513 1089 547 1068 q 482 1106 497 1099 q 456 1114 467 1114 q 414 1098 429 1114 q 396 1054 399 1082 l 264 1054 q 312 1194 265 1144 q 440 1243 358 1243 q 508 1231 478 1243 q 572 1197 538 1218 q 608 1178 594 1185 q 633 1172 621 1172 q 676 1189 660 1172 q 694 1232 692 1206 l 822 1232 q 775 1093 821 1143 q 647 1043 729 1043 m 558 1464 l 817 1464 l 593 1290 l 411 1290 l 558 1464 z "},"V":{"ha":1064,"x_min":-19,"x_max":1083,"o":"m 1083 972 l 667 0 l 396 0 l -19 972 l 278 972 l 542 339 l 811 972 l 1083 972 z "},"W":{"ha":1683,"x_min":89,"x_max":1593,"o":"m 1593 972 l 1593 404 q 1476 90 1593 199 q 1144 -19 1358 -19 q 972 7 1049 -19 q 842 82 894 33 q 712 7 789 33 q 538 -19 635 -19 q 207 90 325 -19 q 89 404 89 200 l 89 972 l 364 972 l 364 413 q 406 258 364 308 q 533 208 449 208 q 660 258 618 208 q 703 413 703 308 l 703 972 l 978 972 l 978 413 q 1021 258 978 308 q 1150 208 1064 208 q 1276 258 1235 208 q 1318 413 1318 308 l 1318 972 l 1593 972 z "},"Ẃ":{"ha":1683,"x_min":89,"x_max":1593,"o":"m 1593 972 l 1593 404 q 1476 90 1593 199 q 1144 -19 1358 -19 q 972 7 1049 -19 q 842 82 894 33 q 712 7 789 33 q 538 -19 635 -19 q 207 90 325 -19 q 89 404 89 200 l 89 972 l 364 972 l 364 413 q 406 258 364 308 q 533 208 449 208 q 660 258 618 208 q 703 413 703 308 l 703 972 l 978 972 l 978 413 q 1021 258 978 308 q 1150 208 1064 208 q 1276 258 1235 208 q 1318 413 1318 308 l 1318 972 l 1593 972 m 890 1263 l 1154 1263 l 893 1051 l 704 1051 l 890 1263 z "},"Ŵ":{"ha":1683,"x_min":89,"x_max":1593,"o":"m 1593 972 l 1593 404 q 1476 90 1593 199 q 1144 -19 1358 -19 q 972 7 1049 -19 q 842 82 894 33 q 712 7 789 33 q 538 -19 635 -19 q 207 90 325 -19 q 89 404 89 200 l 89 972 l 364 972 l 364 413 q 406 258 364 308 q 533 208 449 208 q 660 258 618 208 q 703 413 703 308 l 703 972 l 978 972 l 978 413 q 1021 258 978 308 q 1150 208 1064 208 q 1276 258 1235 208 q 1318 413 1318 308 l 1318 972 l 1593 972 m 960 1051 l 840 1157 l 721 1051 l 546 1051 l 726 1263 l 954 1263 l 1135 1051 l 960 1051 z "},"Ẅ":{"ha":1683,"x_min":89,"x_max":1593,"o":"m 1593 972 l 1593 404 q 1476 90 1593 199 q 1144 -19 1358 -19 q 972 7 1049 -19 q 842 82 894 33 q 712 7 789 33 q 538 -19 635 -19 q 207 90 325 -19 q 89 404 89 200 l 89 972 l 364 972 l 364 413 q 406 258 364 308 q 533 208 449 208 q 660 258 618 208 q 703 413 703 308 l 703 972 l 978 972 l 978 413 q 1021 258 978 308 q 1150 208 1064 208 q 1276 258 1235 208 q 1318 413 1318 308 l 1318 972 l 1593 972 m 693 1050 q 615 1080 646 1050 q 583 1158 583 1110 q 615 1238 583 1207 q 693 1268 646 1268 q 772 1238 740 1268 q 803 1158 803 1207 q 772 1080 803 1110 q 693 1050 740 1050 m 988 1050 q 909 1080 940 1050 q 878 1158 878 1110 q 909 1238 878 1207 q 988 1268 940 1268 q 1066 1238 1035 1268 q 1097 1158 1097 1207 q 1066 1080 1097 1110 q 988 1050 1035 1050 z "},"Ẁ":{"ha":1683,"x_min":89,"x_max":1593,"o":"m 1593 972 l 1593 404 q 1476 90 1593 199 q 1144 -19 1358 -19 q 972 7 1049 -19 q 842 82 894 33 q 712 7 789 33 q 538 -19 635 -19 q 207 90 325 -19 q 89 404 89 200 l 89 972 l 364 972 l 364 413 q 406 258 364 308 q 533 208 449 208 q 660 258 618 208 q 703 413 703 308 l 703 972 l 978 972 l 978 413 q 1021 258 978 308 q 1150 208 1064 208 q 1276 258 1235 208 q 1318 413 1318 308 l 1318 972 l 1593 972 m 526 1263 l 790 1263 l 976 1051 l 788 1051 l 526 1263 z "},"X":{"ha":1024,"x_min":-3,"x_max":1028,"o":"m 711 0 l 510 301 l 311 0 l -3 0 l 351 492 l 13 972 l 322 972 l 517 692 l 708 972 l 1006 972 l 667 503 l 1028 0 l 711 0 z "},"Y":{"ha":1089,"x_min":82,"x_max":1000,"o":"m 1000 972 l 1000 313 q 942 60 1000 165 q 776 -98 883 -44 q 521 -151 668 -151 q 287 -119 392 -151 q 107 -26 182 -86 l 210 172 q 353 99 276 124 q 510 74 429 74 q 673 128 621 74 q 725 297 725 182 l 725 342 q 463 229 632 229 q 181 334 279 229 q 82 635 82 439 l 82 972 l 357 972 l 357 653 q 402 505 357 554 q 533 456 447 456 q 673 507 621 456 q 725 667 725 558 l 725 972 l 1000 972 z "},"Ý":{"ha":1089,"x_min":82,"x_max":1000,"o":"m 1000 972 l 1000 313 q 942 60 1000 165 q 776 -98 883 -44 q 521 -151 668 -151 q 287 -119 392 -151 q 107 -26 182 -86 l 210 172 q 353 99 276 124 q 510 74 429 74 q 673 128 621 74 q 725 297 725 182 l 725 342 q 463 229 632 229 q 181 334 279 229 q 82 635 82 439 l 82 972 l 357 972 l 357 653 q 402 505 357 554 q 533 456 447 456 q 673 507 621 456 q 725 667 725 558 l 725 972 l 1000 972 m 592 1263 l 856 1263 l 594 1051 l 406 1051 l 592 1263 z "},"Ŷ":{"ha":1089,"x_min":82,"x_max":1000,"o":"m 1000 972 l 1000 313 q 942 60 1000 165 q 776 -98 883 -44 q 521 -151 668 -151 q 287 -119 392 -151 q 107 -26 182 -86 l 210 172 q 353 99 276 124 q 510 74 429 74 q 673 128 621 74 q 725 297 725 182 l 725 342 q 463 229 632 229 q 181 334 279 229 q 82 635 82 439 l 82 972 l 357 972 l 357 653 q 402 505 357 554 q 533 456 447 456 q 673 507 621 456 q 725 667 725 558 l 725 972 l 1000 972 m 661 1051 l 542 1157 l 422 1051 l 247 1051 l 428 1263 l 656 1263 l 836 1051 l 661 1051 z "},"Ÿ":{"ha":1089,"x_min":82,"x_max":1000,"o":"m 1000 972 l 1000 313 q 942 60 1000 165 q 776 -98 883 -44 q 521 -151 668 -151 q 287 -119 392 -151 q 107 -26 182 -86 l 210 172 q 353 99 276 124 q 510 74 429 74 q 673 128 621 74 q 725 297 725 182 l 725 342 q 463 229 632 229 q 181 334 279 229 q 82 635 82 439 l 82 972 l 357 972 l 357 653 q 402 505 357 554 q 533 456 447 456 q 673 507 621 456 q 725 667 725 558 l 725 972 l 1000 972 m 394 1050 q 316 1080 347 1050 q 285 1158 285 1110 q 316 1238 285 1207 q 394 1268 347 1268 q 473 1238 442 1268 q 504 1158 504 1207 q 473 1080 504 1110 q 394 1050 442 1050 m 689 1050 q 610 1080 642 1050 q 579 1158 579 1110 q 610 1238 579 1207 q 689 1268 642 1268 q 767 1238 736 1268 q 799 1158 799 1207 q 767 1080 799 1110 q 689 1050 736 1050 z "},"Ẏ":{"ha":1089,"x_min":82,"x_max":1000,"o":"m 1000 972 l 1000 313 q 942 60 1000 165 q 776 -98 883 -44 q 521 -151 668 -151 q 287 -119 392 -151 q 107 -26 182 -86 l 210 172 q 353 99 276 124 q 510 74 429 74 q 673 128 621 74 q 725 297 725 182 l 725 342 q 463 229 632 229 q 181 334 279 229 q 82 635 82 439 l 82 972 l 357 972 l 357 653 q 402 505 357 554 q 533 456 447 456 q 673 507 621 456 q 725 667 725 558 l 725 972 l 1000 972 m 542 1049 q 442 1088 481 1049 q 404 1186 404 1126 q 443 1284 404 1246 q 542 1322 482 1322 q 640 1284 601 1322 q 679 1186 679 1246 q 640 1088 679 1126 q 542 1049 601 1049 z "},"Ỵ":{"ha":1089,"x_min":82,"x_max":1049,"o":"m 1000 972 l 1000 313 q 942 60 1000 165 q 776 -98 883 -44 q 521 -151 668 -151 q 287 -119 392 -151 q 107 -26 182 -86 l 210 172 q 353 99 276 124 q 510 74 429 74 q 673 128 621 74 q 725 297 725 182 l 725 342 q 463 229 632 229 q 181 334 279 229 q 82 635 82 439 l 82 972 l 357 972 l 357 653 q 402 505 357 554 q 533 456 447 456 q 673 507 621 456 q 725 667 725 558 l 725 972 l 1000 972 m 939 -303 q 860 -274 892 -303 q 829 -196 829 -244 q 860 -117 829 -147 q 939 -86 892 -86 q 1017 -117 986 -86 q 1049 -196 1049 -147 q 1017 -274 1049 -244 q 939 -303 986 -303 z "},"Ỳ":{"ha":1089,"x_min":82,"x_max":1000,"o":"m 1000 972 l 1000 313 q 942 60 1000 165 q 776 -98 883 -44 q 521 -151 668 -151 q 287 -119 392 -151 q 107 -26 182 -86 l 210 172 q 353 99 276 124 q 510 74 429 74 q 673 128 621 74 q 725 297 725 182 l 725 342 q 463 229 632 229 q 181 334 279 229 q 82 635 82 439 l 82 972 l 357 972 l 357 653 q 402 505 357 554 q 533 456 447 456 q 673 507 621 456 q 725 667 725 558 l 725 972 l 1000 972 m 228 1263 l 492 1263 l 678 1051 l 489 1051 l 228 1263 z "},"Ỷ":{"ha":1089,"x_min":82,"x_max":1000,"o":"m 1000 972 l 1000 313 q 942 60 1000 165 q 776 -98 883 -44 q 521 -151 668 -151 q 287 -119 392 -151 q 107 -26 182 -86 l 210 172 q 353 99 276 124 q 510 74 429 74 q 673 128 621 74 q 725 297 725 182 l 725 342 q 463 229 632 229 q 181 334 279 229 q 82 635 82 439 l 82 972 l 357 972 l 357 653 q 402 505 357 554 q 533 456 447 456 q 673 507 621 456 q 725 667 725 558 l 725 972 l 1000 972 m 511 1118 q 564 1156 549 1136 q 579 1199 579 1175 q 562 1240 579 1225 q 517 1254 544 1254 q 436 1226 476 1254 l 382 1329 q 457 1367 414 1354 q 546 1381 500 1381 q 677 1336 626 1381 q 728 1221 728 1292 q 592 1038 728 1099 l 511 1118 z "},"Ȳ":{"ha":1089,"x_min":82,"x_max":1000,"o":"m 1000 972 l 1000 313 q 942 60 1000 165 q 776 -98 883 -44 q 521 -151 668 -151 q 287 -119 392 -151 q 107 -26 182 -86 l 210 172 q 353 99 276 124 q 510 74 429 74 q 673 128 621 74 q 725 297 725 182 l 725 342 q 463 229 632 229 q 181 334 279 229 q 82 635 82 439 l 82 972 l 357 972 l 357 653 q 402 505 357 554 q 533 456 447 456 q 673 507 621 456 q 725 667 725 558 l 725 972 l 1000 972 m 268 1228 l 815 1228 l 815 1086 l 268 1086 l 268 1228 z "},"Ỹ":{"ha":1089,"x_min":82,"x_max":1000,"o":"m 1000 972 l 1000 313 q 942 60 1000 165 q 776 -98 883 -44 q 521 -151 668 -151 q 287 -119 392 -151 q 107 -26 182 -86 l 210 172 q 353 99 276 124 q 510 74 429 74 q 673 128 621 74 q 725 297 725 182 l 725 342 q 463 229 632 229 q 181 334 279 229 q 82 635 82 439 l 82 972 l 357 972 l 357 653 q 402 505 357 554 q 533 456 447 456 q 673 507 621 456 q 725 667 725 558 l 725 972 l 1000 972 m 650 1042 q 583 1056 613 1042 q 517 1096 553 1071 q 477 1121 490 1114 q 450 1128 464 1128 q 406 1108 422 1128 q 386 1054 389 1089 l 257 1054 q 307 1215 260 1156 q 433 1275 354 1275 q 500 1261 471 1275 q 567 1222 529 1247 q 606 1197 593 1204 q 633 1190 619 1190 q 678 1209 661 1190 q 697 1260 694 1228 l 826 1260 q 776 1101 824 1161 q 650 1042 729 1042 z "},"Z":{"ha":957,"x_min":56,"x_max":926,"o":"m 926 213 l 926 0 l 56 0 l 56 156 l 260 399 l 129 399 l 129 593 l 424 593 l 563 760 l 68 760 l 68 974 l 906 974 l 906 818 l 713 588 l 833 588 l 833 394 l 550 394 l 397 213 l 926 213 z "},"Ź":{"ha":957,"x_min":56,"x_max":926,"o":"m 926 213 l 926 0 l 56 0 l 56 156 l 260 399 l 129 399 l 129 593 l 424 593 l 563 760 l 68 760 l 68 974 l 906 974 l 906 818 l 713 588 l 833 588 l 833 394 l 550 394 l 397 213 l 926 213 m 540 1263 l 804 1263 l 543 1051 l 354 1051 l 540 1263 z "},"Ž":{"ha":957,"x_min":56,"x_max":926,"o":"m 926 213 l 926 0 l 56 0 l 56 156 l 260 399 l 129 399 l 129 593 l 424 593 l 563 760 l 68 760 l 68 974 l 906 974 l 906 818 l 713 588 l 833 588 l 833 394 l 550 394 l 397 213 l 926 213 m 785 1263 l 604 1051 l 376 1051 l 196 1263 l 371 1263 l 490 1157 l 610 1263 l 785 1263 z "},"Ż":{"ha":957,"x_min":56,"x_max":926,"o":"m 926 213 l 926 0 l 56 0 l 56 156 l 260 399 l 129 399 l 129 593 l 424 593 l 563 760 l 68 760 l 68 974 l 906 974 l 906 818 l 713 588 l 833 588 l 833 394 l 550 394 l 397 213 l 926 213 m 490 1049 q 391 1088 429 1049 q 353 1186 353 1126 q 392 1284 353 1246 q 490 1322 431 1322 q 589 1284 550 1322 q 628 1186 628 1246 q 589 1088 628 1126 q 490 1049 550 1049 z "},"Ẓ":{"ha":957,"x_min":56,"x_max":926,"o":"m 926 213 l 926 0 l 56 0 l 56 156 l 260 399 l 129 399 l 129 593 l 424 593 l 563 760 l 68 760 l 68 974 l 906 974 l 906 818 l 713 588 l 833 588 l 833 394 l 550 394 l 397 213 l 926 213 m 493 -303 q 415 -274 446 -303 q 383 -196 383 -244 q 415 -117 383 -147 q 493 -86 446 -86 q 572 -117 540 -86 q 603 -196 603 -147 q 572 -274 603 -244 q 493 -303 540 -303 z "},"a":{"ha":965,"x_min":38,"x_max":881,"o":"m 881 753 l 881 0 l 629 0 l 629 75 q 407 -12 556 -12 q 220 35 304 -12 q 87 172 136 83 q 38 378 38 261 q 87 583 38 494 q 220 718 136 671 q 407 765 304 765 q 617 688 540 765 l 617 753 l 881 753 m 463 197 q 576 245 532 197 q 621 378 621 293 q 576 508 621 461 q 463 556 532 556 q 349 508 393 556 q 304 378 304 461 q 349 245 304 293 q 463 197 393 197 z "},"á":{"ha":965,"x_min":38,"x_max":881,"o":"m 881 753 l 881 0 l 629 0 l 629 75 q 407 -12 556 -12 q 220 35 304 -12 q 87 172 136 83 q 38 378 38 261 q 87 583 38 494 q 220 718 136 671 q 407 765 304 765 q 617 688 540 765 l 617 753 l 881 753 m 463 197 q 576 245 532 197 q 621 378 621 293 q 576 508 621 461 q 463 556 532 556 q 349 508 393 556 q 304 378 304 461 q 349 245 304 293 q 463 197 393 197 m 546 1054 l 810 1054 l 549 843 l 360 843 l 546 1054 z "},"ă":{"ha":965,"x_min":38,"x_max":881,"o":"m 881 753 l 881 0 l 629 0 l 629 75 q 407 -12 556 -12 q 220 35 304 -12 q 87 172 136 83 q 38 378 38 261 q 87 583 38 494 q 220 718 136 671 q 407 765 304 765 q 617 688 540 765 l 617 753 l 881 753 m 463 197 q 576 245 532 197 q 621 378 621 293 q 576 508 621 461 q 463 556 532 556 q 349 508 393 556 q 304 378 304 461 q 349 245 304 293 q 463 197 393 197 m 496 831 q 303 891 378 831 q 224 1054 228 951 l 385 1054 q 418 988 386 1013 q 496 963 450 963 q 574 988 542 963 q 607 1054 606 1013 l 768 1054 q 689 891 764 951 q 496 831 614 831 z "},"ắ":{"ha":965,"x_min":38,"x_max":881,"o":"m 881 753 l 881 0 l 629 0 l 629 75 q 407 -12 556 -12 q 220 35 304 -12 q 87 172 136 83 q 38 378 38 261 q 87 583 38 494 q 220 718 136 671 q 407 765 304 765 q 617 688 540 765 l 617 753 l 881 753 m 463 197 q 576 245 532 197 q 621 378 621 293 q 576 508 621 461 q 463 556 532 556 q 349 508 393 556 q 304 378 304 461 q 349 245 304 293 q 463 197 393 197 m 496 831 q 304 880 379 831 q 224 1013 229 929 l 376 1013 q 413 967 381 985 q 496 950 446 950 q 578 967 546 950 q 615 1013 611 985 l 768 1013 q 688 880 763 929 q 496 831 613 831 m 511 1233 l 769 1233 l 546 1060 l 364 1060 l 511 1233 z "},"ặ":{"ha":965,"x_min":38,"x_max":881,"o":"m 881 753 l 881 0 l 629 0 l 629 75 q 407 -12 556 -12 q 220 35 304 -12 q 87 172 136 83 q 38 378 38 261 q 87 583 38 494 q 220 718 136 671 q 407 765 304 765 q 617 688 540 765 l 617 753 l 881 753 m 463 197 q 576 245 532 197 q 621 378 621 293 q 576 508 621 461 q 463 556 532 556 q 349 508 393 556 q 304 378 304 461 q 349 245 304 293 q 463 197 393 197 m 496 -303 q 417 -274 449 -303 q 386 -196 386 -244 q 417 -117 386 -147 q 496 -86 449 -86 q 574 -117 543 -86 q 606 -196 606 -147 q 574 -274 606 -244 q 496 -303 543 -303 m 496 831 q 303 891 378 831 q 224 1054 228 951 l 385 1054 q 418 988 386 1013 q 496 963 450 963 q 574 988 542 963 q 607 1054 606 1013 l 768 1054 q 689 891 764 951 q 496 831 614 831 z "},"ằ":{"ha":965,"x_min":38,"x_max":881,"o":"m 881 753 l 881 0 l 629 0 l 629 75 q 407 -12 556 -12 q 220 35 304 -12 q 87 172 136 83 q 38 378 38 261 q 87 583 38 494 q 220 718 136 671 q 407 765 304 765 q 617 688 540 765 l 617 753 l 881 753 m 463 197 q 576 245 532 197 q 621 378 621 293 q 576 508 621 461 q 463 556 532 556 q 349 508 393 556 q 304 378 304 461 q 349 245 304 293 q 463 197 393 197 m 496 831 q 304 880 379 831 q 224 1013 229 929 l 376 1013 q 413 967 381 985 q 496 950 446 950 q 578 967 546 950 q 615 1013 611 985 l 768 1013 q 688 880 763 929 q 496 831 613 831 m 222 1233 l 481 1233 l 628 1060 l 447 1060 l 222 1233 z "},"ẳ":{"ha":965,"x_min":38,"x_max":881,"o":"m 881 753 l 881 0 l 629 0 l 629 75 q 407 -12 556 -12 q 220 35 304 -12 q 87 172 136 83 q 38 378 38 261 q 87 583 38 494 q 220 718 136 671 q 407 765 304 765 q 617 688 540 765 l 617 753 l 881 753 m 463 197 q 576 245 532 197 q 621 378 621 293 q 576 508 621 461 q 463 556 532 556 q 349 508 393 556 q 304 378 304 461 q 349 245 304 293 q 463 197 393 197 m 496 831 q 304 880 379 831 q 224 1013 229 929 l 376 1013 q 413 967 381 985 q 496 950 446 950 q 578 967 546 950 q 615 1013 611 985 l 768 1013 q 688 880 763 929 q 496 831 613 831 m 475 1075 q 525 1131 525 1101 q 513 1158 525 1147 q 481 1168 500 1168 q 418 1151 451 1168 l 376 1226 q 503 1260 429 1260 q 603 1228 565 1260 q 640 1144 640 1197 q 611 1069 640 1101 q 538 1018 582 1036 l 475 1075 z "},"ẵ":{"ha":965,"x_min":38,"x_max":881,"o":"m 881 753 l 881 0 l 629 0 l 629 75 q 407 -12 556 -12 q 220 35 304 -12 q 87 172 136 83 q 38 378 38 261 q 87 583 38 494 q 220 718 136 671 q 407 765 304 765 q 617 688 540 765 l 617 753 l 881 753 m 463 197 q 576 245 532 197 q 621 378 621 293 q 576 508 621 461 q 463 556 532 556 q 349 508 393 556 q 304 378 304 461 q 349 245 304 293 q 463 197 393 197 m 496 831 q 304 880 379 831 q 224 1013 229 929 l 376 1013 q 413 967 381 985 q 496 950 446 950 q 578 967 546 950 q 615 1013 611 985 l 768 1013 q 688 880 763 929 q 496 831 613 831 m 600 1051 q 530 1064 560 1051 q 465 1097 500 1076 q 435 1115 450 1107 q 408 1122 419 1122 q 367 1106 382 1122 q 349 1063 351 1090 l 217 1063 q 265 1202 218 1153 q 393 1251 311 1251 q 460 1239 431 1251 q 525 1206 490 1226 q 560 1187 547 1193 q 586 1181 574 1181 q 628 1197 613 1181 q 647 1240 644 1214 l 775 1240 q 728 1101 774 1151 q 600 1051 682 1051 z "},"ǎ":{"ha":965,"x_min":38,"x_max":881,"o":"m 881 753 l 881 0 l 629 0 l 629 75 q 407 -12 556 -12 q 220 35 304 -12 q 87 172 136 83 q 38 378 38 261 q 87 583 38 494 q 220 718 136 671 q 407 765 304 765 q 617 688 540 765 l 617 753 l 881 753 m 463 197 q 576 245 532 197 q 621 378 621 293 q 576 508 621 461 q 463 556 532 556 q 349 508 393 556 q 304 378 304 461 q 349 245 304 293 q 463 197 393 197 m 790 1054 l 610 843 l 382 843 l 201 1054 l 376 1054 l 496 949 l 615 1054 l 790 1054 z "},"â":{"ha":965,"x_min":38,"x_max":881,"o":"m 881 753 l 881 0 l 629 0 l 629 75 q 407 -12 556 -12 q 220 35 304 -12 q 87 172 136 83 q 38 378 38 261 q 87 583 38 494 q 220 718 136 671 q 407 765 304 765 q 617 688 540 765 l 617 753 l 881 753 m 463 197 q 576 245 532 197 q 621 378 621 293 q 576 508 621 461 q 463 556 532 556 q 349 508 393 556 q 304 378 304 461 q 349 245 304 293 q 463 197 393 197 m 615 843 l 496 949 l 376 843 l 201 843 l 382 1054 l 610 1054 l 790 843 l 615 843 z "},"ấ":{"ha":965,"x_min":38,"x_max":1085,"o":"m 881 753 l 881 0 l 629 0 l 629 75 q 407 -12 556 -12 q 220 35 304 -12 q 87 172 136 83 q 38 378 38 261 q 87 583 38 494 q 220 718 136 671 q 407 765 304 765 q 617 688 540 765 l 617 753 l 881 753 m 463 197 q 576 245 532 197 q 621 378 621 293 q 576 508 621 461 q 463 556 532 556 q 349 508 393 556 q 304 378 304 461 q 349 245 304 293 q 463 197 393 197 m 614 843 l 496 925 l 378 843 l 201 843 l 383 1013 l 608 1013 l 790 843 l 614 843 m 826 1156 l 1085 1156 l 861 982 l 679 982 l 826 1156 z "},"ậ":{"ha":965,"x_min":38,"x_max":881,"o":"m 881 753 l 881 0 l 629 0 l 629 75 q 407 -12 556 -12 q 220 35 304 -12 q 87 172 136 83 q 38 378 38 261 q 87 583 38 494 q 220 718 136 671 q 407 765 304 765 q 617 688 540 765 l 617 753 l 881 753 m 463 197 q 576 245 532 197 q 621 378 621 293 q 576 508 621 461 q 463 556 532 556 q 349 508 393 556 q 304 378 304 461 q 349 245 304 293 q 463 197 393 197 m 496 -303 q 417 -274 449 -303 q 386 -196 386 -244 q 417 -117 386 -147 q 496 -86 449 -86 q 574 -117 543 -86 q 606 -196 606 -147 q 574 -274 606 -244 q 496 -303 543 -303 m 615 843 l 496 949 l 376 843 l 201 843 l 382 1054 l 610 1054 l 790 843 l 615 843 z "},"ầ":{"ha":965,"x_min":38,"x_max":943,"o":"m 881 753 l 881 0 l 629 0 l 629 75 q 407 -12 556 -12 q 220 35 304 -12 q 87 172 136 83 q 38 378 38 261 q 87 583 38 494 q 220 718 136 671 q 407 765 304 765 q 617 688 540 765 l 617 753 l 881 753 m 463 197 q 576 245 532 197 q 621 378 621 293 q 576 508 621 461 q 463 556 532 556 q 349 508 393 556 q 304 378 304 461 q 349 245 304 293 q 463 197 393 197 m 614 843 l 496 925 l 378 843 l 201 843 l 383 1013 l 608 1013 l 790 843 l 614 843 m 538 1156 l 796 1156 l 943 982 l 763 982 l 538 1156 z "},"ẩ":{"ha":965,"x_min":38,"x_max":881,"o":"m 881 753 l 881 0 l 629 0 l 629 75 q 407 -12 556 -12 q 220 35 304 -12 q 87 172 136 83 q 38 378 38 261 q 87 583 38 494 q 220 718 136 671 q 407 765 304 765 q 617 688 540 765 l 617 753 l 881 753 m 463 197 q 576 245 532 197 q 621 378 621 293 q 576 508 621 461 q 463 556 532 556 q 349 508 393 556 q 304 378 304 461 q 349 245 304 293 q 463 197 393 197 m 614 843 l 496 925 l 378 843 l 201 843 l 383 1013 l 608 1013 l 790 843 l 614 843 m 706 1011 q 756 1067 756 1038 q 743 1094 756 1083 q 711 1104 731 1104 q 649 1088 682 1104 l 607 1163 q 733 1196 660 1196 q 833 1165 796 1196 q 871 1081 871 1133 q 842 1005 871 1038 q 768 954 813 972 l 706 1011 z "},"ẫ":{"ha":965,"x_min":38,"x_max":881,"o":"m 881 753 l 881 0 l 629 0 l 629 75 q 407 -12 556 -12 q 220 35 304 -12 q 87 172 136 83 q 38 378 38 261 q 87 583 38 494 q 220 718 136 671 q 407 765 304 765 q 617 688 540 765 l 617 753 l 881 753 m 463 197 q 576 245 532 197 q 621 378 621 293 q 576 508 621 461 q 463 556 532 556 q 349 508 393 556 q 304 378 304 461 q 349 245 304 293 q 463 197 393 197 m 614 843 l 496 925 l 378 843 l 201 843 l 383 1013 l 608 1013 l 790 843 l 614 843 m 600 1061 q 530 1074 560 1061 q 465 1107 500 1086 q 435 1124 450 1117 q 408 1132 419 1132 q 367 1116 382 1132 q 349 1072 351 1100 l 217 1072 q 265 1212 218 1163 q 393 1261 311 1261 q 460 1249 431 1261 q 525 1215 490 1236 q 560 1197 547 1203 q 586 1190 574 1190 q 628 1207 613 1190 q 647 1250 644 1224 l 775 1250 q 728 1111 774 1161 q 600 1061 682 1061 z "},"ȁ":{"ha":965,"x_min":38,"x_max":881,"o":"m 881 753 l 881 0 l 629 0 l 629 75 q 407 -12 556 -12 q 220 35 304 -12 q 87 172 136 83 q 38 378 38 261 q 87 583 38 494 q 220 718 136 671 q 407 765 304 765 q 617 688 540 765 l 617 753 l 881 753 m 463 197 q 576 245 532 197 q 621 378 621 293 q 576 508 621 461 q 463 556 532 556 q 349 508 393 556 q 304 378 304 461 q 349 245 304 293 q 463 197 393 197 m 114 1054 l 350 1054 l 436 843 l 253 843 l 114 1054 m 415 1054 l 651 1054 l 739 843 l 556 843 l 415 1054 z "},"ä":{"ha":965,"x_min":38,"x_max":881,"o":"m 881 753 l 881 0 l 629 0 l 629 75 q 407 -12 556 -12 q 220 35 304 -12 q 87 172 136 83 q 38 378 38 261 q 87 583 38 494 q 220 718 136 671 q 407 765 304 765 q 617 688 540 765 l 617 753 l 881 753 m 463 197 q 576 245 532 197 q 621 378 621 293 q 576 508 621 461 q 463 556 532 556 q 349 508 393 556 q 304 378 304 461 q 349 245 304 293 q 463 197 393 197 m 349 842 q 270 872 301 842 q 239 950 239 901 q 270 1029 239 999 q 349 1060 301 1060 q 427 1029 396 1060 q 458 950 458 999 q 427 872 458 901 q 349 842 396 842 m 643 842 q 565 872 596 842 q 533 950 533 901 q 565 1029 533 999 q 643 1060 596 1060 q 722 1029 690 1060 q 753 950 753 999 q 722 872 753 901 q 643 842 690 842 z "},"ạ":{"ha":965,"x_min":38,"x_max":881,"o":"m 881 753 l 881 0 l 629 0 l 629 75 q 407 -12 556 -12 q 220 35 304 -12 q 87 172 136 83 q 38 378 38 261 q 87 583 38 494 q 220 718 136 671 q 407 765 304 765 q 617 688 540 765 l 617 753 l 881 753 m 463 197 q 576 245 532 197 q 621 378 621 293 q 576 508 621 461 q 463 556 532 556 q 349 508 393 556 q 304 378 304 461 q 349 245 304 293 q 463 197 393 197 m 496 -303 q 417 -274 449 -303 q 386 -196 386 -244 q 417 -117 386 -147 q 496 -86 449 -86 q 574 -117 543 -86 q 606 -196 606 -147 q 574 -274 606 -244 q 496 -303 543 -303 z "},"à":{"ha":965,"x_min":38,"x_max":881,"o":"m 881 753 l 881 0 l 629 0 l 629 75 q 407 -12 556 -12 q 220 35 304 -12 q 87 172 136 83 q 38 378 38 261 q 87 583 38 494 q 220 718 136 671 q 407 765 304 765 q 617 688 540 765 l 617 753 l 881 753 m 463 197 q 576 245 532 197 q 621 378 621 293 q 576 508 621 461 q 463 556 532 556 q 349 508 393 556 q 304 378 304 461 q 349 245 304 293 q 463 197 393 197 m 182 1054 l 446 1054 l 632 843 l 443 843 l 182 1054 z "},"ả":{"ha":965,"x_min":38,"x_max":881,"o":"m 881 753 l 881 0 l 629 0 l 629 75 q 407 -12 556 -12 q 220 35 304 -12 q 87 172 136 83 q 38 378 38 261 q 87 583 38 494 q 220 718 136 671 q 407 765 304 765 q 617 688 540 765 l 617 753 l 881 753 m 463 197 q 576 245 532 197 q 621 378 621 293 q 576 508 621 461 q 463 556 532 556 q 349 508 393 556 q 304 378 304 461 q 349 245 304 293 q 463 197 393 197 m 465 910 q 518 947 503 928 q 533 990 533 967 q 516 1031 533 1017 q 471 1046 499 1046 q 390 1018 431 1046 l 336 1121 q 411 1159 368 1146 q 500 1172 454 1172 q 631 1128 581 1172 q 682 1013 682 1083 q 546 829 682 890 l 465 910 z "},"ȃ":{"ha":965,"x_min":38,"x_max":881,"o":"m 881 753 l 881 0 l 629 0 l 629 75 q 407 -12 556 -12 q 220 35 304 -12 q 87 172 136 83 q 38 378 38 261 q 87 583 38 494 q 220 718 136 671 q 407 765 304 765 q 617 688 540 765 l 617 753 l 881 753 m 463 197 q 576 245 532 197 q 621 378 621 293 q 576 508 621 461 q 463 556 532 556 q 349 508 393 556 q 304 378 304 461 q 349 245 304 293 q 463 197 393 197 m 224 843 q 303 1006 228 946 q 496 1067 378 1067 q 689 1006 614 1067 q 768 843 764 946 l 607 843 q 574 910 606 885 q 496 935 542 935 q 418 910 450 935 q 385 843 386 885 l 224 843 z "},"ā":{"ha":965,"x_min":38,"x_max":881,"o":"m 881 753 l 881 0 l 629 0 l 629 75 q 407 -12 556 -12 q 220 35 304 -12 q 87 172 136 83 q 38 378 38 261 q 87 583 38 494 q 220 718 136 671 q 407 765 304 765 q 617 688 540 765 l 617 753 l 881 753 m 463 197 q 576 245 532 197 q 621 378 621 293 q 576 508 621 461 q 463 556 532 556 q 349 508 393 556 q 304 378 304 461 q 349 245 304 293 q 463 197 393 197 m 222 1019 l 769 1019 l 769 878 l 222 878 l 222 1019 z "},"ą":{"ha":965,"x_min":38,"x_max":914,"o":"m 881 753 l 881 0 l 629 0 l 629 75 q 407 -12 556 -12 q 220 35 304 -12 q 87 172 136 83 q 38 378 38 261 q 87 583 38 494 q 220 718 136 671 q 407 765 304 765 q 617 688 540 765 l 617 753 l 881 753 m 463 197 q 576 245 532 197 q 621 378 621 293 q 576 508 621 461 q 463 556 532 556 q 349 508 393 556 q 304 378 304 461 q 349 245 304 293 q 463 197 393 197 m 765 -328 q 614 -283 668 -328 q 560 -165 560 -239 q 616 -34 560 -93 q 782 63 672 25 l 879 0 q 756 -72 792 -39 q 719 -142 719 -106 q 740 -186 719 -169 q 796 -203 760 -203 q 879 -182 840 -203 l 914 -296 q 847 -319 888 -310 q 765 -328 806 -328 z "},"å":{"ha":965,"x_min":38,"x_max":881,"o":"m 881 753 l 881 0 l 629 0 l 629 75 q 407 -12 556 -12 q 220 35 304 -12 q 87 172 136 83 q 38 378 38 261 q 87 583 38 494 q 220 718 136 671 q 407 765 304 765 q 617 688 540 765 l 617 753 l 881 753 m 463 197 q 576 245 532 197 q 621 378 621 293 q 576 508 621 461 q 463 556 532 556 q 349 508 393 556 q 304 378 304 461 q 349 245 304 293 q 463 197 393 197 m 496 821 q 365 872 418 821 q 313 997 313 924 q 365 1124 313 1072 q 496 1175 418 1175 q 588 1151 546 1175 q 655 1087 631 1128 q 679 997 679 1046 q 626 872 679 924 q 496 821 572 821 m 496 918 q 552 940 529 918 q 575 997 575 963 q 552 1055 575 1032 q 496 1078 529 1078 q 440 1055 463 1078 q 417 997 417 1032 q 440 940 417 963 q 496 918 463 918 z "},"ǻ":{"ha":965,"x_min":38,"x_max":881,"o":"m 881 753 l 881 0 l 629 0 l 629 75 q 407 -12 556 -12 q 220 35 304 -12 q 87 172 136 83 q 38 378 38 261 q 87 583 38 494 q 220 718 136 671 q 407 765 304 765 q 617 688 540 765 l 617 753 l 881 753 m 463 197 q 576 245 532 197 q 621 378 621 293 q 576 508 621 461 q 463 556 532 556 q 349 508 393 556 q 304 378 304 461 q 349 245 304 293 q 463 197 393 197 m 656 1085 q 679 997 679 1044 q 626 872 679 924 q 496 821 572 821 q 365 872 418 821 q 313 997 313 924 q 365 1124 313 1072 q 496 1175 418 1175 q 564 1163 533 1175 l 688 1292 l 817 1194 l 656 1085 m 496 918 q 552 940 529 918 q 575 997 575 963 q 552 1055 575 1032 q 496 1078 529 1078 q 440 1055 463 1078 q 417 997 417 1032 q 440 940 417 963 q 496 918 463 918 z "},"ã":{"ha":965,"x_min":38,"x_max":881,"o":"m 881 753 l 881 0 l 629 0 l 629 75 q 407 -12 556 -12 q 220 35 304 -12 q 87 172 136 83 q 38 378 38 261 q 87 583 38 494 q 220 718 136 671 q 407 765 304 765 q 617 688 540 765 l 617 753 l 881 753 m 463 197 q 576 245 532 197 q 621 378 621 293 q 576 508 621 461 q 463 556 532 556 q 349 508 393 556 q 304 378 304 461 q 349 245 304 293 q 463 197 393 197 m 604 833 q 537 848 567 833 q 471 888 507 863 q 431 913 444 906 q 404 919 418 919 q 360 900 376 919 q 340 846 343 881 l 211 846 q 261 1007 214 947 q 388 1067 308 1067 q 454 1053 425 1067 q 521 1014 483 1039 q 560 989 547 996 q 588 982 574 982 q 632 1001 615 982 q 651 1051 649 1019 l 781 1051 q 731 893 778 953 q 604 833 683 833 z "},"æ":{"ha":1388,"x_min":42,"x_max":1350,"o":"m 985 189 q 1074 204 1035 189 q 1154 254 1114 219 l 1294 110 q 978 -12 1183 -12 q 797 17 881 -12 q 653 111 714 47 q 369 -12 565 -12 q 129 53 217 -12 q 42 228 42 119 q 124 389 42 331 q 376 447 207 447 l 526 447 q 483 533 522 503 q 368 564 443 564 q 256 547 311 564 q 163 499 201 529 l 74 678 q 225 742 138 719 q 404 765 313 765 q 679 671 586 765 q 803 741 733 717 q 953 765 874 765 q 1151 720 1060 765 q 1296 588 1242 675 q 1350 382 1350 501 l 811 278 q 879 212 835 235 q 985 189 924 189 m 950 578 q 837 533 882 578 q 790 414 792 489 l 1096 474 q 1042 549 1081 521 q 950 578 1003 578 m 399 154 q 492 188 458 154 q 526 278 526 221 l 526 308 l 413 308 q 297 233 297 308 q 324 175 297 196 q 399 154 350 154 z "},"ǽ":{"ha":1388,"x_min":42,"x_max":1350,"o":"m 985 189 q 1074 204 1035 189 q 1154 254 1114 219 l 1294 110 q 978 -12 1183 -12 q 797 17 881 -12 q 653 111 714 47 q 369 -12 565 -12 q 129 53 217 -12 q 42 228 42 119 q 124 389 42 331 q 376 447 207 447 l 526 447 q 483 533 522 503 q 368 564 443 564 q 256 547 311 564 q 163 499 201 529 l 74 678 q 225 742 138 719 q 404 765 313 765 q 679 671 586 765 q 803 741 733 717 q 953 765 874 765 q 1151 720 1060 765 q 1296 588 1242 675 q 1350 382 1350 501 l 811 278 q 879 212 835 235 q 985 189 924 189 m 950 578 q 837 533 882 578 q 790 414 792 489 l 1096 474 q 1042 549 1081 521 q 950 578 1003 578 m 399 154 q 492 188 458 154 q 526 278 526 221 l 526 308 l 413 308 q 297 233 297 308 q 324 175 297 196 q 399 154 350 154 m 717 1054 l 981 1054 l 719 843 l 531 843 l 717 1054 z "},"b":{"ha":965,"x_min":85,"x_max":928,"o":"m 558 765 q 745 718 661 765 q 878 583 829 671 q 928 378 928 494 q 878 172 928 261 q 745 35 829 83 q 558 -12 661 -12 q 336 75 410 -12 l 336 0 l 85 0 l 85 1031 l 349 1031 l 349 688 q 558 765 425 765 m 503 197 q 617 245 572 197 q 661 378 661 293 q 617 508 661 461 q 503 556 572 556 q 389 508 433 556 q 344 378 344 461 q 389 245 344 293 q 503 197 433 197 z "},"c":{"ha":838,"x_min":38,"x_max":822,"o":"m 469 -12 q 246 38 344 -12 q 92 176 147 88 q 38 378 38 265 q 92 578 38 490 q 246 716 147 667 q 469 765 344 765 q 690 710 597 765 q 822 558 783 656 l 618 454 q 468 556 567 556 q 351 508 397 556 q 304 378 304 461 q 351 245 304 293 q 468 197 397 197 q 618 299 567 197 l 822 194 q 690 42 783 97 q 469 -12 597 -12 z "},"ć":{"ha":838,"x_min":38,"x_max":822,"o":"m 469 -12 q 246 38 344 -12 q 92 176 147 88 q 38 378 38 265 q 92 578 38 490 q 246 716 147 667 q 469 765 344 765 q 690 710 597 765 q 822 558 783 656 l 618 454 q 468 556 567 556 q 351 508 397 556 q 304 378 304 461 q 351 245 304 293 q 468 197 397 197 q 618 299 567 197 l 822 194 q 690 42 783 97 q 469 -12 597 -12 m 492 1054 l 756 1054 l 494 843 l 306 843 l 492 1054 z "},"č":{"ha":838,"x_min":38,"x_max":822,"o":"m 469 -12 q 246 38 344 -12 q 92 176 147 88 q 38 378 38 265 q 92 578 38 490 q 246 716 147 667 q 469 765 344 765 q 690 710 597 765 q 822 558 783 656 l 618 454 q 468 556 567 556 q 351 508 397 556 q 304 378 304 461 q 351 245 304 293 q 468 197 397 197 q 618 299 567 197 l 822 194 q 690 42 783 97 q 469 -12 597 -12 m 736 1054 l 556 843 l 328 843 l 147 1054 l 322 1054 l 442 949 l 561 1054 l 736 1054 z "},"ç":{"ha":838,"x_min":38,"x_max":822,"o":"m 469 -12 q 246 38 344 -12 q 92 176 147 88 q 38 378 38 265 q 92 578 38 490 q 246 716 147 667 q 469 765 344 765 q 690 710 597 765 q 822 558 783 656 l 618 454 q 468 556 567 556 q 351 508 397 556 q 304 378 304 461 q 351 245 304 293 q 468 197 397 197 q 618 299 567 197 l 822 194 q 690 42 783 97 q 469 -12 597 -12 m 382 -328 q 310 -319 347 -328 q 250 -299 274 -311 l 286 -194 q 372 -214 328 -214 q 442 -175 442 -214 q 379 -140 442 -140 l 328 -140 l 364 13 l 501 13 l 482 -71 q 572 -109 543 -78 q 601 -183 601 -140 q 542 -289 601 -250 q 382 -328 482 -328 z "},"ḉ":{"ha":838,"x_min":38,"x_max":822,"o":"m 469 -12 q 246 38 344 -12 q 92 176 147 88 q 38 378 38 265 q 92 578 38 490 q 246 716 147 667 q 469 765 344 765 q 690 710 597 765 q 822 558 783 656 l 618 454 q 468 556 567 556 q 351 508 397 556 q 304 378 304 461 q 351 245 304 293 q 468 197 397 197 q 618 299 567 197 l 822 194 q 690 42 783 97 q 469 -12 597 -12 m 382 -328 q 310 -319 347 -328 q 250 -299 274 -311 l 286 -194 q 372 -214 328 -214 q 442 -175 442 -214 q 379 -140 442 -140 l 328 -140 l 364 13 l 501 13 l 482 -71 q 572 -109 543 -78 q 601 -183 601 -140 q 542 -289 601 -250 q 382 -328 482 -328 m 492 1054 l 756 1054 l 494 843 l 306 843 l 492 1054 z "},"ĉ":{"ha":838,"x_min":38,"x_max":822,"o":"m 469 -12 q 246 38 344 -12 q 92 176 147 88 q 38 378 38 265 q 92 578 38 490 q 246 716 147 667 q 469 765 344 765 q 690 710 597 765 q 822 558 783 656 l 618 454 q 468 556 567 556 q 351 508 397 556 q 304 378 304 461 q 351 245 304 293 q 468 197 397 197 q 618 299 567 197 l 822 194 q 690 42 783 97 q 469 -12 597 -12 m 561 843 l 442 949 l 322 843 l 147 843 l 328 1054 l 556 1054 l 736 843 l 561 843 z "},"ċ":{"ha":838,"x_min":38,"x_max":822,"o":"m 469 -12 q 246 38 344 -12 q 92 176 147 88 q 38 378 38 265 q 92 578 38 490 q 246 716 147 667 q 469 765 344 765 q 690 710 597 765 q 822 558 783 656 l 618 454 q 468 556 567 556 q 351 508 397 556 q 304 378 304 461 q 351 245 304 293 q 468 197 397 197 q 618 299 567 197 l 822 194 q 690 42 783 97 q 469 -12 597 -12 m 442 840 q 342 879 381 840 q 304 978 304 918 q 343 1076 304 1038 q 442 1114 382 1114 q 540 1076 501 1114 q 579 978 579 1038 q 540 879 579 918 q 442 840 501 840 z "},"d":{"ha":969,"x_min":42,"x_max":885,"o":"m 885 1031 l 885 0 l 633 0 l 633 75 q 413 -12 560 -12 q 225 35 310 -12 q 91 172 140 83 q 42 378 42 261 q 91 583 42 494 q 225 718 140 671 q 413 765 310 765 q 621 688 547 765 l 621 1031 l 885 1031 m 468 197 q 581 245 536 197 q 625 378 625 293 q 581 508 625 461 q 468 556 538 556 q 354 508 399 556 q 310 378 310 461 q 354 245 310 293 q 468 197 399 197 z "},"ð":{"ha":925,"x_min":38,"x_max":888,"o":"m 781 849 q 888 472 888 706 q 831 209 888 319 q 669 40 774 99 q 425 -19 565 -19 q 228 22 317 -19 q 88 138 139 63 q 38 313 38 214 q 84 475 38 404 q 210 585 131 546 q 385 624 289 624 q 611 544 528 624 q 543 760 607 686 l 204 635 l 158 753 l 392 840 q 317 846 360 846 q 139 818 222 846 l 111 1015 q 331 1040 222 1040 q 678 947 538 1040 l 806 994 l 851 875 l 781 849 m 446 176 q 549 212 508 176 q 589 301 589 247 q 549 392 589 357 q 447 428 508 428 q 345 394 385 428 q 306 301 306 360 q 345 210 306 244 q 446 176 385 176 z "},"ď":{"ha":969,"x_min":42,"x_max":1183,"o":"m 885 1031 l 885 0 l 633 0 l 633 75 q 413 -12 560 -12 q 225 35 310 -12 q 91 172 140 83 q 42 378 42 261 q 91 583 42 494 q 225 718 140 671 q 413 765 310 765 q 621 688 547 765 l 621 1031 l 885 1031 m 468 197 q 581 245 536 197 q 625 378 625 293 q 581 508 625 461 q 468 556 538 556 q 354 508 399 556 q 310 378 310 461 q 354 245 310 293 q 468 197 399 197 m 993 1093 l 1183 1093 l 1149 808 l 993 808 l 993 1093 z "},"đ":{"ha":969,"x_min":42,"x_max":972,"o":"m 885 1031 l 885 0 l 633 0 l 633 75 q 413 -12 560 -12 q 225 35 310 -12 q 91 172 140 83 q 42 378 42 261 q 91 583 42 494 q 225 718 140 671 q 413 765 310 765 q 621 688 547 765 l 621 1031 l 885 1031 m 468 197 q 581 245 536 197 q 625 378 625 293 q 581 508 625 461 q 468 556 538 556 q 354 508 399 556 q 310 378 310 461 q 354 245 310 293 q 468 197 399 197 m 389 956 l 972 956 l 972 818 l 389 818 l 389 956 z "},"ḍ":{"ha":969,"x_min":42,"x_max":885,"o":"m 885 1031 l 885 0 l 633 0 l 633 75 q 413 -12 560 -12 q 225 35 310 -12 q 91 172 140 83 q 42 378 42 261 q 91 583 42 494 q 225 718 140 671 q 413 765 310 765 q 621 688 547 765 l 621 1031 l 885 1031 m 468 197 q 581 245 536 197 q 625 378 625 293 q 581 508 625 461 q 468 556 538 556 q 354 508 399 556 q 310 378 310 461 q 354 245 310 293 q 468 197 399 197 m 517 -303 q 438 -274 469 -303 q 407 -196 407 -244 q 438 -117 407 -147 q 517 -86 469 -86 q 595 -117 564 -86 q 626 -196 626 -147 q 595 -274 626 -244 q 517 -303 564 -303 z "},"ḏ":{"ha":969,"x_min":42,"x_max":885,"o":"m 885 1031 l 885 0 l 633 0 l 633 75 q 413 -12 560 -12 q 225 35 310 -12 q 91 172 140 83 q 42 378 42 261 q 91 583 42 494 q 225 718 140 671 q 413 765 310 765 q 621 688 547 765 l 621 1031 l 885 1031 m 468 197 q 581 245 536 197 q 625 378 625 293 q 581 508 625 461 q 468 556 538 556 q 354 508 399 556 q 310 378 310 461 q 354 245 310 293 q 468 197 399 197 m 243 -118 l 790 -118 l 790 -260 l 243 -260 l 243 -118 z "},"ǆ":{"ha":1756,"x_min":42,"x_max":1717,"o":"m 885 1031 l 885 0 l 633 0 l 633 75 q 413 -12 560 -12 q 225 35 310 -12 q 91 172 140 83 q 42 378 42 261 q 91 583 42 494 q 225 718 140 671 q 413 765 310 765 q 621 688 547 765 l 621 1031 l 885 1031 m 468 197 q 581 245 536 197 q 625 378 625 293 q 581 508 625 461 q 468 556 538 556 q 354 508 399 556 q 310 378 310 461 q 354 245 310 293 q 468 197 399 197 m 1717 197 l 1717 0 l 1022 0 l 1022 156 l 1146 299 l 1065 299 l 1065 463 l 1289 463 l 1371 557 l 1032 557 l 1032 753 l 1703 753 l 1703 599 l 1583 461 l 1671 461 l 1671 297 l 1440 297 l 1354 197 l 1717 197 m 1657 1054 l 1476 843 l 1249 843 l 1068 1054 l 1243 1054 l 1363 949 l 1482 1054 l 1657 1054 z "},"e":{"ha":892,"x_min":38,"x_max":854,"o":"m 488 189 q 581 204 542 189 q 661 254 621 219 l 799 110 q 479 -12 692 -12 q 247 38 347 -12 q 92 176 147 88 q 38 378 38 265 q 92 577 38 489 q 241 715 146 665 q 454 765 336 765 q 655 720 564 765 q 800 588 746 675 q 854 382 854 501 l 317 279 q 488 189 360 189 m 456 578 q 344 535 388 578 q 296 414 301 493 l 601 474 q 549 549 588 521 q 456 578 510 578 z "},"é":{"ha":892,"x_min":38,"x_max":854,"o":"m 488 189 q 581 204 542 189 q 661 254 621 219 l 799 110 q 479 -12 692 -12 q 247 38 347 -12 q 92 176 147 88 q 38 378 38 265 q 92 577 38 489 q 241 715 146 665 q 454 765 336 765 q 655 720 564 765 q 800 588 746 675 q 854 382 854 501 l 317 279 q 488 189 360 189 m 456 578 q 344 535 388 578 q 296 414 301 493 l 601 474 q 549 549 588 521 q 456 578 510 578 m 500 1054 l 764 1054 l 503 843 l 314 843 l 500 1054 z "},"ĕ":{"ha":892,"x_min":38,"x_max":854,"o":"m 488 189 q 581 204 542 189 q 661 254 621 219 l 799 110 q 479 -12 692 -12 q 247 38 347 -12 q 92 176 147 88 q 38 378 38 265 q 92 577 38 489 q 241 715 146 665 q 454 765 336 765 q 655 720 564 765 q 800 588 746 675 q 854 382 854 501 l 317 279 q 488 189 360 189 m 456 578 q 344 535 388 578 q 296 414 301 493 l 601 474 q 549 549 588 521 q 456 578 510 578 m 450 831 q 257 891 332 831 q 178 1054 182 951 l 339 1054 q 372 988 340 1013 q 450 963 404 963 q 528 988 496 963 q 561 1054 560 1013 l 722 1054 q 643 891 718 951 q 450 831 568 831 z "},"ě":{"ha":892,"x_min":38,"x_max":854,"o":"m 488 189 q 581 204 542 189 q 661 254 621 219 l 799 110 q 479 -12 692 -12 q 247 38 347 -12 q 92 176 147 88 q 38 378 38 265 q 92 577 38 489 q 241 715 146 665 q 454 765 336 765 q 655 720 564 765 q 800 588 746 675 q 854 382 854 501 l 317 279 q 488 189 360 189 m 456 578 q 344 535 388 578 q 296 414 301 493 l 601 474 q 549 549 588 521 q 456 578 510 578 m 744 1054 l 564 843 l 336 843 l 156 1054 l 331 1054 l 450 949 l 569 1054 l 744 1054 z "},"ḝ":{"ha":892,"x_min":38,"x_max":854,"o":"m 488 189 q 581 204 542 189 q 661 254 621 219 l 799 110 q 479 -12 692 -12 q 247 38 347 -12 q 92 176 147 88 q 38 378 38 265 q 92 577 38 489 q 241 715 146 665 q 454 765 336 765 q 655 720 564 765 q 800 588 746 675 q 854 382 854 501 l 317 279 q 488 189 360 189 m 456 578 q 344 535 388 578 q 296 414 301 493 l 601 474 q 549 549 588 521 q 456 578 510 578 m 399 -328 q 327 -319 364 -328 q 267 -299 290 -311 l 303 -194 q 389 -214 344 -214 q 458 -175 458 -214 q 396 -140 458 -140 l 344 -140 l 381 13 l 518 13 l 499 -71 q 589 -109 560 -78 q 618 -183 618 -140 q 558 -289 618 -250 q 399 -328 499 -328 m 450 831 q 257 891 332 831 q 178 1054 182 951 l 339 1054 q 372 988 340 1013 q 450 963 404 963 q 528 988 496 963 q 561 1054 560 1013 l 722 1054 q 643 891 718 951 q 450 831 568 831 z "},"ê":{"ha":892,"x_min":38,"x_max":854,"o":"m 488 189 q 581 204 542 189 q 661 254 621 219 l 799 110 q 479 -12 692 -12 q 247 38 347 -12 q 92 176 147 88 q 38 378 38 265 q 92 577 38 489 q 241 715 146 665 q 454 765 336 765 q 655 720 564 765 q 800 588 746 675 q 854 382 854 501 l 317 279 q 488 189 360 189 m 456 578 q 344 535 388 578 q 296 414 301 493 l 601 474 q 549 549 588 521 q 456 578 510 578 m 569 843 l 450 949 l 331 843 l 156 843 l 336 1054 l 564 1054 l 744 843 l 569 843 z "},"ế":{"ha":892,"x_min":38,"x_max":1039,"o":"m 488 189 q 581 204 542 189 q 661 254 621 219 l 799 110 q 479 -12 692 -12 q 247 38 347 -12 q 92 176 147 88 q 38 378 38 265 q 92 577 38 489 q 241 715 146 665 q 454 765 336 765 q 655 720 564 765 q 800 588 746 675 q 854 382 854 501 l 317 279 q 488 189 360 189 m 456 578 q 344 535 388 578 q 296 414 301 493 l 601 474 q 549 549 588 521 q 456 578 510 578 m 568 843 l 450 925 l 332 843 l 156 843 l 338 1013 l 563 1013 l 744 843 l 568 843 m 781 1156 l 1039 1156 l 815 982 l 633 982 l 781 1156 z "},"ệ":{"ha":892,"x_min":38,"x_max":854,"o":"m 488 189 q 581 204 542 189 q 661 254 621 219 l 799 110 q 479 -12 692 -12 q 247 38 347 -12 q 92 176 147 88 q 38 378 38 265 q 92 577 38 489 q 241 715 146 665 q 454 765 336 765 q 655 720 564 765 q 800 588 746 675 q 854 382 854 501 l 317 279 q 488 189 360 189 m 456 578 q 344 535 388 578 q 296 414 301 493 l 601 474 q 549 549 588 521 q 456 578 510 578 m 450 -303 q 372 -274 403 -303 q 340 -196 340 -244 q 372 -117 340 -147 q 450 -86 403 -86 q 528 -117 497 -86 q 560 -196 560 -147 q 528 -274 560 -244 q 450 -303 497 -303 m 569 843 l 450 949 l 331 843 l 156 843 l 336 1054 l 564 1054 l 744 843 l 569 843 z "},"ề":{"ha":892,"x_min":38,"x_max":897,"o":"m 488 189 q 581 204 542 189 q 661 254 621 219 l 799 110 q 479 -12 692 -12 q 247 38 347 -12 q 92 176 147 88 q 38 378 38 265 q 92 577 38 489 q 241 715 146 665 q 454 765 336 765 q 655 720 564 765 q 800 588 746 675 q 854 382 854 501 l 317 279 q 488 189 360 189 m 456 578 q 344 535 388 578 q 296 414 301 493 l 601 474 q 549 549 588 521 q 456 578 510 578 m 568 843 l 450 925 l 332 843 l 156 843 l 338 1013 l 563 1013 l 744 843 l 568 843 m 492 1156 l 750 1156 l 897 982 l 717 982 l 492 1156 z "},"ể":{"ha":892,"x_min":38,"x_max":854,"o":"m 488 189 q 581 204 542 189 q 661 254 621 219 l 799 110 q 479 -12 692 -12 q 247 38 347 -12 q 92 176 147 88 q 38 378 38 265 q 92 577 38 489 q 241 715 146 665 q 454 765 336 765 q 655 720 564 765 q 800 588 746 675 q 854 382 854 501 l 317 279 q 488 189 360 189 m 456 578 q 344 535 388 578 q 296 414 301 493 l 601 474 q 549 549 588 521 q 456 578 510 578 m 568 843 l 450 925 l 332 843 l 156 843 l 338 1013 l 563 1013 l 744 843 l 568 843 m 660 1011 q 710 1067 710 1038 q 697 1094 710 1083 q 665 1104 685 1104 q 603 1088 636 1104 l 561 1163 q 688 1196 614 1196 q 788 1165 750 1196 q 825 1081 825 1133 q 796 1005 825 1038 q 722 954 767 972 l 660 1011 z "},"ễ":{"ha":892,"x_min":38,"x_max":854,"o":"m 488 189 q 581 204 542 189 q 661 254 621 219 l 799 110 q 479 -12 692 -12 q 247 38 347 -12 q 92 176 147 88 q 38 378 38 265 q 92 577 38 489 q 241 715 146 665 q 454 765 336 765 q 655 720 564 765 q 800 588 746 675 q 854 382 854 501 l 317 279 q 488 189 360 189 m 456 578 q 344 535 388 578 q 296 414 301 493 l 601 474 q 549 549 588 521 q 456 578 510 578 m 568 843 l 450 925 l 332 843 l 156 843 l 338 1013 l 563 1013 l 744 843 l 568 843 m 554 1061 q 484 1074 514 1061 q 419 1107 454 1086 q 389 1124 404 1117 q 363 1132 374 1132 q 321 1116 336 1132 q 303 1072 306 1100 l 171 1072 q 219 1212 172 1163 q 347 1261 265 1261 q 415 1249 385 1261 q 479 1215 444 1236 q 515 1197 501 1203 q 540 1190 528 1190 q 583 1207 567 1190 q 601 1250 599 1224 l 729 1250 q 682 1111 728 1161 q 554 1061 636 1061 z "},"ȅ":{"ha":892,"x_min":38,"x_max":854,"o":"m 488 189 q 581 204 542 189 q 661 254 621 219 l 799 110 q 479 -12 692 -12 q 247 38 347 -12 q 92 176 147 88 q 38 378 38 265 q 92 577 38 489 q 241 715 146 665 q 454 765 336 765 q 655 720 564 765 q 800 588 746 675 q 854 382 854 501 l 317 279 q 488 189 360 189 m 456 578 q 344 535 388 578 q 296 414 301 493 l 601 474 q 549 549 588 521 q 456 578 510 578 m 68 1054 l 304 1054 l 390 843 l 207 843 l 68 1054 m 369 1054 l 606 1054 l 693 843 l 510 843 l 369 1054 z "},"ë":{"ha":892,"x_min":38,"x_max":854,"o":"m 488 189 q 581 204 542 189 q 661 254 621 219 l 799 110 q 479 -12 692 -12 q 247 38 347 -12 q 92 176 147 88 q 38 378 38 265 q 92 577 38 489 q 241 715 146 665 q 454 765 336 765 q 655 720 564 765 q 800 588 746 675 q 854 382 854 501 l 317 279 q 488 189 360 189 m 456 578 q 344 535 388 578 q 296 414 301 493 l 601 474 q 549 549 588 521 q 456 578 510 578 m 303 842 q 224 872 256 842 q 193 950 193 901 q 224 1029 193 999 q 303 1060 256 1060 q 381 1029 350 1060 q 413 950 413 999 q 381 872 413 901 q 303 842 350 842 m 597 842 q 519 872 550 842 q 488 950 488 901 q 519 1029 488 999 q 597 1060 550 1060 q 676 1029 644 1060 q 707 950 707 999 q 676 872 707 901 q 597 842 644 842 z "},"ė":{"ha":892,"x_min":38,"x_max":854,"o":"m 488 189 q 581 204 542 189 q 661 254 621 219 l 799 110 q 479 -12 692 -12 q 247 38 347 -12 q 92 176 147 88 q 38 378 38 265 q 92 577 38 489 q 241 715 146 665 q 454 765 336 765 q 655 720 564 765 q 800 588 746 675 q 854 382 854 501 l 317 279 q 488 189 360 189 m 456 578 q 344 535 388 578 q 296 414 301 493 l 601 474 q 549 549 588 521 q 456 578 510 578 m 450 840 q 351 879 389 840 q 313 978 313 918 q 351 1076 313 1038 q 450 1114 390 1114 q 549 1076 510 1114 q 588 978 588 1038 q 549 879 588 918 q 450 840 510 840 z "},"ẹ":{"ha":892,"x_min":38,"x_max":854,"o":"m 488 189 q 581 204 542 189 q 661 254 621 219 l 799 110 q 479 -12 692 -12 q 247 38 347 -12 q 92 176 147 88 q 38 378 38 265 q 92 577 38 489 q 241 715 146 665 q 454 765 336 765 q 655 720 564 765 q 800 588 746 675 q 854 382 854 501 l 317 279 q 488 189 360 189 m 456 578 q 344 535 388 578 q 296 414 301 493 l 601 474 q 549 549 588 521 q 456 578 510 578 m 450 -303 q 372 -274 403 -303 q 340 -196 340 -244 q 372 -117 340 -147 q 450 -86 403 -86 q 528 -117 497 -86 q 560 -196 560 -147 q 528 -274 560 -244 q 450 -303 497 -303 z "},"è":{"ha":892,"x_min":38,"x_max":854,"o":"m 488 189 q 581 204 542 189 q 661 254 621 219 l 799 110 q 479 -12 692 -12 q 247 38 347 -12 q 92 176 147 88 q 38 378 38 265 q 92 577 38 489 q 241 715 146 665 q 454 765 336 765 q 655 720 564 765 q 800 588 746 675 q 854 382 854 501 l 317 279 q 488 189 360 189 m 456 578 q 344 535 388 578 q 296 414 301 493 l 601 474 q 549 549 588 521 q 456 578 510 578 m 136 1054 l 400 1054 l 586 843 l 397 843 l 136 1054 z "},"ẻ":{"ha":892,"x_min":38,"x_max":854,"o":"m 488 189 q 581 204 542 189 q 661 254 621 219 l 799 110 q 479 -12 692 -12 q 247 38 347 -12 q 92 176 147 88 q 38 378 38 265 q 92 577 38 489 q 241 715 146 665 q 454 765 336 765 q 655 720 564 765 q 800 588 746 675 q 854 382 854 501 l 317 279 q 488 189 360 189 m 456 578 q 344 535 388 578 q 296 414 301 493 l 601 474 q 549 549 588 521 q 456 578 510 578 m 419 910 q 472 947 457 928 q 488 990 488 967 q 470 1031 488 1017 q 425 1046 453 1046 q 344 1018 385 1046 l 290 1121 q 365 1159 322 1146 q 454 1172 408 1172 q 585 1128 535 1172 q 636 1013 636 1083 q 500 829 636 890 l 419 910 z "},"ȇ":{"ha":892,"x_min":38,"x_max":854,"o":"m 488 189 q 581 204 542 189 q 661 254 621 219 l 799 110 q 479 -12 692 -12 q 247 38 347 -12 q 92 176 147 88 q 38 378 38 265 q 92 577 38 489 q 241 715 146 665 q 454 765 336 765 q 655 720 564 765 q 800 588 746 675 q 854 382 854 501 l 317 279 q 488 189 360 189 m 456 578 q 344 535 388 578 q 296 414 301 493 l 601 474 q 549 549 588 521 q 456 578 510 578 m 178 843 q 257 1006 182 946 q 450 1067 332 1067 q 643 1006 568 1067 q 722 843 718 946 l 561 843 q 528 910 560 885 q 450 935 496 935 q 372 910 404 935 q 339 843 340 885 l 178 843 z "},"ē":{"ha":892,"x_min":38,"x_max":854,"o":"m 488 189 q 581 204 542 189 q 661 254 621 219 l 799 110 q 479 -12 692 -12 q 247 38 347 -12 q 92 176 147 88 q 38 378 38 265 q 92 577 38 489 q 241 715 146 665 q 454 765 336 765 q 655 720 564 765 q 800 588 746 675 q 854 382 854 501 l 317 279 q 488 189 360 189 m 456 578 q 344 535 388 578 q 296 414 301 493 l 601 474 q 549 549 588 521 q 456 578 510 578 m 176 1019 l 724 1019 l 724 878 l 176 878 l 176 1019 z "},"ḗ":{"ha":892,"x_min":38,"x_max":854,"o":"m 488 189 q 581 204 542 189 q 661 254 621 219 l 799 110 q 479 -12 692 -12 q 247 38 347 -12 q 92 176 147 88 q 38 378 38 265 q 92 577 38 489 q 241 715 146 665 q 454 765 336 765 q 655 720 564 765 q 800 588 746 675 q 854 382 854 501 l 317 279 q 488 189 360 189 m 456 578 q 344 535 388 578 q 296 414 301 493 l 601 474 q 549 549 588 521 q 456 578 510 578 m 176 996 l 724 996 l 724 860 l 176 860 l 176 996 m 465 1256 l 724 1256 l 500 1082 l 318 1082 l 465 1256 z "},"ḕ":{"ha":892,"x_min":38,"x_max":854,"o":"m 488 189 q 581 204 542 189 q 661 254 621 219 l 799 110 q 479 -12 692 -12 q 247 38 347 -12 q 92 176 147 88 q 38 378 38 265 q 92 577 38 489 q 241 715 146 665 q 454 765 336 765 q 655 720 564 765 q 800 588 746 675 q 854 382 854 501 l 317 279 q 488 189 360 189 m 456 578 q 344 535 388 578 q 296 414 301 493 l 601 474 q 549 549 588 521 q 456 578 510 578 m 176 996 l 724 996 l 724 860 l 176 860 l 176 996 m 176 1256 l 435 1256 l 582 1082 l 401 1082 l 176 1256 z "},"ę":{"ha":892,"x_min":38,"x_max":854,"o":"m 488 189 q 581 204 542 189 q 661 254 621 219 l 799 110 q 742 58 776 83 q 619 -49 653 -4 q 586 -136 586 -93 q 608 -184 586 -165 q 665 -203 629 -203 q 746 -182 707 -203 l 781 -296 q 714 -319 756 -310 q 632 -328 672 -328 q 481 -283 536 -328 q 426 -160 426 -237 q 445 -82 426 -121 q 497 -12 464 -43 l 479 -12 q 247 38 347 -12 q 92 176 147 88 q 38 378 38 265 q 92 577 38 489 q 241 715 146 665 q 454 765 336 765 q 655 720 564 765 q 800 588 746 675 q 854 382 854 501 l 317 279 q 488 189 360 189 m 456 578 q 344 535 388 578 q 296 414 301 493 l 601 474 q 549 549 588 521 q 456 578 510 578 z "},"ẽ":{"ha":892,"x_min":38,"x_max":854,"o":"m 488 189 q 581 204 542 189 q 661 254 621 219 l 799 110 q 479 -12 692 -12 q 247 38 347 -12 q 92 176 147 88 q 38 378 38 265 q 92 577 38 489 q 241 715 146 665 q 454 765 336 765 q 655 720 564 765 q 800 588 746 675 q 854 382 854 501 l 317 279 q 488 189 360 189 m 456 578 q 344 535 388 578 q 296 414 301 493 l 601 474 q 549 549 588 521 q 456 578 510 578 m 558 833 q 491 848 521 833 q 425 888 461 863 q 385 913 399 906 q 358 919 372 919 q 314 900 331 919 q 294 846 297 881 l 165 846 q 215 1007 168 947 q 342 1067 263 1067 q 408 1053 379 1067 q 475 1014 438 1039 q 515 989 501 996 q 542 982 528 982 q 586 1001 569 982 q 606 1051 603 1019 l 735 1051 q 685 893 732 953 q 558 833 638 833 z "},"ə":{"ha":892,"x_min":38,"x_max":854,"o":"m 404 564 q 310 549 350 564 q 231 499 271 533 l 93 643 q 413 765 200 765 q 644 715 544 765 q 799 576 744 665 q 854 375 854 488 q 800 176 854 264 q 651 38 746 88 q 438 -12 556 -12 q 237 33 328 -12 q 92 165 146 78 q 38 371 38 251 l 575 474 q 404 564 532 564 m 436 175 q 547 217 504 175 q 596 339 590 260 l 290 279 q 343 203 304 232 q 436 175 382 175 z "},"ʒ":{"ha":790,"x_min":-25,"x_max":764,"o":"m 511 344 q 699 242 633 319 q 764 53 764 165 q 718 -114 764 -37 q 578 -236 672 -190 q 346 -282 485 -282 q 144 -256 243 -282 q -25 -181 46 -229 l 67 26 q 194 -37 124 -15 q 336 -60 265 -60 q 450 -30 408 -60 q 492 53 492 0 q 343 160 492 160 l 228 160 l 228 332 l 406 540 l 18 540 l 18 753 l 714 753 l 714 581 l 511 344 z "},"ǯ":{"ha":790,"x_min":-25,"x_max":764,"o":"m 511 344 q 699 242 633 319 q 764 53 764 165 q 718 -114 764 -37 q 578 -236 672 -190 q 346 -282 485 -282 q 144 -256 243 -282 q -25 -181 46 -229 l 67 26 q 194 -37 124 -15 q 336 -60 265 -60 q 450 -30 408 -60 q 492 53 492 0 q 343 160 492 160 l 228 160 l 228 332 l 406 540 l 18 540 l 18 753 l 714 753 l 714 581 l 511 344 m 653 1054 l 472 843 l 244 843 l 64 1054 l 239 1054 l 358 949 l 478 1054 l 653 1054 z "},"f":{"ha":533,"x_min":85,"x_max":574,"o":"m 342 725 l 521 725 l 521 528 l 349 528 l 349 0 l 85 0 l 85 744 q 167 963 85 882 q 399 1043 250 1043 q 496 1033 449 1043 q 574 1004 543 1024 l 508 818 q 429 840 469 840 q 365 815 388 840 q 342 742 342 790 l 342 725 z "},"g":{"ha":979,"x_min":38,"x_max":894,"o":"m 894 753 l 894 138 q 781 -177 894 -72 q 453 -282 667 -282 q 244 -257 342 -282 q 79 -183 147 -232 l 175 1 q 291 -58 221 -36 q 429 -79 361 -79 q 582 -33 533 -79 q 631 103 631 13 l 631 128 q 407 39 554 39 q 222 84 307 39 q 88 212 138 129 q 38 403 38 294 q 88 592 38 510 q 222 720 138 675 q 407 765 307 765 q 643 661 568 765 l 643 753 l 894 753 m 469 249 q 587 292 540 249 q 633 403 633 335 q 588 513 633 471 q 469 556 542 556 q 351 513 397 556 q 304 403 304 471 q 351 292 304 335 q 469 249 399 249 z "},"ğ":{"ha":979,"x_min":38,"x_max":894,"o":"m 894 753 l 894 138 q 781 -177 894 -72 q 453 -282 667 -282 q 244 -257 342 -282 q 79 -183 147 -232 l 175 1 q 291 -58 221 -36 q 429 -79 361 -79 q 582 -33 533 -79 q 631 103 631 13 l 631 128 q 407 39 554 39 q 222 84 307 39 q 88 212 138 129 q 38 403 38 294 q 88 592 38 510 q 222 720 138 675 q 407 765 307 765 q 643 661 568 765 l 643 753 l 894 753 m 469 249 q 587 292 540 249 q 633 403 633 335 q 588 513 633 471 q 469 556 542 556 q 351 513 397 556 q 304 403 304 471 q 351 292 304 335 q 469 249 399 249 m 483 831 q 290 891 365 831 q 211 1054 215 951 l 372 1054 q 406 988 374 1013 q 483 963 438 963 q 561 988 529 963 q 594 1054 593 1013 l 756 1054 q 676 891 751 951 q 483 831 601 831 z "},"ǧ":{"ha":979,"x_min":38,"x_max":894,"o":"m 894 753 l 894 138 q 781 -177 894 -72 q 453 -282 667 -282 q 244 -257 342 -282 q 79 -183 147 -232 l 175 1 q 291 -58 221 -36 q 429 -79 361 -79 q 582 -33 533 -79 q 631 103 631 13 l 631 128 q 407 39 554 39 q 222 84 307 39 q 88 212 138 129 q 38 403 38 294 q 88 592 38 510 q 222 720 138 675 q 407 765 307 765 q 643 661 568 765 l 643 753 l 894 753 m 469 249 q 587 292 540 249 q 633 403 633 335 q 588 513 633 471 q 469 556 542 556 q 351 513 397 556 q 304 403 304 471 q 351 292 304 335 q 469 249 399 249 m 778 1054 l 597 843 l 369 843 l 189 1054 l 364 1054 l 483 949 l 603 1054 l 778 1054 z "},"ĝ":{"ha":979,"x_min":38,"x_max":894,"o":"m 894 753 l 894 138 q 781 -177 894 -72 q 453 -282 667 -282 q 244 -257 342 -282 q 79 -183 147 -232 l 175 1 q 291 -58 221 -36 q 429 -79 361 -79 q 582 -33 533 -79 q 631 103 631 13 l 631 128 q 407 39 554 39 q 222 84 307 39 q 88 212 138 129 q 38 403 38 294 q 88 592 38 510 q 222 720 138 675 q 407 765 307 765 q 643 661 568 765 l 643 753 l 894 753 m 469 249 q 587 292 540 249 q 633 403 633 335 q 588 513 633 471 q 469 556 542 556 q 351 513 397 556 q 304 403 304 471 q 351 292 304 335 q 469 249 399 249 m 603 843 l 483 949 l 364 843 l 189 843 l 369 1054 l 597 1054 l 778 843 l 603 843 z "},"ģ":{"ha":979,"x_min":38,"x_max":894,"o":"m 894 753 l 894 138 q 781 -177 894 -72 q 453 -282 667 -282 q 244 -257 342 -282 q 79 -183 147 -232 l 175 1 q 291 -58 221 -36 q 429 -79 361 -79 q 582 -33 533 -79 q 631 103 631 13 l 631 128 q 407 39 554 39 q 222 84 307 39 q 88 212 138 129 q 38 403 38 294 q 88 592 38 510 q 222 720 138 675 q 407 765 307 765 q 643 661 568 765 l 643 753 l 894 753 m 469 249 q 587 292 540 249 q 633 403 633 335 q 588 513 633 471 q 469 556 542 556 q 351 513 397 556 q 304 403 304 471 q 351 292 304 335 q 469 249 399 249 m 547 1007 q 613 924 613 986 q 579 856 613 881 q 483 831 546 831 q 388 856 421 831 q 354 924 354 881 q 390 1024 354 963 l 458 1146 l 599 1146 l 547 1007 z "},"ġ":{"ha":979,"x_min":38,"x_max":894,"o":"m 894 753 l 894 138 q 781 -177 894 -72 q 453 -282 667 -282 q 244 -257 342 -282 q 79 -183 147 -232 l 175 1 q 291 -58 221 -36 q 429 -79 361 -79 q 582 -33 533 -79 q 631 103 631 13 l 631 128 q 407 39 554 39 q 222 84 307 39 q 88 212 138 129 q 38 403 38 294 q 88 592 38 510 q 222 720 138 675 q 407 765 307 765 q 643 661 568 765 l 643 753 l 894 753 m 469 249 q 587 292 540 249 q 633 403 633 335 q 588 513 633 471 q 469 556 542 556 q 351 513 397 556 q 304 403 304 471 q 351 292 304 335 q 469 249 399 249 m 483 840 q 384 879 422 840 q 346 978 346 918 q 385 1076 346 1038 q 483 1114 424 1114 q 582 1076 543 1114 q 621 978 621 1038 q 582 879 621 918 q 483 840 543 840 z "},"ḡ":{"ha":979,"x_min":38,"x_max":894,"o":"m 894 753 l 894 138 q 781 -177 894 -72 q 453 -282 667 -282 q 244 -257 342 -282 q 79 -183 147 -232 l 175 1 q 291 -58 221 -36 q 429 -79 361 -79 q 582 -33 533 -79 q 631 103 631 13 l 631 128 q 407 39 554 39 q 222 84 307 39 q 88 212 138 129 q 38 403 38 294 q 88 592 38 510 q 222 720 138 675 q 407 765 307 765 q 643 661 568 765 l 643 753 l 894 753 m 469 249 q 587 292 540 249 q 633 403 633 335 q 588 513 633 471 q 469 556 542 556 q 351 513 397 556 q 304 403 304 471 q 351 292 304 335 q 469 249 399 249 m 210 1019 l 757 1019 l 757 878 l 210 878 l 210 1019 z "},"ǥ":{"ha":997,"x_min":38,"x_max":982,"o":"m 982 -33 l 869 -33 q 724 -219 831 -157 q 450 -282 618 -282 q 244 -256 342 -282 q 79 -183 146 -231 l 175 -8 q 290 -67 219 -44 q 432 -89 360 -89 q 590 -35 543 -89 l 372 -35 l 372 74 l 631 74 l 631 93 l 631 182 l 632 197 q 397 108 549 108 q 210 151 292 108 q 83 268 128 193 q 38 438 38 343 q 83 606 38 532 q 209 722 128 681 q 396 764 290 764 q 643 661 561 764 l 643 753 l 894 753 l 894 138 q 892 75 894 114 l 982 75 l 982 -33 m 469 293 q 589 332 544 293 q 633 438 633 371 q 588 542 633 503 q 469 581 543 581 q 349 542 394 581 q 304 438 304 503 q 349 332 304 371 q 469 293 394 293 z "},"h":{"ha":967,"x_min":85,"x_max":886,"o":"m 575 765 q 801 682 715 765 q 886 431 886 599 l 886 0 l 622 0 l 622 388 q 499 542 622 542 q 390 497 431 542 q 349 364 349 453 l 349 0 l 85 0 l 85 1031 l 349 1031 l 349 683 q 450 744 392 724 q 575 765 508 765 z "},"ħ":{"ha":967,"x_min":0,"x_max":886,"o":"m 575 765 q 801 682 715 765 q 886 431 886 599 l 886 0 l 622 0 l 622 388 q 499 542 622 542 q 390 497 431 542 q 349 364 349 453 l 349 0 l 85 0 l 85 1031 l 349 1031 l 349 683 q 450 744 392 724 q 575 765 508 765 m 0 956 l 583 956 l 583 818 l 0 818 l 0 956 z "},"ḫ":{"ha":967,"x_min":85,"x_max":886,"o":"m 575 765 q 801 682 715 765 q 886 431 886 599 l 886 0 l 622 0 l 622 388 q 499 542 622 542 q 390 497 431 542 q 349 364 349 453 l 349 0 l 85 0 l 85 1031 l 349 1031 l 349 683 q 450 744 392 724 q 575 765 508 765 m 489 -307 q 297 -249 372 -307 q 217 -99 222 -192 l 368 -99 q 404 -161 371 -137 q 489 -185 438 -185 q 574 -161 540 -185 q 610 -99 607 -137 l 761 -99 q 681 -249 756 -192 q 489 -307 606 -307 z "},"ȟ":{"ha":967,"x_min":-78,"x_max":886,"o":"m 575 765 q 801 682 715 765 q 886 431 886 599 l 886 0 l 622 0 l 622 388 q 499 542 622 542 q 390 497 431 542 q 349 364 349 453 l 349 0 l 85 0 l 85 1031 l 349 1031 l 349 683 q 450 744 392 724 q 575 765 508 765 m 511 1332 l 331 1121 l 103 1121 l -78 1332 l 97 1332 l 217 1226 l 336 1332 l 511 1332 z "},"ĥ":{"ha":967,"x_min":-78,"x_max":886,"o":"m 575 765 q 801 682 715 765 q 886 431 886 599 l 886 0 l 622 0 l 622 388 q 499 542 622 542 q 390 497 431 542 q 349 364 349 453 l 349 0 l 85 0 l 85 1031 l 349 1031 l 349 683 q 450 744 392 724 q 575 765 508 765 m 336 1110 l 217 1215 l 97 1110 l -78 1110 l 103 1321 l 331 1321 l 511 1110 l 336 1110 z "},"ḥ":{"ha":967,"x_min":85,"x_max":886,"o":"m 575 765 q 801 682 715 765 q 886 431 886 599 l 886 0 l 622 0 l 622 388 q 499 542 622 542 q 390 497 431 542 q 349 364 349 453 l 349 0 l 85 0 l 85 1031 l 349 1031 l 349 683 q 450 744 392 724 q 575 765 508 765 m 489 -303 q 410 -274 442 -303 q 379 -196 379 -244 q 410 -117 379 -147 q 489 -86 442 -86 q 567 -117 536 -86 q 599 -196 599 -147 q 567 -274 599 -244 q 489 -303 536 -303 z "},"i":{"ha":435,"x_min":56,"x_max":378,"o":"m 85 753 l 349 753 l 349 0 l 85 0 l 85 753 m 217 836 q 100 876 144 836 q 56 976 56 917 q 100 1076 56 1036 q 217 1117 144 1117 q 333 1078 289 1117 q 378 981 378 1040 q 333 877 378 918 q 217 836 289 836 z "},"ı":{"ha":435,"x_min":85,"x_max":349,"o":"m 85 753 l 349 753 l 349 0 l 85 0 l 85 753 z "},"í":{"ha":435,"x_min":81,"x_max":531,"o":"m 85 753 l 349 753 l 349 0 l 85 0 l 85 753 m 267 1054 l 531 1054 l 269 843 l 81 843 l 267 1054 z "},"ĭ":{"ha":435,"x_min":-21,"x_max":454,"o":"m 85 753 l 349 753 l 349 0 l 85 0 l 85 753 m 217 831 q 47 892 113 831 q -21 1054 -19 953 l 133 1054 q 156 985 133 1011 q 217 960 178 960 q 278 985 256 960 q 300 1054 300 1011 l 454 1054 q 387 892 453 953 q 217 831 321 831 z "},"î":{"ha":435,"x_min":-43,"x_max":476,"o":"m 85 753 l 349 753 l 349 0 l 85 0 l 85 753 m 303 843 l 217 939 l 131 843 l -43 843 l 106 1054 l 328 1054 l 476 843 l 303 843 z "},"ȉ":{"ha":435,"x_min":-165,"x_max":460,"o":"m 85 753 l 349 753 l 349 0 l 85 0 l 85 753 m -165 1054 l 71 1054 l 157 843 l -26 843 l -165 1054 m 136 1054 l 372 1054 l 460 843 l 276 843 l 136 1054 z "},"ï":{"ha":435,"x_min":-7,"x_max":440,"o":"m 85 753 l 349 753 l 349 0 l 85 0 l 85 753 m 96 842 q 22 872 51 842 q -7 950 -7 903 q 22 1028 -7 997 q 96 1058 51 1058 q 168 1028 139 1058 q 197 950 197 997 q 168 872 197 901 q 96 842 139 842 m 339 842 q 265 872 294 842 q 236 950 236 903 q 265 1028 236 997 q 339 1058 294 1058 q 411 1028 382 1058 q 440 950 440 997 q 411 872 440 901 q 339 842 382 842 z "},"ḯ":{"ha":435,"x_min":-29,"x_max":490,"o":"m 85 753 l 349 753 l 349 0 l 85 0 l 85 753 m 75 842 q 1 870 31 842 q -29 944 -29 899 q 1 1019 -29 990 q 75 1049 31 1049 q 151 1019 121 1049 q 181 944 181 990 q 151 870 181 899 q 75 842 121 842 m 358 842 q 284 870 314 842 q 254 944 254 899 q 284 1019 254 990 q 358 1049 314 1049 q 433 1019 403 1049 q 463 944 463 990 q 433 870 463 899 q 358 842 403 842 m 232 1256 l 490 1256 l 267 1082 l 85 1082 l 232 1256 z "},"ị":{"ha":435,"x_min":56,"x_max":378,"o":"m 85 753 l 349 753 l 349 0 l 85 0 l 85 753 m 217 836 q 100 876 144 836 q 56 976 56 917 q 100 1076 56 1036 q 217 1117 144 1117 q 333 1078 289 1117 q 378 981 378 1040 q 333 877 378 918 q 217 836 289 836 m 217 -303 q 138 -274 169 -303 q 107 -196 107 -244 q 138 -117 107 -147 q 217 -86 169 -86 q 295 -117 264 -86 q 326 -196 326 -147 q 295 -274 326 -244 q 217 -303 264 -303 z "},"ì":{"ha":435,"x_min":-97,"x_max":353,"o":"m 85 753 l 349 753 l 349 0 l 85 0 l 85 753 m -97 1054 l 167 1054 l 353 843 l 164 843 l -97 1054 z "},"ỉ":{"ha":435,"x_min":57,"x_max":403,"o":"m 85 753 l 349 753 l 349 0 l 85 0 l 85 753 m 186 910 q 239 947 224 928 q 254 990 254 967 q 237 1031 254 1017 q 192 1046 219 1046 q 111 1018 151 1046 l 57 1121 q 132 1159 89 1146 q 221 1172 175 1172 q 352 1128 301 1172 q 403 1013 403 1083 q 267 829 403 890 l 186 910 z "},"ȋ":{"ha":435,"x_min":-21,"x_max":454,"o":"m 85 753 l 349 753 l 349 0 l 85 0 l 85 753 m -21 843 q 47 1006 -19 944 q 217 1067 113 1067 q 387 1006 321 1067 q 454 843 453 944 l 300 843 q 278 912 300 886 q 217 938 256 938 q 156 912 178 938 q 133 843 133 886 l -21 843 z "},"ĳ":{"ha":879,"x_min":56,"x_max":824,"o":"m 85 753 l 349 753 l 349 0 l 85 0 l 85 753 m 217 836 q 100 876 144 836 q 56 976 56 917 q 100 1076 56 1036 q 217 1117 144 1117 q 333 1078 289 1117 q 378 981 378 1040 q 333 877 378 918 q 217 836 289 836 m 488 -282 q 304 -243 372 -282 l 371 -56 q 453 -78 407 -78 q 510 -53 489 -78 q 531 21 531 -28 l 531 753 l 794 753 l 794 19 q 713 -201 794 -119 q 488 -282 632 -282 m 663 836 q 546 876 590 836 q 501 976 501 917 q 546 1076 501 1036 q 663 1117 590 1117 q 779 1078 735 1117 q 824 981 824 1040 q 779 877 824 918 q 663 836 735 836 z "},"ī":{"ha":435,"x_min":-6,"x_max":439,"o":"m 85 753 l 349 753 l 349 0 l 85 0 l 85 753 m -6 1019 l 439 1019 l 439 878 l -6 878 l -6 1019 z "},"į":{"ha":435,"x_min":56,"x_max":388,"o":"m 85 753 l 349 753 l 349 0 l 85 0 l 85 753 m 217 836 q 100 876 144 836 q 56 976 56 917 q 100 1076 56 1036 q 217 1117 144 1117 q 333 1078 289 1117 q 378 981 378 1040 q 333 877 378 918 q 217 836 289 836 m 278 -328 q 145 -283 196 -328 q 94 -164 94 -237 q 141 -34 94 -93 q 275 64 188 25 l 349 0 q 276 -71 297 -37 q 256 -140 256 -104 q 272 -185 256 -168 q 311 -203 288 -203 q 356 -187 333 -203 l 388 -297 q 338 -319 367 -311 q 278 -328 310 -328 z "},"ĩ":{"ha":435,"x_min":-29,"x_max":463,"o":"m 85 753 l 349 753 l 349 0 l 85 0 l 85 753 m 313 833 q 247 849 275 833 q 189 893 219 865 q 162 915 175 906 q 139 924 149 924 q 97 846 97 924 l -29 846 q 9 1010 -29 954 q 121 1067 47 1067 q 185 1051 157 1067 q 244 1008 213 1036 q 272 987 258 996 q 294 978 285 978 q 336 1051 336 978 l 463 1051 q 424 890 463 946 q 313 833 386 833 z "},"j":{"ha":444,"x_min":-131,"x_max":389,"o":"m 53 -282 q -131 -243 -62 -282 l -64 -56 q 18 -78 -28 -78 q 75 -53 54 -78 q 96 21 96 -28 l 96 753 l 360 753 l 360 19 q 278 -201 360 -119 q 53 -282 197 -282 m 228 836 q 111 876 156 836 q 67 976 67 917 q 111 1076 67 1036 q 228 1117 156 1117 q 344 1078 300 1117 q 389 981 389 1040 q 344 877 389 918 q 228 836 300 836 z "},"ȷ":{"ha":444,"x_min":-131,"x_max":360,"o":"m 53 -282 q -131 -243 -62 -282 l -64 -56 q 18 -78 -28 -78 q 75 -53 54 -78 q 96 21 96 -28 l 96 753 l 360 753 l 360 19 q 278 -201 360 -119 q 53 -282 197 -282 z "},"ĵ":{"ha":444,"x_min":-131,"x_max":488,"o":"m 53 -282 q -131 -243 -62 -282 l -64 -56 q 18 -78 -28 -78 q 75 -53 54 -78 q 96 21 96 -28 l 96 753 l 360 753 l 360 19 q 278 -201 360 -119 q 53 -282 197 -282 m 314 843 l 228 939 l 142 843 l -32 843 l 117 1054 l 339 1054 l 488 843 l 314 843 z "},"k":{"ha":953,"x_min":85,"x_max":957,"o":"m 426 264 l 349 185 l 349 0 l 85 0 l 85 1031 l 349 1031 l 349 490 l 618 753 l 931 753 l 618 431 l 957 0 l 638 0 l 426 264 z "},"ǩ":{"ha":953,"x_min":-78,"x_max":957,"o":"m 426 264 l 349 185 l 349 0 l 85 0 l 85 1031 l 349 1031 l 349 490 l 618 753 l 931 753 l 618 431 l 957 0 l 638 0 l 426 264 m 511 1332 l 331 1121 l 103 1121 l -78 1332 l 97 1332 l 217 1226 l 336 1332 l 511 1332 z "},"ķ":{"ha":953,"x_min":85,"x_max":957,"o":"m 426 264 l 349 185 l 349 0 l 85 0 l 85 1031 l 349 1031 l 349 490 l 618 753 l 931 753 l 618 431 l 957 0 l 638 0 l 426 264 m 444 -86 q 524 -112 494 -86 q 554 -179 554 -137 q 525 -279 554 -228 l 474 -372 l 354 -372 l 390 -262 q 335 -179 335 -242 q 365 -112 335 -137 q 444 -86 394 -86 z "},"ĸ":{"ha":926,"x_min":85,"x_max":957,"o":"m 426 264 l 349 185 l 349 0 l 85 0 l 85 753 l 349 753 l 349 490 l 618 753 l 931 753 l 618 431 l 957 0 l 638 0 l 426 264 z "},"l":{"ha":511,"x_min":85,"x_max":501,"o":"m 378 -12 q 162 59 239 -12 q 85 264 85 131 l 85 1031 l 349 1031 l 349 278 q 370 214 349 236 q 431 192 392 192 q 490 206 463 192 l 501 7 q 378 -12 442 -12 z "},"ĺ":{"ha":511,"x_min":81,"x_max":531,"o":"m 378 -12 q 162 59 239 -12 q 85 264 85 131 l 85 1031 l 349 1031 l 349 278 q 370 214 349 236 q 431 192 392 192 q 490 206 463 192 l 501 7 q 378 -12 442 -12 m 267 1332 l 531 1332 l 269 1121 l 81 1121 l 267 1332 z "},"ľ":{"ha":511,"x_min":85,"x_max":643,"o":"m 378 -12 q 162 59 239 -12 q 85 264 85 131 l 85 1031 l 349 1031 l 349 278 q 370 214 349 236 q 431 192 392 192 q 490 206 463 192 l 501 7 q 378 -12 442 -12 m 453 1093 l 643 1093 l 608 808 l 453 808 l 453 1093 z "},"ļ":{"ha":511,"x_min":85,"x_max":501,"o":"m 378 -12 q 162 59 239 -12 q 85 264 85 131 l 85 1031 l 349 1031 l 349 278 q 370 214 349 236 q 431 192 392 192 q 490 206 463 192 l 501 7 q 378 -12 442 -12 m 311 -86 q 391 -112 361 -86 q 421 -179 421 -137 q 392 -279 421 -228 l 340 -372 l 221 -372 l 257 -262 q 201 -179 201 -242 q 231 -112 201 -137 q 311 -86 261 -86 z "},"ŀ":{"ha":649,"x_min":85,"x_max":664,"o":"m 378 -12 q 162 59 239 -12 q 85 264 85 131 l 85 1031 l 349 1031 l 349 278 q 370 214 349 236 q 431 192 392 192 q 490 206 463 192 l 501 7 q 378 -12 442 -12 m 538 383 q 447 418 482 383 q 413 508 413 453 q 447 599 413 564 q 538 633 482 633 q 628 599 593 633 q 664 508 664 564 q 628 418 664 453 q 538 383 593 383 z "},"ḷ":{"ha":511,"x_min":85,"x_max":501,"o":"m 378 -12 q 162 59 239 -12 q 85 264 85 131 l 85 1031 l 349 1031 l 349 278 q 370 214 349 236 q 431 192 392 192 q 490 206 463 192 l 501 7 q 378 -12 442 -12 m 311 -303 q 233 -274 264 -303 q 201 -196 201 -244 q 233 -117 201 -147 q 311 -86 264 -86 q 390 -117 358 -86 q 421 -196 421 -147 q 390 -274 421 -244 q 311 -303 358 -303 z "},"ǉ":{"ha":935,"x_min":85,"x_max":881,"o":"m 378 -12 q 162 59 239 -12 q 85 264 85 131 l 85 1031 l 349 1031 l 349 278 q 370 214 349 236 q 431 192 392 192 q 490 206 463 192 l 501 7 q 378 -12 442 -12 m 544 -282 q 361 -243 429 -282 l 428 -56 q 510 -78 464 -78 q 567 -53 546 -78 q 588 21 588 -28 l 588 753 l 851 753 l 851 19 q 770 -201 851 -119 q 544 -282 689 -282 m 719 836 q 603 876 647 836 q 558 976 558 917 q 603 1076 558 1036 q 719 1117 647 1117 q 836 1078 792 1117 q 881 981 881 1040 q 836 877 881 918 q 719 836 792 836 z "},"ḻ":{"ha":511,"x_min":38,"x_max":585,"o":"m 378 -12 q 162 59 239 -12 q 85 264 85 131 l 85 1031 l 349 1031 l 349 278 q 370 214 349 236 q 431 192 392 192 q 490 206 463 192 l 501 7 q 378 -12 442 -12 m 38 -118 l 585 -118 l 585 -260 l 38 -260 l 38 -118 z "},"ł":{"ha":511,"x_min":-75,"x_max":508,"o":"m 378 -12 q 162 59 239 -12 q 85 264 85 131 l 85 1031 l 349 1031 l 349 278 q 370 214 349 236 q 431 192 392 192 q 490 206 463 192 l 501 7 q 378 -12 442 -12 m -75 386 l 421 756 l 508 631 l 14 263 l -75 386 z "},"m":{"ha":1451,"x_min":85,"x_max":1369,"o":"m 1065 765 q 1287 682 1204 765 q 1369 431 1369 599 l 1369 0 l 1106 0 l 1106 388 q 1076 504 1106 467 q 992 542 1046 542 q 896 500 932 542 q 860 374 860 458 l 860 0 l 596 0 l 596 388 q 482 542 596 542 q 385 500 421 542 q 349 374 349 458 l 349 0 l 85 0 l 85 753 l 336 753 l 336 674 q 435 742 378 719 q 561 765 493 765 q 703 736 640 765 q 804 647 765 707 q 917 735 849 704 q 1065 765 985 765 z "},"ṃ":{"ha":1451,"x_min":85,"x_max":1369,"o":"m 1065 765 q 1287 682 1204 765 q 1369 431 1369 599 l 1369 0 l 1106 0 l 1106 388 q 1076 504 1106 467 q 992 542 1046 542 q 896 500 932 542 q 860 374 860 458 l 860 0 l 596 0 l 596 388 q 482 542 596 542 q 385 500 421 542 q 349 374 349 458 l 349 0 l 85 0 l 85 753 l 336 753 l 336 674 q 435 742 378 719 q 561 765 493 765 q 703 736 640 765 q 804 647 765 707 q 917 735 849 704 q 1065 765 985 765 m 725 -303 q 647 -274 678 -303 q 615 -196 615 -244 q 647 -117 615 -147 q 725 -86 678 -86 q 803 -117 772 -86 q 835 -196 835 -147 q 803 -274 835 -244 q 725 -303 772 -303 z "},"n":{"ha":967,"x_min":85,"x_max":886,"o":"m 575 765 q 801 682 715 765 q 886 431 886 599 l 886 0 l 622 0 l 622 388 q 499 542 622 542 q 390 497 431 542 q 349 364 349 453 l 349 0 l 85 0 l 85 753 l 336 753 l 336 671 q 442 741 381 717 q 575 765 503 765 z "},"ń":{"ha":967,"x_min":85,"x_max":886,"o":"m 575 765 q 801 682 715 765 q 886 431 886 599 l 886 0 l 622 0 l 622 388 q 499 542 622 542 q 390 497 431 542 q 349 364 349 453 l 349 0 l 85 0 l 85 753 l 336 753 l 336 671 q 442 741 381 717 q 575 765 503 765 m 539 1054 l 803 1054 l 542 843 l 353 843 l 539 1054 z "},"ŉ":{"ha":1179,"x_min":49,"x_max":1099,"o":"m 50 972 l 221 972 l 185 607 l 49 607 l 50 972 m 788 765 q 1013 682 928 765 q 1099 431 1099 599 l 1099 0 l 835 0 l 835 388 q 711 542 835 542 q 602 497 643 542 q 561 364 561 453 l 561 0 l 297 0 l 297 753 l 549 753 l 549 671 q 654 741 593 717 q 788 765 715 765 z "},"ň":{"ha":967,"x_min":85,"x_max":886,"o":"m 575 765 q 801 682 715 765 q 886 431 886 599 l 886 0 l 622 0 l 622 388 q 499 542 622 542 q 390 497 431 542 q 349 364 349 453 l 349 0 l 85 0 l 85 753 l 336 753 l 336 671 q 442 741 381 717 q 575 765 503 765 m 783 1054 l 603 843 l 375 843 l 194 1054 l 369 1054 l 489 949 l 608 1054 l 783 1054 z "},"ņ":{"ha":967,"x_min":85,"x_max":886,"o":"m 575 765 q 801 682 715 765 q 886 431 886 599 l 886 0 l 622 0 l 622 388 q 499 542 622 542 q 390 497 431 542 q 349 364 349 453 l 349 0 l 85 0 l 85 753 l 336 753 l 336 671 q 442 741 381 717 q 575 765 503 765 m 489 -86 q 569 -112 539 -86 q 599 -179 599 -137 q 569 -279 599 -228 l 518 -372 l 399 -372 l 435 -262 q 379 -179 379 -242 q 409 -112 379 -137 q 489 -86 439 -86 z "},"ṅ":{"ha":967,"x_min":85,"x_max":886,"o":"m 575 765 q 801 682 715 765 q 886 431 886 599 l 886 0 l 622 0 l 622 388 q 499 542 622 542 q 390 497 431 542 q 349 364 349 453 l 349 0 l 85 0 l 85 753 l 336 753 l 336 671 q 442 741 381 717 q 575 765 503 765 m 489 840 q 390 879 428 840 q 351 978 351 918 q 390 1076 351 1038 q 489 1114 429 1114 q 588 1076 549 1114 q 626 978 626 1038 q 588 879 626 918 q 489 840 549 840 z "},"ṇ":{"ha":967,"x_min":85,"x_max":886,"o":"m 575 765 q 801 682 715 765 q 886 431 886 599 l 886 0 l 622 0 l 622 388 q 499 542 622 542 q 390 497 431 542 q 349 364 349 453 l 349 0 l 85 0 l 85 753 l 336 753 l 336 671 q 442 741 381 717 q 575 765 503 765 m 489 -303 q 410 -274 442 -303 q 379 -196 379 -244 q 410 -117 379 -147 q 489 -86 442 -86 q 567 -117 536 -86 q 599 -196 599 -147 q 567 -274 599 -244 q 489 -303 536 -303 z "},"ŋ":{"ha":967,"x_min":85,"x_max":886,"o":"m 575 765 q 801 682 715 765 q 886 431 886 599 l 886 19 q 805 -201 886 -119 q 579 -282 724 -282 q 396 -243 464 -282 l 463 -56 q 544 -78 499 -78 q 601 -53 581 -78 q 622 21 622 -28 l 622 388 q 499 542 622 542 q 390 497 431 542 q 349 364 349 453 l 349 0 l 85 0 l 85 753 l 336 753 l 336 671 q 442 741 381 717 q 575 765 503 765 z "},"ǌ":{"ha":1411,"x_min":85,"x_max":1356,"o":"m 575 765 q 801 682 715 765 q 886 431 886 599 l 886 0 l 622 0 l 622 388 q 499 542 622 542 q 390 497 431 542 q 349 364 349 453 l 349 0 l 85 0 l 85 753 l 336 753 l 336 671 q 442 741 381 717 q 575 765 503 765 m 1019 -282 q 836 -243 904 -282 l 903 -56 q 985 -78 939 -78 q 1042 -53 1021 -78 q 1063 21 1063 -28 l 1063 753 l 1326 753 l 1326 19 q 1245 -201 1326 -119 q 1019 -282 1164 -282 m 1194 836 q 1078 876 1122 836 q 1033 976 1033 917 q 1078 1076 1033 1036 q 1194 1117 1122 1117 q 1311 1078 1267 1117 q 1356 981 1356 1040 q 1311 877 1356 918 q 1194 836 1267 836 z "},"ṉ":{"ha":967,"x_min":85,"x_max":886,"o":"m 575 765 q 801 682 715 765 q 886 431 886 599 l 886 0 l 622 0 l 622 388 q 499 542 622 542 q 390 497 431 542 q 349 364 349 453 l 349 0 l 85 0 l 85 753 l 336 753 l 336 671 q 442 741 381 717 q 575 765 503 765 m 215 -118 l 763 -118 l 763 -260 l 215 -260 l 215 -118 z "},"ñ":{"ha":967,"x_min":85,"x_max":886,"o":"m 575 765 q 801 682 715 765 q 886 431 886 599 l 886 0 l 622 0 l 622 388 q 499 542 622 542 q 390 497 431 542 q 349 364 349 453 l 349 0 l 85 0 l 85 753 l 336 753 l 336 671 q 442 741 381 717 q 575 765 503 765 m 597 833 q 530 848 560 833 q 464 888 500 863 q 424 913 438 906 q 397 919 411 919 q 353 900 369 919 q 333 846 336 881 l 204 846 q 254 1007 207 947 q 381 1067 301 1067 q 447 1053 418 1067 q 514 1014 476 1039 q 553 989 540 996 q 581 982 567 982 q 625 1001 608 982 q 644 1051 642 1019 l 774 1051 q 724 893 771 953 q 597 833 676 833 z "},"o":{"ha":925,"x_min":38,"x_max":888,"o":"m 463 -12 q 244 38 342 -12 q 92 176 147 88 q 38 378 38 265 q 92 578 38 489 q 244 716 147 667 q 463 765 340 765 q 682 716 585 765 q 833 578 779 667 q 888 378 888 490 q 833 176 888 265 q 682 38 779 88 q 463 -12 585 -12 m 463 197 q 576 245 532 197 q 621 378 621 293 q 576 508 621 461 q 463 556 532 556 q 349 508 393 556 q 304 378 304 461 q 349 245 304 293 q 463 197 393 197 z "},"ó":{"ha":925,"x_min":38,"x_max":888,"o":"m 463 -12 q 244 38 342 -12 q 92 176 147 88 q 38 378 38 265 q 92 578 38 489 q 244 716 147 667 q 463 765 340 765 q 682 716 585 765 q 833 578 779 667 q 888 378 888 490 q 833 176 888 265 q 682 38 779 88 q 463 -12 585 -12 m 463 197 q 576 245 532 197 q 621 378 621 293 q 576 508 621 461 q 463 556 532 556 q 349 508 393 556 q 304 378 304 461 q 349 245 304 293 q 463 197 393 197 m 510 1054 l 774 1054 l 513 843 l 324 843 l 510 1054 z "},"ŏ":{"ha":925,"x_min":38,"x_max":888,"o":"m 463 -12 q 244 38 342 -12 q 92 176 147 88 q 38 378 38 265 q 92 578 38 489 q 244 716 147 667 q 463 765 340 765 q 682 716 585 765 q 833 578 779 667 q 888 378 888 490 q 833 176 888 265 q 682 38 779 88 q 463 -12 585 -12 m 463 197 q 576 245 532 197 q 621 378 621 293 q 576 508 621 461 q 463 556 532 556 q 349 508 393 556 q 304 378 304 461 q 349 245 304 293 q 463 197 393 197 m 460 831 q 267 891 342 831 q 188 1054 192 951 l 349 1054 q 382 988 350 1013 q 460 963 414 963 q 538 988 506 963 q 571 1054 569 1013 l 732 1054 q 653 891 728 951 q 460 831 578 831 z "},"ô":{"ha":925,"x_min":38,"x_max":888,"o":"m 463 -12 q 244 38 342 -12 q 92 176 147 88 q 38 378 38 265 q 92 578 38 489 q 244 716 147 667 q 463 765 340 765 q 682 716 585 765 q 833 578 779 667 q 888 378 888 490 q 833 176 888 265 q 682 38 779 88 q 463 -12 585 -12 m 463 197 q 576 245 532 197 q 621 378 621 293 q 576 508 621 461 q 463 556 532 556 q 349 508 393 556 q 304 378 304 461 q 349 245 304 293 q 463 197 393 197 m 579 843 l 460 949 l 340 843 l 165 843 l 346 1054 l 574 1054 l 754 843 l 579 843 z "},"ố":{"ha":925,"x_min":38,"x_max":1049,"o":"m 463 -12 q 244 38 342 -12 q 92 176 147 88 q 38 378 38 265 q 92 578 38 489 q 244 716 147 667 q 463 765 340 765 q 682 716 585 765 q 833 578 779 667 q 888 378 888 490 q 833 176 888 265 q 682 38 779 88 q 463 -12 585 -12 m 463 197 q 576 245 532 197 q 621 378 621 293 q 576 508 621 461 q 463 556 532 556 q 349 508 393 556 q 304 378 304 461 q 349 245 304 293 q 463 197 393 197 m 578 843 l 460 925 l 342 843 l 165 843 l 347 1013 l 572 1013 l 754 843 l 578 843 m 790 1156 l 1049 1156 l 825 982 l 643 982 l 790 1156 z "},"ộ":{"ha":925,"x_min":38,"x_max":888,"o":"m 463 -12 q 244 38 342 -12 q 92 176 147 88 q 38 378 38 265 q 92 578 38 489 q 244 716 147 667 q 463 765 340 765 q 682 716 585 765 q 833 578 779 667 q 888 378 888 490 q 833 176 888 265 q 682 38 779 88 q 463 -12 585 -12 m 463 197 q 576 245 532 197 q 621 378 621 293 q 576 508 621 461 q 463 556 532 556 q 349 508 393 556 q 304 378 304 461 q 349 245 304 293 q 463 197 393 197 m 460 -303 q 381 -274 413 -303 q 350 -196 350 -244 q 381 -117 350 -147 q 460 -86 413 -86 q 538 -117 507 -86 q 569 -196 569 -147 q 538 -274 569 -244 q 460 -303 507 -303 m 579 843 l 460 949 l 340 843 l 165 843 l 346 1054 l 574 1054 l 754 843 l 579 843 z "},"ồ":{"ha":925,"x_min":38,"x_max":907,"o":"m 463 -12 q 244 38 342 -12 q 92 176 147 88 q 38 378 38 265 q 92 578 38 489 q 244 716 147 667 q 463 765 340 765 q 682 716 585 765 q 833 578 779 667 q 888 378 888 490 q 833 176 888 265 q 682 38 779 88 q 463 -12 585 -12 m 463 197 q 576 245 532 197 q 621 378 621 293 q 576 508 621 461 q 463 556 532 556 q 349 508 393 556 q 304 378 304 461 q 349 245 304 293 q 463 197 393 197 m 578 843 l 460 925 l 342 843 l 165 843 l 347 1013 l 572 1013 l 754 843 l 578 843 m 501 1156 l 760 1156 l 907 982 l 726 982 l 501 1156 z "},"ổ":{"ha":925,"x_min":38,"x_max":888,"o":"m 463 -12 q 244 38 342 -12 q 92 176 147 88 q 38 378 38 265 q 92 578 38 489 q 244 716 147 667 q 463 765 340 765 q 682 716 585 765 q 833 578 779 667 q 888 378 888 490 q 833 176 888 265 q 682 38 779 88 q 463 -12 585 -12 m 463 197 q 576 245 532 197 q 621 378 621 293 q 576 508 621 461 q 463 556 532 556 q 349 508 393 556 q 304 378 304 461 q 349 245 304 293 q 463 197 393 197 m 578 843 l 460 925 l 342 843 l 165 843 l 347 1013 l 572 1013 l 754 843 l 578 843 m 669 1011 q 719 1067 719 1038 q 707 1094 719 1083 q 675 1104 694 1104 q 613 1088 646 1104 l 571 1163 q 697 1196 624 1196 q 797 1165 760 1196 q 835 1081 835 1133 q 806 1005 835 1038 q 732 954 776 972 l 669 1011 z "},"ỗ":{"ha":925,"x_min":38,"x_max":888,"o":"m 463 -12 q 244 38 342 -12 q 92 176 147 88 q 38 378 38 265 q 92 578 38 489 q 244 716 147 667 q 463 765 340 765 q 682 716 585 765 q 833 578 779 667 q 888 378 888 490 q 833 176 888 265 q 682 38 779 88 q 463 -12 585 -12 m 463 197 q 576 245 532 197 q 621 378 621 293 q 576 508 621 461 q 463 556 532 556 q 349 508 393 556 q 304 378 304 461 q 349 245 304 293 q 463 197 393 197 m 578 843 l 460 925 l 342 843 l 165 843 l 347 1013 l 572 1013 l 754 843 l 578 843 m 564 1061 q 494 1074 524 1061 q 429 1107 464 1086 q 399 1124 414 1117 q 372 1132 383 1132 q 331 1116 346 1132 q 313 1072 315 1100 l 181 1072 q 228 1212 182 1163 q 357 1261 275 1261 q 424 1249 394 1261 q 489 1215 454 1236 q 524 1197 511 1203 q 550 1190 538 1190 q 592 1207 576 1190 q 611 1250 608 1224 l 739 1250 q 692 1111 738 1161 q 564 1061 646 1061 z "},"ȍ":{"ha":925,"x_min":38,"x_max":888,"o":"m 463 -12 q 244 38 342 -12 q 92 176 147 88 q 38 378 38 265 q 92 578 38 489 q 244 716 147 667 q 463 765 340 765 q 682 716 585 765 q 833 578 779 667 q 888 378 888 490 q 833 176 888 265 q 682 38 779 88 q 463 -12 585 -12 m 463 197 q 576 245 532 197 q 621 378 621 293 q 576 508 621 461 q 463 556 532 556 q 349 508 393 556 q 304 378 304 461 q 349 245 304 293 q 463 197 393 197 m 78 1054 l 314 1054 l 400 843 l 217 843 l 78 1054 m 379 1054 l 615 1054 l 703 843 l 519 843 l 379 1054 z "},"ö":{"ha":925,"x_min":38,"x_max":888,"o":"m 463 -12 q 244 38 342 -12 q 92 176 147 88 q 38 378 38 265 q 92 578 38 489 q 244 716 147 667 q 463 765 340 765 q 682 716 585 765 q 833 578 779 667 q 888 378 888 490 q 833 176 888 265 q 682 38 779 88 q 463 -12 585 -12 m 463 197 q 576 245 532 197 q 621 378 621 293 q 576 508 621 461 q 463 556 532 556 q 349 508 393 556 q 304 378 304 461 q 349 245 304 293 q 463 197 393 197 m 313 842 q 234 872 265 842 q 203 950 203 901 q 234 1029 203 999 q 313 1060 265 1060 q 391 1029 360 1060 q 422 950 422 999 q 391 872 422 901 q 313 842 360 842 m 607 842 q 528 872 560 842 q 497 950 497 901 q 528 1029 497 999 q 607 1060 560 1060 q 685 1029 654 1060 q 717 950 717 999 q 685 872 717 901 q 607 842 654 842 z "},"ȫ":{"ha":925,"x_min":38,"x_max":888,"o":"m 463 -12 q 244 38 342 -12 q 92 176 147 88 q 38 378 38 265 q 92 578 38 489 q 244 716 147 667 q 463 765 340 765 q 682 716 585 765 q 833 578 779 667 q 888 378 888 490 q 833 176 888 265 q 682 38 779 88 q 463 -12 585 -12 m 463 197 q 576 245 532 197 q 621 378 621 293 q 576 508 621 461 q 463 556 532 556 q 349 508 393 556 q 304 378 304 461 q 349 245 304 293 q 463 197 393 197 m 318 842 q 244 870 274 842 q 214 944 214 899 q 244 1019 214 990 q 318 1049 274 1049 q 394 1019 364 1049 q 424 944 424 990 q 394 870 424 899 q 318 842 364 842 m 601 842 q 527 870 557 842 q 497 944 497 899 q 527 1019 497 990 q 601 1049 557 1049 q 676 1019 646 1049 q 706 944 706 990 q 676 870 706 899 q 601 842 646 842 m 186 1235 l 733 1235 l 733 1099 l 186 1099 l 186 1235 z "},"ȱ":{"ha":925,"x_min":38,"x_max":888,"o":"m 463 -12 q 244 38 342 -12 q 92 176 147 88 q 38 378 38 265 q 92 578 38 489 q 244 716 147 667 q 463 765 340 765 q 682 716 585 765 q 833 578 779 667 q 888 378 888 490 q 833 176 888 265 q 682 38 779 88 q 463 -12 585 -12 m 463 197 q 576 245 532 197 q 621 378 621 293 q 576 508 621 461 q 463 556 532 556 q 349 508 393 556 q 304 378 304 461 q 349 245 304 293 q 463 197 393 197 m 460 839 q 381 869 413 839 q 350 947 350 899 q 381 1025 350 994 q 460 1056 413 1056 q 538 1025 507 1056 q 569 947 569 994 q 538 869 569 899 q 460 839 507 839 m 186 1246 l 733 1246 l 733 1110 l 186 1110 l 186 1246 z "},"ọ":{"ha":925,"x_min":38,"x_max":888,"o":"m 463 -12 q 244 38 342 -12 q 92 176 147 88 q 38 378 38 265 q 92 578 38 489 q 244 716 147 667 q 463 765 340 765 q 682 716 585 765 q 833 578 779 667 q 888 378 888 490 q 833 176 888 265 q 682 38 779 88 q 463 -12 585 -12 m 463 197 q 576 245 532 197 q 621 378 621 293 q 576 508 621 461 q 463 556 532 556 q 349 508 393 556 q 304 378 304 461 q 349 245 304 293 q 463 197 393 197 m 460 -303 q 381 -274 413 -303 q 350 -196 350 -244 q 381 -117 350 -147 q 460 -86 413 -86 q 538 -117 507 -86 q 569 -196 569 -147 q 538 -274 569 -244 q 460 -303 507 -303 z "},"ò":{"ha":925,"x_min":38,"x_max":888,"o":"m 463 -12 q 244 38 342 -12 q 92 176 147 88 q 38 378 38 265 q 92 578 38 489 q 244 716 147 667 q 463 765 340 765 q 682 716 585 765 q 833 578 779 667 q 888 378 888 490 q 833 176 888 265 q 682 38 779 88 q 463 -12 585 -12 m 463 197 q 576 245 532 197 q 621 378 621 293 q 576 508 621 461 q 463 556 532 556 q 349 508 393 556 q 304 378 304 461 q 349 245 304 293 q 463 197 393 197 m 146 1054 l 410 1054 l 596 843 l 407 843 l 146 1054 z "},"ỏ":{"ha":925,"x_min":38,"x_max":888,"o":"m 463 -12 q 244 38 342 -12 q 92 176 147 88 q 38 378 38 265 q 92 578 38 489 q 244 716 147 667 q 463 765 340 765 q 682 716 585 765 q 833 578 779 667 q 888 378 888 490 q 833 176 888 265 q 682 38 779 88 q 463 -12 585 -12 m 463 197 q 576 245 532 197 q 621 378 621 293 q 576 508 621 461 q 463 556 532 556 q 349 508 393 556 q 304 378 304 461 q 349 245 304 293 q 463 197 393 197 m 429 910 q 482 947 467 928 q 497 990 497 967 q 480 1031 497 1017 q 435 1046 463 1046 q 354 1018 394 1046 l 300 1121 q 375 1159 332 1146 q 464 1172 418 1172 q 595 1128 544 1172 q 646 1013 646 1083 q 510 829 646 890 l 429 910 z "},"ơ":{"ha":925,"x_min":38,"x_max":888,"o":"m 781 644 q 860 525 832 593 q 888 378 888 457 q 833 176 888 265 q 681 38 778 88 q 463 -12 585 -12 q 244 38 340 -12 q 92 176 147 88 q 38 378 38 265 q 92 578 38 490 q 244 716 147 667 q 465 765 342 765 q 567 758 494 765 q 629 753 611 753 q 689 776 668 753 q 710 840 710 800 q 679 921 710 885 l 831 976 q 881 829 881 910 q 854 722 881 769 q 781 644 828 674 m 463 197 q 576 245 532 197 q 621 378 621 293 q 576 508 621 461 q 463 556 532 556 q 349 508 393 556 q 304 378 304 461 q 349 245 304 293 q 463 197 393 197 z "}}}
